<?xml version="1.0" encoding="UTF-8"?> <svg xmlns="http://www.w3.org/2000/svg" xmlns:xlink="http://www.w3.org/1999/xlink" version="1.1" id="Calque_1" x="0px" y="0px" viewBox="0 0 850.4 850.4" style="enable-background:new 0 0 850.4 850.4;" xml:space="preserve"> <style type="text/css"> .st0{fill:#ef5e5e;} </style> <g> <path class="st0" d="M432,391.3c-1.9,0.6-3,2.4-2.4,4.3c0.6,1.9,2.4,3,4.3,2.4c4.3-1.3,7.8,3.9,10.1,8.5c0.6,1.3,1.9,1.9,3.2,1.9 c0.6,0,0.9-0.2,1.5-0.4c1.7-0.7,2.4-3,1.7-4.6C443.8,390.2,435.9,390,432,391.3z"></path> <path class="st0" d="M801.5,282.6c-1.3-3.3-2.6-6.9-4.1-10.2c-20-48.7-49.7-93.5-88.1-131.9C633.5,65,532.5,23.4,425.3,23.4 c-14.4,0-28.8,0.7-42.9,2.2h-5.4l-6.3,1.5c-36.2,4.8-71.1,14.5-104.2,28.8c-3.4,1.5-6.5,3-9.9,4.5c-42.4,19.5-81.2,46.5-115.2,80.3 C88.7,193.1,52.4,257.5,35.1,327.8c-0.7,3.3-1.5,6.5-2.2,9.8c-5.2,24.3-8.4,49.2-9.1,74.5c0,2.4,0,4.6-0.2,7.1c0,1.3,0,2.8,0,4.1 c0,17.3,1.1,34.6,3.4,51.5c0.4,2.4,0.6,5,0.9,7.4c12.5,84.4,51.7,162.2,113.3,223.7c75.8,75.4,176.8,117.1,284,117.1 c107.4,0,208.2-41.6,284-117.1c9.5-9.5,18.5-19.3,27.1-29.5c1.7-2,3.2-4.1,4.9-5.9l4.3-5.4c0.6-0.7,1.1-1.3,1.5-2 c25.2-33.4,44.8-70.2,58.3-109.3c0.7-2.2,1.5-4.6,2.2-6.9c3.9-12.1,7.3-24.5,10.1-37c0.9-3.9,1.7-7.6,2.4-11.5 c4.7-24.3,7.1-49.4,7.1-74.9C827.1,374.4,818.3,327,801.5,282.6z M618.5,205.3c0,0,0-0.2,0-0.6l0,0 C618.5,204.9,618.5,205.3,618.5,205.3z M496.6,321.3c0.2,1.9,2.1,3.2,3.9,3c12.3-1.7,27.1,0,30.8,6.3c2.6,13.6,5.6,28.4,8.8,43.3 c-9.3-2.4-24.8-9.3-29.5-14.7c-1.3-1.5-3.4-1.7-4.9-0.4c-1.5,1.3-1.7,3.3-0.4,4.8c6.7,8,26.7,15.8,36.4,17.7c3,13,6,25.5,9.3,36.8 c-0.2,1.9-0.6,3.7-0.7,5.6c-4.5,31.8-12.9,90.7-44.8,113.4c-11.8,8.4-25.8,11.1-42,8.2c-4.3-2-10.1-4.5-16.2-7.1 c-11.9-4.8-33.4-13.8-37.3-19.5c5.8-5.8,17.4-20.3,12.3-39.8c-0.2-1.3-0.6-2.4-0.7-3.7c0,0,0,0,0.2,0c4.9,0,11.4-1.5,19.8-3.3 c4.7-1.1,9-2,11.2-2.2c3.9-0.2,5.6-2,6.2-3.5c1.7-4.5-3.2-9.5-12.1-18.2l-1.5-1.5c-5.2-5.2-8.4-11.5-11-16.4 c-1.1-2.2-2.1-4.1-3.2-5.8c2.8-2,3.9-4.5,4.3-6.1c0.7-3.7-0.7-8-4.7-12.6c-5-6.1-10.1-25.8-7.7-34c0.2-0.6,0.7-1.9,1.5-2.2h0.2 c26.7-8.4,52.3-36.4,51.3-50.5c-0.2-1.9-1.9-3.3-3.7-3.2c-1.9,0.2-3.4,1.9-3.2,3.7c0.6,7.6-14.7,27.7-34.9,38.7 c0.4-0.7,0.7-1.3,0.9-1.9c0.6-1.3,1.3-2.6,1.9-3.2c0.7-0.7,1.1-1.9,0.9-3c0-0.2,0-0.4-0.2-0.6c0.2,0,0.4-0.2,0.4-0.2 c1.1-0.4,1.9-1.5,2.1-2.6c0.6-3.3,0.9-4.3,0.9-4.5c0.2-0.6,0.2-0.9,0.2-1.5c-0.2-1.7-0.4-3.3-0.6-5c-0.7-5.8-1.5-11.5,0-17.8 c3.7-8.9,9.1-12.8,25.2-6.7c1.9,0.7,3.7-0.2,4.5-2c0.7-1.9-0.2-3.7-2.1-4.5c-8-3-14.6-4.1-19.8-3c1.1-1.5,2.4-3,3.7-4.6l0.2-0.2 c6.3-8.4,12.1-19.1,17.6-29.7c16.6-22.1,31.9-30.3,37.2-30.1c3,1.9,5,3.5,6.2,4.3c0.7,3.7,1.7,7.6,2.6,11.7 c2.2,10.2,4.9,21.9,8,35.1c1.1,5.2,2.4,12.5,3.9,20.8c0.7,3.7,1.3,7.6,2.2,11.5c-9-4.1-21.8-4.1-29.9-3 C497.5,317.7,496.2,319.4,496.6,321.3z M52.6,461l3.7-4.5c-0.4,0.6-1.1,0.9-1.7,1.1c4.9-8.5,9.7-19.1,14.6-30.3 c2.4-5.6,5-11.3,7.7-16.7l2.2-3.9l3.4-5.9c13.8-5,28.2-10.4,42.9-16.5h0.6c40.1,2.6,157.6,10,192.3,76.4c2.1,3.9,3.7,8,5.2,12.3 c0,0.2,0.2,0.4,0.2,0.6c1.7,3.3,3.4,7.2,4.5,11.7c2.6,10.2,2.1,23.8-8.4,41.3c-0.2,0.2-0.2,0.6-0.4,0.7l-0.9,1.1 c-12.3-9.3-22.8-17.7-33.8-27.1c-0.2-0.2-0.4-0.4-0.6-0.4C236,474.6,96.9,460.1,50.6,464.5C51.1,463.4,51.9,462.3,52.6,461z M302.6,321.5c-0.4-2.2-2.4-3.9-4.7-3.5c-5,0.7-9-7.2-10.8-12.6c41.4-23.4,79.7-47.6,113.1-71.4l5,12.1c0.2,0.4,0.4,0.7,0.6,0.9 c1.5,1.7,3.5,4.3,5.4,7.4c-3.5-3.3-7.1-5.2-9.5-6.5c-1.7-0.7-3.7,0-4.7,1.7c-0.7,1.7,0,3.7,1.7,4.6c5.4,2.4,12.5,7.8,16.6,19 c-0.4,5.4-2.1,11.1-5.8,17.7c-2.2-6.9-4.5-12.6-4.7-12.8c-0.7-1.9-2.6-2.6-4.5-2c-1.9,0.7-2.6,2.6-2.1,4.5c0,0.2,3.9,10.2,6.5,19.3 l0,0l0,0c0.6,1.7,1.1,3.5,1.9,5.6c3,8.2,6.7,18.6,4.7,34.9c-0.7,7.8-0.9,18.6,5.8,25.6c-0.6,0.9-1.3,2-1.7,3.5 c-3.2,10.4,2.6,32.7,9,40.5c3.2,3.9,3.4,6.1,3.2,6.9c-0.2,0.9-0.9,1.7-2.2,2.4c-0.9,0.4-1.7,0.7-2.4,1.3c-0.2,0-0.2,0.2-0.4,0.2 c-0.2,0.2-0.4,0.2-0.4,0.4c0,0,0,0,0,0.2c-1.3,1.1-2.1,2.4-2.4,4.1c-0.4,2.4,0.6,4.6,2.4,6.1c3,2.6,4.3,5.8,3.9,9.1 c-0.6,5-4.7,9.8-8.6,12.1c-7.1,3.9-6.7,11.1-5.2,18l0,0c0.4,1.5,0.6,2.8,0.9,4.3c0.6,1.9,0.9,3.7,1.3,5.6v0.2 c4.7,17.5-7.3,30.3-11.6,34.4c-19.4,10-50.6,15.6-73.9,7.2c11.4-23.8,5.6-40.7,0-51.7c-25.2-74.7-137.6-88.3-190.3-92.2 c36.4-15.4,75.2-34,114.4-55c8.6-4.6,17.2-9.3,25.8-13.9c5.2,13.4,11.9,16.9,17.4,16.9c0.7,0,1.3,0,1.9-0.2 C301.5,325.7,303,323.7,302.6,321.5z M406.1,229.8c3.2-2.4,6.3-4.6,9.5-6.9c-2.6,6.1-4.5,11.5-6,15.4L406.1,229.8z M441.5,455.8 c-0.7-0.6-4.7-4.6-7.7-7.6c-0.6-0.6-1.1-1.1-1.7-1.9c0.4-1.1,0.7-2,0.9-3.2c1.9,2.8,3.9,5.6,6.7,8.2l1.5,1.5 c3.4,3.3,7.7,7.6,9.5,10.2c-2.8,0.4-6.7,1.1-11.4,2.2c-5.6,1.3-16.8,3.7-20,3c-1.1-5.2-0.7-8,2.1-9.7c1.3-0.7,2.8-1.7,4.1-2.8 c4.7,0.2,9.9,1.3,15.1,2.6c0.2,0,0.2,0,0.4,0c0.6,0,1.1-0.4,1.3-0.9C442.5,456.7,442.3,456.2,441.5,455.8z M469.4,554.3 c-0.6-0.4-0.9-0.9-1.5-1.3c-0.4-0.2-0.6-0.2-0.7-0.4c0.6,0,0.9,0.2,1.5,0.2c0.4,0,0.7,0,0.9,0C469.5,553.4,469.5,553.7,469.4,554.3 z M473.1,589.4c58.4,10.2,170.5,43.7,204.4,54.1c-28.9,5.8-77.9,12.6-123.4,5.2c-9-7.4-18.7-13.8-29.5-18.6 c-3.7-1.7-7.7-3.3-11.8-4.8c-4.5-1.7-9.3-3-14.2-4.3c-10.6-2.8-20.9-5.9-31-9.3C470.1,603.9,472,596.5,473.1,589.4z M474,583.8 c0.6-4.5,0.9-8.7,0.9-12.5c0-0.2,0-0.2,0-0.4l0,0c8.2-0.9,81.6-9.5,136.5-36.8c10.5,15.6,22.8,32.3,37.2,50.2 c1.7,2.2,3.5,4.3,5.2,6.5c11.4,13.8,23.9,27.9,37.9,42.4c0,0.2,0.2,0.2,0.2,0.2c2.1,1.9,4.1,3.3,6.2,5c-2.4,0.6-5.6,1.5-9.5,2.2 C681.3,638.7,542,595.5,474,583.8z M475.7,565.3c0.7-7.6,0.9-11.1,0.9-12.3c12.1-0.2,23.2-3.7,32.7-10.6 c31.6-22.5,41.4-75.8,46.3-109.6c2.1,5.8,4.1,11,6.2,15.1l0.7,1.5c7.8,15.4,19.4,38.7,37.3,67.1c1.1,1.9,2.4,3.9,3.7,5.8 c1.5,2.2,3.2,4.6,4.7,7.1C556.7,555.2,488,564,475.7,565.3z M479.6,245.3c3.2-7.4,6.3-14.7,10.6-18c3.2,1.7,6,3.2,8.6,4.6 C493.3,234.3,486.5,238.8,479.6,245.3z M499.4,224.5c4.1-0.7,7.1-1.1,9-1.5c0.7,2.6,1.3,5.4,2.1,8.2 C507.6,229.3,503.9,226.9,499.4,224.5z M493.1,218.5c-1.7,0.4-3.4,0.9-4.9,1.7H488c-7.5,4.3-11.8,14.5-15.9,24.3 c-1.3,3.3-2.8,6.7-4.3,9.8l-0.2,0.2c-6.3,12.8-13.4,27.5-21.3,37.7c-7.7,8.7-11.4,16.4-12.9,23.2v0.2c-1.7,7.4-0.9,14.1,0,20.3 c0.2,1.5,0.4,2.8,0.6,4.3c-0.2,0.6-0.4,1.3-0.6,2.2c-0.9,0-2.4-0.2-4.3-0.6c-1.5-0.4-3,0.4-3.7,1.7c-0.7,1.3-0.6,3,0.4,4.1 c0.2,0.2,1.5,1.7,3.4,3.2c-0.2,0.6-0.6,0.9-0.7,1.5c-1.3,2.6-3,5.8-5.8,8.7c-3.7-3.9-5-10.4-4.1-20.3c2.2-18-2.1-29.5-5-37.9 c-0.4-1.3-0.9-2.4-1.3-3.5c17.4-24.7,9-43.7,1.9-53.5c1.5-4.3,6-16.4,12.5-31.4c9.7-7.4,19-14.9,27.4-22.1 c10.6-8.9,21.7-19,31.4-29.2c10.5,19.9,16.4,35.7,21.1,53C504.1,216.7,499.6,217.4,493.1,218.5z M786.8,265.3 c0.2,0.6,0.6,1.1,0.7,1.7c-0.2-0.2-0.6-0.2-0.7-0.4V265.3z M267.2,63.3c31.9,10.2,58.4,29.9,75.2,56.5c0.6,0.9,1.1,1.9,1.7,2.8 l15.3,26.6c-7.8,18.6-30.8,42.7-64.4,68.2c-5,3.9-10.3,7.6-15.9,11.5c-16.4,11.7-34.9,23.4-55.1,35.1 c-69.1,40-140.8,68.4-183.5,72.8l-0.2-0.4C68.1,213.9,153.8,112.8,267.2,63.3z M38.6,343.9L38.6,343.9c-0.2,0-0.4,0-0.4,0 C38.4,343.9,38.4,343.9,38.6,343.9z M38.6,344.1h0.2c43.5-3.7,117.6-32.7,188.8-74c74.9-43.3,126.8-88.3,138.9-119.9 c0.4-0.9,0.4-2-0.2-3l-15.9-27.5C404.8,100,450.5,89,479.4,89c17,0,28,3.7,31.7,10.8c2.1,3.7,2.1,8.7,0.4,14.5l-4.3,9.8 c-1.5,2.6-3.2,5.4-5,8.4l-6.5,8.9c-10.6,13.6-26.3,29-46.1,45.9c-14.7,12.5-31.4,25.5-49.7,38.5c-0.2,0-0.2,0.2-0.4,0.2 c-34.4,24.5-74.1,49.8-117.1,74c-0.6,0-1.1,0-1.5,0.2c-1.1,0.4-1.9,1.1-2.4,2c-9.1,5-18.5,10.2-27.8,15.2 c-43.9,23.4-87,43.7-127,60.2c-0.4,0.2-0.6,0.2-0.9,0.4c-14.9,6.1-29.5,11.7-43.3,16.7c-0.4,0.2-0.9,0.4-1.3,0.6 c-16.6,5.9-32.5,11-47.2,15.2C31.5,387.6,34.1,365.5,38.6,344.1z M33,466l1.1,4.1c-0.2,0.2-0.4,0.2-0.6,0.4 C33.2,469.2,33.2,467.5,33,466z M425.3,816.1c-198.8,0-363.9-147.2-391-338c2.8-1.9,5.2-3.5,7.7-5l0.2,0.2c0.2-0.2,0.6-0.6,0.7-0.7 c15.5-3.7,61.1-2.2,109.8,3.7c58.1,7.1,104.6,18.2,127.3,30.5c21.8,18.8,41.6,33.3,78.2,59.1c36.4,25.8,84.2,47.2,138.7,61.7 c44.8,11,77.1,41.4,94.3,88.5c4.9,14.7,7.5,24.2,15.3,56.1C552.6,800.1,490.8,816.1,425.3,816.1z M731.5,671.2 c-3.7,4.5-7.5,8.9-11.4,13.2c-30.4,34-66.7,62.4-107,84.4c0-1.3-8.4-38.5-13.6-51.5l0,0c-8.6-25.1-21.3-45.9-37.7-61.9 c11.9,1.5,23.9,2.2,35.7,2.2c52.1,0,99-12.5,106.2-14.5c14.6,11.7,25,19.1,31.6,23.4C733.9,668,732.6,669.5,731.5,671.2z M739.3,661c-7.7-5-22-15.2-42.6-32.5c-76.5-79.9-111.1-148.8-127.7-181.9l-0.7-1.5c-3.5-7.1-7.1-16.9-10.3-28.1 c0-0.2,0-0.2-0.2-0.4c-1.5-5.2-3-10.8-4.5-16.7c52.8,62.3,107.5,105,166.9,130.3c25.4,10.8,51.3,18.2,77.9,22.3 C784.3,591.8,764.3,628.4,739.3,661z M800.6,545.6c-7.1-1.1-14.2-2.4-21.1-3.9c2.6-2.2,5.2-4.3,7.8-6.3 c7.8-6.5,15.1-12.5,21.5-17.8C806.2,527,803.6,536.3,800.6,545.6z M811.2,506c-8,7.1-17.6,14.9-28.6,24c-2.6,2.2-8.4,6.9-11.8,9.7 c-79.5-20.1-153.5-71.7-221.2-155c-0.6-2.4-1.1-4.6-1.7-7.1c0,0,0,0,0-0.2c-5.6-24.7-10.3-50.4-14-70.1c-1.5-8.4-2.8-15.6-3.9-21 c-3.2-13.2-5.8-24.9-8-35.1c-7.3-33.3-12.3-56.1-28.6-87.7c33,11.5,157.6,54.8,244.4,88.8c20.4,8,38.3,16.2,53.8,24.5 C809.9,322,820,371.4,820,423.1C820.2,451.7,817,479.4,811.2,506z"></path> </g> </svg> 