<?xml version="1.0" encoding="UTF-8"?> <svg xmlns="http://www.w3.org/2000/svg" width="203" height="203" viewBox="0 0 203 203" fill="none"><g filter="url(#filter0_d_35_160)"><path d="M196.584 65.8109C196.254 64.9617 195.924 64.0653 195.546 63.2162C190.415 50.6869 182.846 39.3016 173.279 29.7209C163.875 20.2718 152.692 12.78 140.376 7.67864C128.06 2.57724 114.854 -0.0326471 101.524 -0.000189218C97.8993 -0.00106306 94.2775 0.1879 90.673 0.565926H89.3049L87.7009 0.943339C78.6295 2.14874 69.7699 4.60976 61.3765 8.25568C60.5273 8.63309 59.7253 9.0105 58.8761 9.38791C45.0772 15.8142 32.8907 25.246 23.2095 36.9925C13.5282 48.739 6.59746 62.5025 2.92492 77.2747C2.73621 78.1239 2.54751 78.9259 2.3588 79.7751C1.01784 85.9981 0.244124 92.33 0.0471612 98.6928C0.0471612 99.3061 0.0471583 99.8722 -1.81177e-05 100.486V101.523C-0.00219201 105.893 0.281473 110.258 0.849158 114.591C0.943511 115.205 0.990687 115.865 1.08504 116.478C3.85787 135.068 11.7379 152.522 23.8471 166.896C35.9563 181.27 51.819 192 69.6674 197.889C87.5159 203.778 106.649 204.595 124.935 200.25C143.221 195.905 159.941 186.568 173.232 173.279C175.638 170.873 177.902 168.372 180.072 165.778C180.497 165.259 180.874 164.74 181.299 164.268L182.384 162.9C182.525 162.738 182.651 162.565 182.761 162.381C189.09 153.962 194.057 144.602 197.48 134.641C197.669 134.075 197.858 133.462 198.046 132.896C199.037 129.829 199.886 126.668 200.594 123.508C200.83 122.517 201.019 121.573 201.207 120.583C202.401 114.316 203.002 107.95 203 101.571C203.061 89.359 200.887 77.2394 196.584 65.8109ZM150.351 46.1855V46.044V46.1855ZM119.545 75.6236C119.58 75.8532 119.703 76.0603 119.888 76.2011C120.073 76.342 120.305 76.4055 120.536 76.3784C123.649 75.9538 127.376 76.3784 128.32 77.9824C128.98 81.4263 129.735 85.2004 130.537 88.9745C128.178 88.3612 124.263 86.6157 123.083 85.2475C123.009 85.1608 122.918 85.0896 122.816 85.0379C122.714 84.9862 122.603 84.9551 122.489 84.9463C122.376 84.9376 122.261 84.9513 122.152 84.9868C122.044 85.0223 121.943 85.0788 121.857 85.1532C121.77 85.2275 121.699 85.3182 121.647 85.4201C121.595 85.522 121.564 85.633 121.555 85.7469C121.547 85.8608 121.56 85.9753 121.596 86.0839C121.631 86.1925 121.688 86.293 121.762 86.3798C123.461 88.4084 128.508 90.3898 130.962 90.8615C131.716 94.1639 132.471 97.3247 133.32 100.202C133.273 100.674 133.179 101.146 133.132 101.618C132 109.685 129.877 124.64 121.809 130.395C118.837 132.518 115.299 133.226 111.195 132.471C110.11 131.952 108.647 131.339 107.09 130.678C104.071 129.452 98.6458 127.187 97.6551 125.725C99.1176 124.262 102.043 120.583 100.769 115.629C100.722 115.299 100.627 115.016 100.58 114.686H100.627C101.854 114.686 103.505 114.308 105.628 113.836C106.559 113.592 107.505 113.403 108.459 113.27C109.449 113.223 109.874 112.751 110.015 112.374C110.44 111.242 109.213 109.968 106.949 107.751L106.571 107.373C105.251 106.052 104.449 104.448 103.788 103.222C103.551 102.718 103.283 102.23 102.986 101.759C103.525 101.39 103.911 100.836 104.071 100.202C104.26 99.2589 103.882 98.1739 102.892 96.9945C101.618 95.4376 100.344 90.437 100.957 88.3612C101.02 88.1373 101.152 87.9391 101.335 87.7951H101.382C108.128 85.6721 114.591 78.5485 114.356 74.9631C114.323 74.7426 114.208 74.5427 114.034 74.404C113.859 74.2652 113.639 74.1981 113.416 74.2161C113.194 74.2341 112.987 74.3359 112.838 74.501C112.688 74.666 112.606 74.8818 112.61 75.1046C112.752 77.0389 108.883 82.1339 103.788 84.9173C103.876 84.765 103.955 84.6074 104.024 84.4455C104.138 84.1552 104.297 83.8845 104.496 83.6436C104.592 83.5454 104.664 83.4258 104.705 83.2946C104.746 83.1633 104.755 83.0242 104.732 82.8887C104.735 82.8631 104.732 82.8371 104.724 82.8127C104.716 82.7882 104.702 82.7658 104.684 82.7472C104.72 82.7422 104.753 82.7256 104.779 82.7C104.916 82.6456 105.036 82.5558 105.127 82.4398C105.218 82.3238 105.277 82.1857 105.298 82.0396C105.439 81.1904 105.534 80.9545 105.534 80.9073C105.572 80.7855 105.588 80.6575 105.581 80.5299L105.439 79.2561C105.251 77.7937 105.062 76.3312 105.439 74.7272C106.383 72.4628 107.751 71.472 111.808 73.0289C111.918 73.0772 112.037 73.1026 112.157 73.1034C112.277 73.1042 112.396 73.0804 112.507 73.0336C112.618 72.9867 112.718 72.9177 112.801 72.8308C112.884 72.744 112.948 72.641 112.99 72.5284C113.032 72.4157 113.05 72.2957 113.044 72.1757C113.038 72.0556 113.007 71.9381 112.954 71.8304C112.901 71.7226 112.826 71.6269 112.734 71.549C112.643 71.4712 112.536 71.4129 112.421 71.3777C110.393 70.6229 108.742 70.3398 107.421 70.6229C107.704 70.2455 108.034 69.868 108.364 69.4435L108.411 69.3963C110.015 67.2733 111.478 64.5371 112.846 61.8481C117.045 56.2341 120.913 54.1583 122.234 54.2055C122.989 54.6772 123.508 55.1018 123.791 55.2905C123.98 56.2341 124.215 57.2248 124.451 58.2626C125.017 60.8573 125.678 63.8295 126.48 67.179C126.763 68.4999 127.093 70.3398 127.471 72.4627C127.659 73.4063 127.801 74.397 128.037 75.3877C125.772 74.3498 122.517 74.3498 120.488 74.6329C119.781 74.7272 119.451 75.1518 119.545 75.6236ZM7.3595 111.1L8.30303 109.968C8.19387 110.104 8.04564 110.202 7.87844 110.251C9.23318 107.751 10.4613 105.185 11.5582 102.561C12.1715 101.146 12.832 99.6835 13.4924 98.3154L14.0585 97.3247L14.9077 95.8151C18.3988 94.5413 22.0314 93.1732 25.7583 91.6164H25.8998C36.0427 92.2768 65.7167 94.1639 74.4915 111.006C75.0082 112.01 75.4497 113.05 75.8124 114.119C75.8124 114.167 75.8596 114.214 75.8596 114.261C76.345 115.207 76.7247 116.204 76.9919 117.233C77.6523 119.828 77.5108 123.272 74.8689 127.706C74.8217 127.753 74.8217 127.848 74.7746 127.895L74.5387 128.178C71.425 125.819 68.7832 123.696 65.9997 121.29C65.9526 121.243 65.9054 121.196 65.8582 121.196C53.6867 114.544 18.5403 110.864 6.84056 111.997C6.98209 111.714 7.1708 111.43 7.3595 111.1ZM70.5287 75.6707C70.49 75.396 70.3444 75.1477 70.1235 74.9798C69.9026 74.8119 69.6243 74.7381 69.3493 74.7744C68.0755 74.9631 67.0848 72.9345 66.6131 71.5664C76.4486 66.0247 85.991 59.9781 95.2019 53.4507L96.4757 56.5171C96.5122 56.6017 96.5597 56.681 96.6172 56.753C97.1318 57.3374 97.5899 57.9693 97.9854 58.6401C97.2645 57.9799 96.4546 57.4241 95.5794 56.9889C95.4734 56.9344 95.3576 56.9018 95.2388 56.893C95.1201 56.8843 95.0007 56.8995 94.888 56.9379C94.7752 56.9763 94.6713 57.0369 94.5825 57.1163C94.4937 57.1957 94.4218 57.2921 94.3711 57.3999C94.3204 57.5077 94.2919 57.6246 94.2874 57.7436C94.2828 57.8626 94.3023 57.9813 94.3446 58.0927C94.3869 58.204 94.4512 58.3057 94.5337 58.3916C94.6161 58.4775 94.715 58.546 94.8245 58.5929C96.1926 59.2062 97.9853 60.5743 99.0232 63.4049C98.886 64.9912 98.3856 66.5247 97.5608 67.8866C96.9946 66.1411 96.4285 64.6786 96.3813 64.6315C96.3461 64.5165 96.2878 64.41 96.21 64.3185C96.1321 64.2269 96.0364 64.1522 95.9287 64.099C95.8209 64.0457 95.7034 64.0151 95.5834 64.0089C95.4634 64.0026 95.3433 64.021 95.2307 64.0629C95.118 64.1047 95.0151 64.1692 94.9282 64.2522C94.8413 64.3353 94.7724 64.4352 94.7255 64.5459C94.6786 64.6565 94.6549 64.7756 94.6557 64.8958C94.6565 65.016 94.6818 65.1347 94.7302 65.2448C94.7302 65.2919 95.7209 67.8395 96.3813 70.1511C96.5229 70.5757 96.6644 71.0475 96.8531 71.5664C97.6079 73.6422 98.5515 76.284 98.0325 80.4355C97.8438 82.417 97.7966 85.1532 99.495 86.9459C99.3074 87.2206 99.1641 87.5231 99.0704 87.8422C98.2684 90.4841 99.7309 96.1453 101.335 98.1267C102.137 99.1174 102.184 99.6835 102.137 99.8722C102.09 100.061 101.901 100.297 101.571 100.486C101.352 100.567 101.146 100.678 100.957 100.816C100.91 100.816 100.91 100.863 100.863 100.863C100.816 100.863 100.769 100.91 100.769 100.957V101.004C100.452 101.27 100.235 101.637 100.155 102.042C100.108 102.333 100.14 102.631 100.248 102.905C100.356 103.179 100.536 103.419 100.769 103.599C101.114 103.871 101.386 104.225 101.559 104.629C101.732 105.032 101.801 105.473 101.759 105.911C101.642 106.549 101.387 107.153 101.012 107.683C100.637 108.212 100.152 108.654 99.5893 108.977C97.7966 109.968 97.891 111.808 98.2684 113.553C98.3628 113.931 98.4099 114.261 98.5043 114.638C98.6458 115.11 98.7402 115.582 98.8345 116.054V116.101C100.014 120.535 96.9946 123.791 95.9096 124.829C91.0032 127.376 83.1248 128.791 77.2277 126.668C80.1055 120.63 78.643 116.337 77.2277 113.553C70.8589 94.5885 42.4587 91.1446 29.155 90.1539C38.3544 86.2382 48.1671 81.5206 58.0741 76.1897L64.5845 72.6514C65.9054 76.0481 67.6038 76.9445 68.9719 76.9445C69.1307 76.9547 69.29 76.9388 69.4436 76.8973C70.2456 76.7558 70.623 76.2369 70.5287 75.6707ZM96.6644 52.4128C97.4664 51.7995 98.2684 51.2334 99.0704 50.6672C98.4099 52.2241 97.9382 53.5922 97.5608 54.5829L96.6644 52.4128ZM105.628 109.779C105.439 109.638 104.449 108.6 103.694 107.845C103.541 107.699 103.399 107.541 103.269 107.373C103.369 107.113 103.448 106.845 103.505 106.571C103.987 107.328 104.557 108.025 105.203 108.647L105.581 109.024C106.437 109.838 107.24 110.704 107.987 111.619C107.279 111.713 106.288 111.902 105.109 112.185C103.694 112.516 100.863 113.129 100.061 112.94C99.7781 111.619 99.8724 110.911 100.58 110.487C100.947 110.284 101.295 110.047 101.618 109.779C102.91 109.873 104.19 110.094 105.439 110.44H105.534C105.606 110.439 105.677 110.416 105.736 110.374C105.795 110.332 105.84 110.272 105.864 110.204C105.875 110.117 105.858 110.029 105.815 109.953C105.773 109.877 105.707 109.816 105.628 109.779ZM112.657 134.783C112.516 134.688 112.421 134.547 112.28 134.452C112.138 134.358 112.138 134.405 112.091 134.358C112.233 134.358 112.327 134.405 112.468 134.405H112.704C112.712 134.533 112.696 134.661 112.657 134.783ZM113.601 143.699C128.367 146.294 156.673 154.786 165.259 157.427C157.947 158.89 145.586 160.635 134.075 158.748C131.819 156.841 129.311 155.253 126.621 154.031C125.678 153.606 124.687 153.182 123.649 152.804C122.517 152.38 121.29 152.049 120.064 151.719C117.375 151.011 114.78 150.209 112.233 149.36C112.823 147.508 113.28 145.616 113.601 143.699ZM113.837 142.284C113.979 141.236 114.057 140.18 114.072 139.123V139.029C116.148 138.793 134.689 136.623 148.558 129.688C151.2 133.651 154.314 137.896 157.947 142.425C158.371 142.991 158.843 143.51 159.267 144.076C162.145 147.568 165.306 151.153 168.844 154.833C168.844 154.839 168.846 154.845 168.848 154.851C168.85 154.856 168.854 154.862 168.858 154.866C168.862 154.87 168.868 154.874 168.873 154.876C168.879 154.879 168.885 154.88 168.891 154.88C169.41 155.352 169.929 155.729 170.448 156.154C169.835 156.295 169.033 156.531 168.042 156.72C166.202 156.201 131.009 145.256 113.837 142.284ZM114.261 137.566C114.45 135.632 114.497 134.736 114.497 134.452C117.463 134.443 120.351 133.503 122.753 131.763C130.726 126.055 133.226 112.516 134.453 103.929C134.897 105.232 135.416 106.508 136.01 107.751L136.198 108.128C138.18 112.044 141.105 117.941 145.634 125.159C145.917 125.631 146.247 126.149 146.577 126.621C146.954 127.187 147.379 127.801 147.756 128.414C134.736 135.019 117.375 137.236 114.261 137.566ZM115.252 56.3284C116.054 54.4414 116.856 52.6015 117.941 51.7523C118.743 52.1769 119.451 52.5543 120.111 52.9317C118.311 53.7815 116.668 54.93 115.252 56.3284ZM120.253 51.0447C121.29 50.856 122.045 50.7616 122.517 50.6672C122.706 51.3277 122.847 52.0354 123.036 52.743C122.328 52.2712 121.385 51.658 120.253 51.0447ZM118.649 49.535C118.224 49.6266 117.812 49.7692 117.422 49.9596H117.375C115.488 51.0447 114.403 53.6394 113.365 56.1397C113.035 56.9889 112.657 57.8381 112.28 58.6401L112.233 58.6872C110.629 61.9424 108.836 65.6693 106.855 68.264C104.92 70.4813 103.977 72.4156 103.599 74.1611V74.2083C103.268 75.9064 103.268 77.6524 103.599 79.3505C103.647 79.7279 103.694 80.0581 103.741 80.4355C103.682 80.6213 103.635 80.8103 103.599 81.0017C103.234 80.9868 102.871 80.9394 102.514 80.8601C102.332 80.8179 102.141 80.8366 101.971 80.9133C101.8 80.99 101.66 81.1205 101.571 81.2847C101.483 81.4479 101.445 81.6333 101.462 81.8179C101.478 82.0025 101.549 82.178 101.665 82.3226C101.928 82.6108 102.212 82.8789 102.514 83.1246C102.467 83.2661 102.373 83.3605 102.326 83.502C101.951 84.3099 101.458 85.0572 100.863 85.7193C99.9196 84.7286 99.5893 83.0774 99.8252 80.5771C100.391 76.001 99.3063 73.076 98.5515 70.9531C98.4571 70.6229 98.3156 70.3398 98.2212 70.0567C102.609 63.7823 100.486 58.9703 98.693 56.4699C99.0704 55.3849 100.203 52.3184 101.854 48.4971C104.307 46.6101 106.666 44.723 108.789 42.8831C111.566 40.5631 114.212 38.0904 116.714 35.4765C119.006 39.7367 120.795 44.2487 122.045 48.9217C121.432 49.0633 120.3 49.252 118.649 49.535ZM192.857 61.4235C192.904 61.565 192.999 61.7065 193.046 61.8481C192.999 61.8009 192.904 61.8009 192.857 61.7537V61.4235ZM61.5652 10.1427C69.6323 12.7374 76.3314 17.7381 80.5773 24.4844L81.0019 25.192L84.8703 31.9382C82.8889 36.6559 77.0862 42.7888 68.5945 49.252C67.3207 50.2427 65.9997 51.1862 64.5845 52.1769C60.4329 55.149 55.7625 58.1211 50.6674 61.0932C33.2122 71.2362 15.0964 78.4541 4.29304 79.5864L4.24586 79.492C7.71917 64.2588 14.7131 50.0511 24.6671 38.0081C34.621 25.965 47.2581 16.4216 61.5652 10.1427ZM3.82127 81.4263H3.86844C14.8605 80.4827 33.5896 73.1232 51.5638 62.6501C70.4815 51.658 83.5966 40.2413 86.663 32.2213C86.7137 32.1003 86.7357 31.9693 86.7275 31.8384C86.7194 31.7075 86.6811 31.5802 86.6158 31.4665L82.6059 24.4844C96.3342 19.4365 107.892 16.6531 115.205 16.6531C119.498 16.6531 122.281 17.5966 123.225 19.3893C123.744 20.3328 123.744 21.6066 123.319 23.0691L122.234 25.5694C121.857 26.2299 121.432 26.9375 120.96 27.6923L119.309 29.9568C116.62 33.4007 112.657 37.3163 107.657 41.6094C103.93 44.7702 99.7309 48.0725 95.1076 51.3749C95.0604 51.3749 95.0604 51.4221 95.0132 51.4221C85.4938 58.2017 75.62 64.4693 65.4336 70.1983C65.3059 70.1882 65.1775 70.2043 65.0562 70.2455C64.7946 70.3365 64.576 70.5214 64.4429 70.7644C62.1313 72.0382 59.7725 73.3591 57.4137 74.6329C46.3272 80.5771 35.4295 85.7193 25.3337 89.918C25.2394 89.9652 25.1922 89.9652 25.0978 90.0124C21.3237 91.5692 17.644 92.9845 14.1529 94.2582C14.0585 94.3054 13.917 94.3526 13.8227 94.3998C9.62397 95.9094 5.61397 97.1832 1.88704 98.2682C2.01996 92.6072 2.66737 86.97 3.82127 81.4263ZM2.40598 112.374L2.68903 113.412C2.64186 113.459 2.59468 113.459 2.5475 113.506C2.47424 113.133 2.42696 112.754 2.40598 112.374ZM101.524 201.254C51.2807 201.254 9.57679 163.891 2.73621 115.44C3.44386 114.969 4.05715 114.544 4.67044 114.167L4.71762 114.214L4.90632 114.025C8.82196 113.082 20.333 113.459 32.646 114.969C47.3179 116.761 59.0648 119.592 64.8203 122.706C70.34 127.47 75.3407 131.15 84.5872 137.708C93.8338 144.265 105.864 149.69 119.639 153.37C130.962 156.154 139.123 163.891 143.463 175.826C144.69 179.553 145.35 181.959 147.332 190.073C133.19 197.445 117.472 201.282 101.524 201.254ZM178.893 164.457C177.949 165.589 177.006 166.721 176.015 167.806C168.3 176.443 159.156 183.688 148.983 189.224C148.983 188.894 146.86 179.459 145.539 176.156C143.369 169.788 140.161 164.504 136.01 160.447C138.998 160.822 142.008 161.011 145.02 161.013C158.182 161.013 170.024 157.852 171.864 157.333C175.543 160.305 178.185 162.192 179.836 163.277C179.496 163.649 179.181 164.043 178.893 164.457ZM180.874 161.862C177.134 159.318 173.542 156.562 170.118 153.606C150.776 133.32 142.048 115.818 137.849 107.42L137.661 107.043C136.587 104.75 135.719 102.366 135.066 99.9194C135.066 99.8722 135.066 99.8722 135.019 99.8251C134.641 98.5041 134.264 97.0888 133.887 95.5792C147.237 111.383 161.06 122.234 176.062 128.65C182.358 131.351 188.967 133.253 195.735 134.311C192.274 144.225 187.257 153.524 180.874 161.862ZM196.348 132.565C194.555 132.282 192.763 131.952 191.017 131.575C191.678 131.009 192.338 130.49 192.999 129.971C194.98 128.32 196.82 126.81 198.424 125.442C197.763 127.848 197.103 130.207 196.348 132.565ZM199.037 122.517C197.009 124.31 194.603 126.291 191.819 128.603C191.159 129.169 189.696 130.348 188.847 131.056C168.75 125.961 150.115 112.846 132.943 91.7107C132.802 91.0974 132.66 90.5313 132.518 89.918V89.8708C131.103 83.5964 129.924 77.086 128.98 72.0853C128.603 69.9624 128.273 68.1225 127.99 66.7544C127.188 63.4049 126.527 60.4328 125.961 57.8381C124.121 49.3935 122.847 43.5908 118.743 35.5708C127.093 38.4957 158.56 49.4878 180.497 58.1211C185.146 59.9229 189.684 62.0024 194.084 64.3484C198.835 76.1495 201.269 88.7548 201.254 101.476C201.291 108.55 200.548 115.606 199.037 122.517Z" fill="#D3AA7A"></path></g><defs><filter id="filter0_d_35_160" x="-7.00003" y="-4.00049" width="219.001" height="219" filterUnits="userSpaceOnUse" color-interpolation-filters="sRGB"><feFlood flood-opacity="0" result="BackgroundImageFix"></feFlood><feColorMatrix in="SourceAlpha" type="matrix" values="0 0 0 0 0 0 0 0 0 0 0 0 0 0 0 0 0 0 127 0" result="hardAlpha"></feColorMatrix><feOffset dx="1" dy="4"></feOffset><feGaussianBlur stdDeviation="4"></feGaussianBlur><feComposite in2="hardAlpha" operator="out"></feComposite><feColorMatrix type="matrix" values="0 0 0 0 0 0 0 0 0 0 0 0 0 0 0 0 0 0 0.9 0"></feColorMatrix><feBlend mode="normal" in2="BackgroundImageFix" result="effect1_dropShadow_35_160"></feBlend><feBlend mode="normal" in="SourceGraphic" in2="effect1_dropShadow_35_160" result="shape"></feBlend></filter></defs></svg> 