<?xml version="1.0" encoding="UTF-8"?> <svg xmlns="http://www.w3.org/2000/svg" xmlns:xlink="http://www.w3.org/1999/xlink" version="1.1" id="Calque_1" x="0px" y="0px" viewBox="0 0 850.4 850.4" style="enable-background:new 0 0 850.4 850.4;" xml:space="preserve"> <style type="text/css"> .st0{fill:#B49F71;} </style> <path class="st0" d="M830.1,352.6c-0.4-1.8-1-3.6-1.3-5.4c-2.8-16.2-6.9-32-11.9-47.6c-11.9-37.1-28.8-72-50.7-104.2 c-31.4-46.2-70.5-84.8-117.4-115.2C583.8,38,512.5,16.5,435.3,14.2c-11.8-0.3-23.5,0.1-35.3,0.8c-22.9,1.4-45.4,4.8-67.7,9.9 c-53.3,12.3-102.1,34.7-146.3,66.9c-24.2,17.6-45.8,38-66,60.1c-35.3,38.7-62.1,82.5-80.2,131.7c-13.7,37.1-21.6,75.4-24,114.8 c-1.3,20.5-1,41.1,0.7,61.6c1.5,17.5,4,34.9,7.7,52c10.3,47.4,28.1,91.7,54.3,132.5c42.6,66.3,99.2,116.9,170.3,151.1 c9.7,4.7,19.8,8.8,29.7,13.1c4.1,1.1,8.1,2.4,11.8,4.4c3.4,0.4,6.5,1.8,9.6,3.1c1.1,0,2.1-0.1,2.9,0.9c0.9,0.2,1.8,0.4,2.7,0.6 c0.7-0.1,1.3,0,1.7,0.7c0,0,0,0,0,0c7.1,1.8,14.2,3.6,21.2,5.4c4.4,1.2,9,1.6,13.2,3.4c1.4,0.3,2.8,0.5,4.2,0.8 c5.2,0.9,10.5,1.7,15.7,2.6c2.6,0.4,5.1,0.7,7.7,1.1c0.9-0.1,1.7-0.1,2.3,0.6c1.1-0.3,2.2,0,3.2,0.4c3,0.1,6,0.1,9,0.5 c10.1,1.3,20.3,1.7,30.4,2.1c23.8,1,47.6-0.8,71.1-4.1c20.6-2.9,40.8-7.5,60.7-13.6c56-17.2,105.9-45.2,149.7-84.2 c15.7-14,30-29.4,43.6-45.5c19.8-23.3,37-48.4,51.1-75.6c26-50.1,41-103.3,44.6-159.6c1.9-29.3,1.4-58.6-3.4-87.8 C830.9,360.9,830.6,356.7,830.1,352.6z M364.6,24.3c26.8-4,53.8-5.2,80.8-4c17.1,0.8,34,2.9,50.9,5.7c3.9,0.7,7.4,2.1,10.5,4.8 c5.8,5,11.9,9.6,17.7,14.4c6.2,5.2,12.1,10.7,17.5,16.8c14.3,16.1,21.8,34.9,24.2,56.3c1.5,13.5,0.1,26.8-0.8,40.1 c-0.5,7.8-1.5,15.6-2.1,23.5c-1.8,22.6-3.5,45.1-5.2,67.7c-0.7,9.9-1.4,19.8-1.9,29.7c-0.2,3-0.7,5.9-1.7,8.8 c-11.2,31.3-23.2,62.3-36.2,92.9c-0.7,1.6-0.9,3.7-3,4.5c-1.6-1.2-1.6-3.2-1.9-4.9c-1-5.5-2.3-10.8-3.9-16.1 c-3.3-10.5-10.2-17.4-20.5-21c-3.5-1.2-7-2.3-10.6-3.1c-6.7-1.5-12.7-4.4-17.3-9.6c-1.6-1.8-3-2.4-5.4-1.7 c-3.5,1.1-7.2,1.7-10.8,2.5c-1.5,0.3-2.5,1.1-2.7,2.7c-0.7,5-1.6,10.1-1.9,15.1c-0.3,5.9,2.3,8.9,8.1,10.3c3.2,0.8,6.4,1.1,9.6,1.2 c6.3,0.1,12.4,1.2,18.4,2.9c13.9,3.9,23.2,12.8,27.8,26.6c0.8,2.3,0.4,3.9-1.3,5.5c-7.1,6.6-14.2,13.2-21.2,20 c-2,1.9-4.2,2.6-6.9,2.5c-7.2-0.3-14.3-0.4-21.5-0.8c-8.5-0.4-17.1-0.5-25.6,0.1c-4.1,0.3-8.3,0.3-12.5,0.5c-5.5,0.2-11.1,0-16.6,1 c-2.8,0.5-5.4,0.1-7.9-1.5c-8.3-5.6-15.2-12.7-20.8-21c-1.1-1.7-1.4-3.3-0.5-5.2c2-4.4,3.9-8.9,5.9-13.3 c4.1-9.5,11.8-13.7,21.8-14.5c9-0.7,17.9-1.9,26.9-2.6c3.6-0.3,5.3-1.9,6.2-5.3c1.8-6.5,2.9-13,2.6-19.8c-0.1-2.5-1.2-3.8-3.5-4.4 c-1.8-0.5-3.6-0.9-5.3-1.6c-4.1-1.5-7.4-0.8-10.6,2.5c-5.5,5.7-12.5,8.6-20.3,9.6c-2.7,0.4-5.5,1-8.2,1.3c-7,0.7-12.1,4.2-15.7,10.1 c-3.8,6.2-5.6,13.1-6.8,20.2c-0.7,4.1-1.1,8.2-1.7,12.3c-0.2,1.3-1.6,1.9-2.5,1c-0.7-0.6-1.3-1.3-1.9-2 c-10-12.2-19.8-24.4-28.5-37.5c-15.7-23.6-25.9-49.4-30.6-77.3c-0.8-4.5-1.4-9.2-1.4-13.8c-0.3-26.1-0.5-52.2-0.7-78.3 c-0.1-22.2,1.5-44.3,3.7-66.4c0.9-8.7,2.5-17.4,5.1-25.8c4-12.8,10.5-24.1,19.7-33.8c10.1-10.7,22.2-18.7,35-25.8 C360.5,25.2,362.5,24.6,364.6,24.3z M564.6,287.8c1.5-0.1,2.7-0.5,3.7-1.5c1.6-1.6,3.2-3.3,4.6-5.1c1.6-2,2.9-4.1,4.6-6.5 c1.6,1.5,1.3,2.7,1.2,3.8c-0.2,4.6-0.3,9.2-0.8,13.8c-0.3,2.9-1.1,5.9-2,8.7c-0.5,1.7-1.3,3.5-2.2,5c-3.1,5-8.2,6.1-13.1,3 c-0.8-0.5-1.3-1.3-1.2-2.3c0.1-1.8,0.2-3.7,0.4-5.5c0.3-3.4,0.7-6.9,1.1-10.3C561.2,288.1,561.2,288.1,564.6,287.8z M564.5,262 c0.7,4.7,1,9-1.5,13.8C562,268.5,562.3,265.6,564.5,262z M578.6,260.7c0.5,3.5-0.8,6.3-2.6,9c-2.5,3.8-4.7,8-7.9,11.3 c-0.3,0.3-0.9,0.5-1.2,0.4c-0.8-0.2-0.9-0.9-0.7-1.6c0.3-1.1,0.5-2.3,0.9-3.3c3-7.3,2.4-14.6-0.8-21.5c-3.6-7.8-2.5-15.1,1.2-22.4 c2.6-5.1,5-10.4,7.5-15.5c1.1-2.3,2.4-4.5,3.6-6.7c0.4-0.8,0.9-1.7,2.1-1.5c1.1,0.1,1.5,1.1,1.7,1.9c0.4,1.3,0.6,2.7,0.7,4.1 c0.2,3,0.3,6,0.5,9c0.3,10-2.1,19.7-4.1,29.4C578.9,255.7,578.2,258.2,578.6,260.7z M579.9,204c-3.6,1.8-5.1,5.1-6.8,8.4 c-2.1,4.1-4,8.2-6.4,13.1c-0.6-1.2-0.9-1.6-0.9-2c0.3-4.3,0.6-8.7,0.9-13c0-0.5,0-1,0.2-1.4c0.5-1,0.9-2.2,1.7-2.9 c2-1.8,4.2-3.5,6.4-5.1c1.1-0.9,2.5-1.1,3.9-0.7c1,0.3,1.4,1.1,1.8,1.9C580.9,203,580.6,203.7,579.9,204z M555.1,459 c-0.9-7-3.8-12.8-9.2-17.3c-0.7-0.6-1.4-1.2-2.1-1.8c-1.7-1.3-2.7-2.9-3.1-5.2c-1.1-6.4-1.5-12.8-0.9-19.3c0.1-1.7,1.4-2.3,2.9-1.2 c0.6,0.4,1.1,0.8,1.7,1.3c17.3,14.7,33.2,30.8,45.8,49.8c9,13.5,16,28,19.5,44.1c1.7,7.6,1.1,7.5-5.3,10.3 c-4.2,1.9-8.5,3.7-12.6,5.7c-2.4,1.1-4.3,0.7-6.3-1c-4.8-4.3-9.7-8.5-14.8-12.5c-4.5-3.6-9.2-7-13.9-10.3c-2.1-1.5-3.2-3.3-2.5-5.9 c0.4-6.4,0.9-12.9,1.3-19.3C555.8,470.5,555.9,464.8,555.1,459z M552.7,481.9c0,6.4-0.7,12.1-1.8,17.7c-0.1,0.3-0.6,0.7-0.9,0.8 c-0.4,0.1-1-0.1-1.2-0.3c-1.9-2.7-2.8-5.7-3.9-8.8c-0.5-1.4,0.1-2.7,0.6-4c0.8-1.9,1.4-4,2.5-5.7c1.3-2.2,0.9-5.6,4.2-6.5 C553.6,477.4,552.5,480,552.7,481.9z M469.7,550.9c-6.6-3.2-7.1-4.5-4.2-11c0.4-0.9,1.2-1.5,2.2-1.4c1.6,0.1,3.2,0.4,4.8,0.6 c10.5,1.9,20.9,3.8,31.3,5.6c2,0.4,4.1,0.6,6.2,0.5c1.8-0.1,4.2,1.2,5.4-1.4c-1.4-1.6-3.4-0.9-5.1-1.1c-9.2-1-18.2-2.9-27.3-4.6 c-4.3-0.8-8.6-1.7-12.9-2.6c-3.8-0.8-4.3-1.3-4.7-4.9c-0.8-9-1.9-8.7,7.8-8.8c5.3,0,10.6,0.1,15.9,0c0.9,0,1.8-0.3,2.7-0.4 c0.2,0,0.4-0.3,0.4-0.5c-0.1-0.4-0.2-1.1-0.4-1.1c-2.8-0.3-5.5-0.5-8.3-0.6c-1.8-0.1-3.7,0-5.5,0c0-0.1,0-0.1,0-0.2 c-3.7,0-7.4,0-11.1,0c-2.9,0-3.5-0.6-4.4-3.4c-0.3-0.9-0.5-1.8-0.6-2.7c-0.2-1.3,0.4-2.3,1.5-2.9c1.4-0.7,2.9-1.4,4.5-1.9 c20.4-6.5,40.8-13.1,61.3-19.5c4.7-1.5,5.8-1,8.8,3.1c2.4,3.2,3.9,6.8,5.1,10.5c2.4,7.5,3.5,15.3,3.5,23.2c0,15.1-1.9,29.9-6,44.5 c-0.3,1.1-0.6,2.2-1.1,3.3c-0.5,1.2-1.5,1.7-2.8,1.5c-0.9-0.1-1.8-0.3-2.7-0.5C511.9,568.3,490.3,561,469.7,550.9z M502.7,575.2 c-1.9,2-3.9,3.9-6.1,6.1c-4.2-4-7.1-8.5-9.8-13.2c-0.2-0.4-0.8-0.8-0.7-1.1c0.3-0.9,1.1-0.6,1.7-0.3c4.7,1.7,9.5,3.3,14.2,5.1 C504.1,572.5,504.3,573.5,502.7,575.2z M373,521.8c1,1,2.4,1.3,3.8,1.6c12.5,2.3,24.9,4.7,37.4,7c2.3,0.4,4.5,0.8,7.3,2.1 c-0.1,1.6-0.1,3-0.2,4.3c-0.1,1.5-1,2.4-2.2,3.2c-7.7,4.7-15.3,9.6-22.9,14.3c-6.1,3.8-12.3,7.4-19.8,7.4c-0.8,0-1.3,0.6-1.4,1.3 c-0.2,1,0.3,1.9,1.3,2.1c3,0.6,5.9,0.4,8.9-0.7c3.9-1.4,7.7-3.2,11.2-5.5c5.8-3.7,11.6-7.6,17.4-11.3c2.3-1.5,4.5-3.2,7.1-3.8 c1.5,0.9,1.6,2.4,2.1,3.6c0.8,1.6,0.5,3.1-0.5,4.6c-10,15.2-21.2,29.2-37.5,38.1c-5.5,3-11.1,5.7-16.6,8.6c-2.1,1.1-3.8,0.8-5.7-0.8 c-12.6-10.9-21.4-24.1-24.9-40.6c-3.2-15-1.7-29.9,1.8-44.6c1.3-5.4,3.2-10.6,4.7-15.9c0.7-2.4,2.4-3.4,4.5-3.6 c2-0.1,4.1,0.1,6.2,0.4c7.6,1,14.9,3.1,22.1,5.5c14.4,4.8,28.8,9.8,43.3,14.7c1.1,0.4,2.2,0.8,3.2,1.3c0.9,0.4,1.3,1.3,1.2,2.3 c-0.1,0.7-0.2,1.4-0.4,2c-2.9,8.2-0.1,9.2-11,6.9c-12.2-2.6-24.5-4.8-36.7-7.2c-1.1-0.2-2.3-0.4-3.3,0.2c-0.3,0.2-0.6,0.7-0.7,1.1 C372.6,521,372.8,521.6,373,521.8z M423.5,507.4c-12.2-4.2-24.4-8.5-36.6-12.7c-10.3-3.5-20.5-6.8-31.3-8.4 c-3.4-0.5-6.8-0.7-10.3,0.2c-3.9,1-6.6,3.3-7.8,7c-1.2,3.5-2.1,7.1-3.4,10.5c-0.6,1.7-0.6,3.6-2.9,5.6c-3.1-12.1-5.7-23.5-7.8-35.1 c-2.2-11.6-1.4-22.9,0.7-34.4c0.2-1.1,0.6-2.2,1-3.5c0.8,0.3,1.5,0.4,1.9,0.9c10.3,14,23.7,24.5,38,33.9 c17.8,11.7,36.6,21.4,55.6,30.8c1.4,0.7,3,1.3,4.4,2.1c1.1,0.6,3.1,1.2,2.3,2.8C426.7,508.5,424.8,507.9,423.5,507.4z M370.7,469 c-11.1-7.1-21.7-14.9-31-24.4c-5.3-5.5-10-11.5-13.5-18.3c-1.7-3.3-3-6.8-3.5-10.5c-0.6-4.6-1-9.2-1.5-13.9c0.1-0.6,0.2-1.2,0.3-1.9 c0-0.2,0.2-0.6,0.3-0.6c0.4-0.1,1.1-0.2,1.3,0c0.8,0.8,1.5,1.7,2.2,2.7c11,16.4,24.5,30.7,38.6,44.4c9.2,8.9,19.7,16.1,31.3,21.6 c22.5,10.7,45.4,11.5,68.6,2.7c17.2-6.5,32.7-16,46.8-27.9c7.9-6.6,13.7-14.9,18.8-23.8c1-1.8,2.1-3.6,3.2-5.4 c0.2-0.3,0.8-0.5,1.1-0.5c0.3,0,0.8,0.5,0.9,0.8c0.7,3.2,0.3,6.3-0.9,9.5c-9,22.8-23.3,41.3-43.4,55.4c-13.3,9.3-27.5,17-42.1,24.1 c-4.9,2.4-9.5,2.5-14.5,0C412.1,492.3,390.8,481.8,370.7,469z M319.9,477.1c0.1,0.7,0.3,1.4,0.4,2c0.2,1.5-0.1,2.7-1.5,3.5 c-12.5,7-22.5,16.8-31.8,27.4c-0.5,0.5-0.9,1-1.4,1.5c-1.1,1.1-2.3,1.3-3.8,0.6c-4.5-2.2-9.1-4.4-13.7-6.7c-2.6-1.3-2.9-2.2-2.2-5 c2.6-10.4,6.8-20.1,12.6-29.1c5.2-8.2,11.3-15.7,18.1-22.7c6.8-6.9,13.8-13.7,20.7-20.5c0.8-0.8,1.8-2,2.9-1.4 c0.8,0.5,1.2,1.9,1.7,2.9c0.2,0.4,0.1,0.9,0.2,1.7c-0.6,3.3-1,7-1.8,10.6C317.6,453.8,317.5,465.4,319.9,477.1z M470,499.3 c-0.5,1.4-2.2,2.2-3.9,1.8c-0.3-0.1-0.7-0.6-0.6-0.9c0.4-1.3,2.3-2.2,3.9-1.8C469.6,498.5,469.8,499,470,499.3z M545.8,445.7 c1.7,1.6,3,3.4,4.1,5.5c1.9,3.9,2.6,7.6,0.7,11.9c-2.8,6.1-4.9,12.4-7.5,18.6c-1.3,3.1-2.3,3.5-4.4,1.5c-2.9-2.8-5.8-2.1-8.9-1 c-17,6-34.3,10.7-51.6,15.8c-0.7,0.2-1.3,0.4-2,0.5c-1.7,0.4-4.2,1.9-5.1,0.1c-1.2-2.4,1.7-3.4,3.3-4.4c7.8-4.9,15.4-10.1,22.8-15.7 c15.4-11.9,28.1-26,36.4-43.8c0.6-1.4,0.9-3.2,3.2-3.5c0.8,2.8,1.1,5.9,2.6,8.3C540.8,442,543.6,443.7,545.8,445.7z M537.1,388.3 c-4.1,12.3-9.1,24.2-16.1,35.2c-5.3,8.2-11.7,15.4-19.7,21.2c-6,4.3-12,8.7-18.3,12.4c-14,8.2-28.9,13.3-45.1,14.5 c-13.4,1-26.2-1.9-38.4-7.3c-12.4-5.5-23.4-13.2-33.1-22.5c-9-8.6-17.4-17.8-25.5-27.3c-13.7-16-23.7-34.1-30.2-54.1 c-6.5-19.8-10.9-40.1-14.1-60.6c-0.2-1.1-0.5-2.3-0.4-3.4c0.4-3-1.4-6.4,1.5-9c2.9,1.9,2.6,5.2,3.5,7.9 c7.5,24.3,19.1,46.5,34.3,66.8c8.3,11.1,17,21.9,25.6,32.8c0.4,0.5,1,0.8,2.4,1.8c0-8.4,0.2-15.8,1.4-23.1 c0.9-5.5,2.2-10.9,4.7-15.9c3.6-7.3,9.2-12,17.8-12.3c3.7-0.1,7.3-1,10.9-1.7c7-1.5,12.9-4.9,18-9.8c1.9-1.8,3.8-2.2,6.3-1.5 c7.8,2.4,8.3,1.3,7.5,10.9c-0.3,3.9-1,7.8-2.2,11.5c-0.7,1.9-1.7,3.2-3.8,3.5c-3.4,0.5-6.8,1-10.3,1.4c-6,0.6-12,1-17.9,1.7 c-8.8,0.9-15.8,4.6-20.3,12.6c-3.2,5.6-5.8,11.5-8.5,17.4c-0.9,2.1-0.7,4,0.6,5.9c6,9.2,13.5,16.9,22.7,23c2.5,1.7,5.2,1.9,8,1.5 c8.5-1.3,17-1.2,25.6-1.8c7.4-0.5,14.8-0.6,22.2-0.3c10.2,0.5,20.3,0.9,30.4,1.6c2.5,0.2,4.5-0.6,6.3-2.3 c7.9-7.4,15.9-14.8,23.9-22.2c1.8-1.7,2-3.5,1.3-5.7c-3.4-11.3-9.6-20.4-20.2-26.2c-7.9-4.2-16.4-6-25.2-6.7 c-4.1-0.3-8.3-0.6-12.4-1.2c-5.1-0.8-6.7-3-6.6-8c0-1.4,0.3-2.8,0.4-4.1c1.7-12.8,0.3-9.3,11.6-12.4c1.5-0.4,2.8-0.1,3.8,1 c5.6,6,12.9,8.7,20.6,10.5c3.6,0.8,7.1,2,10.5,3.4c7.2,2.9,12.3,8,15.1,15.3c1.6,4.1,2.9,8.3,3.7,12.6c1,5.2,2,10.4,2.9,15.7 c0.4,2,0.5,4.1,2,6.2c3.1-4.9,4.8-10.2,7.1-15.1c2.4-5,4.4-10.2,6.5-15.3c2.1-5.1,4.3-10.2,6.4-15.4c2.1-5.1,4.2-10.2,6.3-15.4 c2-5.2,4-10.4,6-15.5c2-5.1,3.5-10.4,6.6-15.8c0.8,5.1-0.4,9.2-1,13.2C549,341.8,544.8,365.4,537.1,388.3z M55.4,587.9 c-1.6-1.6-2.1-3.6-2.9-5.5c-12.6-29.7-21.4-60.4-26.6-92.2c-4.4-27-5.9-54.2-4.8-81.5c4.1-97.1,39-182,102.6-255.1 c24.1-27.7,52.5-50.6,83.5-70.4c39.1-24.9,81.3-42.5,126.4-53c2-0.5,4.2-1.8,6.4-0.1c-0.6,2.3-2.8,2.8-4.4,4.1 c-2.6,2.3-5.4,4.3-8,6.6c-17.5,15.1-27.9,34.1-31.9,56.8c-2.3,13-3,26.2-4,39.3c-1.2,15-1.5,30-1.3,45c0,1.4-0.1,2.8-0.2,4.1 c-0.1,0.8-0.9,1.1-1.5,0.8c-1.6-0.9-3.1-2-4.7-2.9c-6.4-3.6-11.6-1.9-14.8,4.8c-2.4,5.1-3.1,10.6-3.5,16.2 c-0.7,9.4-1.2,18.9-1.4,28.4c-0.1,6-1,12-1.9,17.9c-2.1,13.9-1.5,27.6,2,41.2c1,3.8,2.6,7.4,5,10.6c3.6,4.8,8.8,7,16,3.9 c1.7-0.7,3.2-1.8,4.9-2.6c1.5-0.7,2.7-0.2,3,1.6c1,4.7,1.8,9.5,2.7,14.3c3.5,18.6,7.6,37.2,15.1,54.6c3.4,7.8,5.5,15.5,5.1,24 c-0.3,5.7,0.2,11.6,1.4,17.2c0.6,2.7-0.2,4.8-2.3,6.8c-4.4,4-8.7,8.3-13,12.5c-8.3,8-16.6,16.1-23.4,25.5c-1.9,2.6-4.5,3.9-7.2,5 c-20.1,8.1-39.8,17.1-59.3,26.7c-16.4,8-32.5,16.5-48.3,25.6c-2.6,1.5-5.3,2.7-8.2,3.5c-22.1,6-43.3,14.5-63.5,25.3 c-2.5,1.3-4.8,2.2-7.8,1.8c-4-0.5-7.7,1.2-10.7,4c-2.9,2.7-5.1,5.9-7.1,9.4c-3.5,6.3-6.1,12.9-8.6,19.6 C57.5,583.8,57.4,586.3,55.4,587.9z M290.5,207.9c0,0,0.1,0,0.1,0c0,3.2,0,6.4,0,9.6c0,0.3-0.4,0.9-0.7,0.9c-0.3,0.1-1-0.2-1.1-0.4 c-0.9-1.9-1.7-3.8-2.4-5.7c-1.4-3.9-2.9-7.7-5.1-11.3c-1.6-2.6-3.4-4.8-6.8-5.2c-2.2-0.3-2.7-1.5-2-3.3c0.2-0.4,0.3-0.9,0.5-1.3 c2.3-4.8,4.9-5.6,9.3-2.8c1.3,0.9,2.5,2,3.8,3c3.2,2.6,5,5.9,4.5,10.2C290.3,203.8,290.5,205.9,290.5,207.9z M276.6,199.9 c1,0.9,1.9,2,2.6,3.2c1.1,2,2.1,4.1,3,6.2c3.7,8.7,6.2,17.8,8.7,27c0.7,2.7,0.7,4.9-1.4,7c-6.1,6.3-7.4,14.1-6.2,22.5 c0.3,2.5,0.6,5.1,0.5,7.6c-0.1,2.8-2.8,3.9-4.9,2.1c-1.4-1.2-2.6-2.6-3.6-4.1c-3.5-5.4-6.1-11.4-8.1-17.5c-0.4-1.1-0.5-2.2-0.7-3.3 c1.1-4.4,1.4-8.8,1.6-13.1c0.4-8.3,0.8-16.6,1.3-24.9c0.2-3,0.6-6,1-8.9c0.2-1.1,0.7-2.2,1.3-3.1 C272.8,198.8,275.2,198.6,276.6,199.9z M268.4,262.9c1.2,2.2,2.3,4.6,3.6,6.7c1.3,2.2,2.7,4.3,4.4,6.2c1.7,2,3.7,3.7,6.6,2.7 c3.2-1.2,3.4-4.1,3.3-7c-0.1-2.1-0.4-4.1-0.7-6.2c-0.5-3.2-0.4-6.5,0.3-9.6c0.5-2,1.2-4,2-5.9c0.4-1,1.1-2.3,2.4-2.2 c1.9,0.2,1.6,2,1.6,3.3c0.1,7.2,0,14.3,0,21.5c0.2,0,0.3,0,0.5,0c0,6.9-0.1,13.9,0.1,20.8c0.1,3.4-1.1,5.8-3.9,7.5 c-1,0.6-1.9,1.3-3,1.8c-6,3.1-10.4,1.9-14-4c-0.9-1.6-1.7-3.3-2.3-5c-3.5-9.7-4.7-19.7-4-30c0.1-0.9,0.1-1.9,1.3-2.1 C267.4,261.3,267.9,262.1,268.4,262.9z M95.6,658c-1.4,0.1-1.8-1.2-2.4-2.1c-12-17.2-22.6-35.3-31.9-54.1c-1.3-2.6-1.8-5-0.9-7.9 c2.9-8.7,5.8-17.5,9.9-25.8c1.4-2.9,3.2-5.6,5-8.2c1-1.5,2.4-2.9,3.9-3.8c1.7-1,3.5-2.6,5.7-1.2c1.6,1.1,1.1,2.9,1.1,4.5 c0.7,14.7,2.1,29.4,3.9,44.1c1.6,13.3,3.1,26.5,4.7,39.8c0.5,4.1,1,8.2,1.5,12.3C96.2,656.4,96.5,657.3,95.6,658z M335.2,819.4 c-92.6-21.8-168.4-70.2-227.8-144.3c-2.1-2.6-3.4-5.4-3.8-8.7c-2-15.8-4.1-31.6-5.9-47.4c-1.8-15.4-3.4-30.8-5-46.1 c-0.5-5.1-0.4-10.2-0.8-15.2c-0.2-2.7,0.8-4.2,3.1-5.5c10.4-5.5,21.1-10.5,32-14.7c9.9-3.9,19.9-7.4,30.2-10 c3.6-0.9,6.9-2.4,10.1-4.3c31.2-17.9,63.6-33.6,96.7-47.7c1.6-0.7,3.1-2.2,5.3-1.3c0.4,2-1,3.4-1.8,5c-3.2,6.7-5.8,13.6-7.3,20.8 c-0.2,1.1-0.5,2.2-0.7,3.4c-0.6,3.8-0.4,4.2,3,6c4.5,2.4,9,4.6,13.6,6.9c1,0.5,2.3,0.6,2.7,2c-0.7,1.8-2.4,2.7-3.7,3.9 c-7.7,6.7-15.3,13.3-23.2,19.8c-2.9,2.4-3.5,4.7-2.6,8.4c6.7,26.6,14.9,52.8,23.4,78.9c15.6,47.6,32.6,94.7,50,141.6 c5.1,13.8,10.4,27.6,15.6,41.4c0.9,2.4,1.7,4.8,2.5,7.1C338.7,820.5,336.9,819.8,335.2,819.4z M396.5,828.3 c-15.2-0.8-30.3-2.9-45.2-5.6c-2.1-0.4-3.3-1.3-4-3.3c-1.5-4.1-3.1-8.2-4.7-12.3c-4.8-12.7-9.5-25.5-14.3-38.2 c-12.6-33.5-24.8-67.1-36.4-100.9c-10.5-30.5-20.9-61.1-29.7-92.2c-2.3-8-4.2-16.1-6.5-24c-0.9-3.3-0.3-5.5,2.5-7.7 c8.2-6.7,16.1-13.9,24.2-20.7c2.5-2.1,4.7-4.4,6.8-6.9c7.1-8.5,14.9-16.4,23.8-23.2c2.5-1.9,4.9-4.2,8.5-4.8c0.5,1.1,1,2.1,1.3,3.2 c2.1,9,4.1,18,6.2,27c0.5,2.3,0.5,4.5,0.2,6.8c-1.4,13.6-1.5,27.2,2.8,40.5c2.7,8.4,6.6,16.2,12,23.3c2.3,3,3.8,6.1,4.6,9.8 c8.6,38.5,17.3,76.9,26,115.4c1.6,7,3,14,4.6,20.9c1.3,2.1,1.2,4.5,1.8,6.7c0.5,2.2,1,4.3,1.4,6.5c6,26.2,12.1,52.5,18,78.4 C399.3,828.9,397.8,828.4,396.5,828.3z M424.9,592c-0.2,62.9-0.5,125.7-0.8,188.6c-0.1,14.6-0.5,29.1-0.8,43.7 c0,1.2-0.1,2.3-0.2,3.4c-0.1,1.1-0.8,1.7-1.8,1.7c-4.6,0-9.2-0.1-13.9-0.2c-1.9-0.1-2.7-1.5-3.1-3.2c-1.3-5.6-2.6-11.2-3.9-16.9 c-10.7-47.2-21.5-94.5-32.2-141.7c-4.5-19.8-9-39.6-13.5-59.4c-0.4-1.9-1.1-3.9-0.3-6.4c2.4,1.9,4.6,3.5,6.6,5.4 c2,1.7,3.9,2.2,6.3,0.9c7.2-3.7,14.5-7.1,21.6-11c11.9-6.7,21.4-16,29.7-26.7c1.5-2,2.7-4.3,4.8-5.8c1.6,0.4,1.4,1.7,1.4,2.8 C425,575.4,425,583.7,424.9,592z M426,544.5c-0.7-2-1-4-1-6.1c-0.2-7.5,1.7-14.6,4.1-21.6c0.7-1.9,1.9-3.1,3.8-3.5 c7.4-1.7,14.9-2.8,22.5-1.6c2.1,0.3,3.2,1.5,3.8,3.5c1.9,6.9,3.5,13.8,3,21.1c-0.1,0.9,0,1.8-0.2,2.7c-1.1,6.2-2,6.5-7.1,7.8 c-5.2,1.4-10.4,1.6-15.7,1.4c-2.8,0-5.5-0.1-8.3,0C428.1,548.5,426.8,547,426,544.5z M465.7,575.1c-1.1,45-0.9,90.1-0.8,135.1 c0.1,36.7,0.5,73.4,0.7,110.2c0,1.2,0.1,2.3,0,3.5c-0.1,2.9-0.9,4-3.6,4.1c-10.4,0.5-20.7,1.9-31.1,1.5c-2.8-0.1-3.1-0.4-3.3-3.2 c-0.1-1.2,0-2.3,0-3.5c0.3-28.9,0.7-57.7,1-86.6c0.1-14.5,0-29.1,0-43.7c0.1,0,0.1,0,0.2,0c0-43,0-85.9,0-128.9c0-8.4-0.5-8,7.8-7.8 c6.2,0.1,12.5,0,18.6-1.7c2.9-0.8,5.4-0.1,7.9,1.4c2.1,1.2,2.9,2.8,2.8,5.1C465.8,565.4,465.8,570.2,465.7,575.1z M509.6,817.8 c-0.3,2.1-1.2,3.2-3.4,3.6c-7.7,1.2-15.4,2.7-23.2,4c-3.6,0.6-7.3,0.9-11,1.3c-1.3,0.1-2.2-0.5-2.3-1.9c-0.1-2.1-0.2-4.2-0.2-6.2 c0-42,0-84.1,0-126.1c-0.1,0-0.2,0-0.3,0c0-41.6,0-83.1,0-124.7c0-2.3,0.1-4.6,0.2-6.9c0.1-1.2,1.1-1.4,2-1.2 c2.6,0.6,4.4,2.4,5.9,4.5c4.5,6.5,9,12.8,13.5,19.3c4.8,6.9,4.2,6.6,9.8,1c2.6-2.6,5.2-5.2,7.8-7.8c1.4-1.4,2.9-2,5-1.4 c8,2.3,16,4.3,24,6.5c2.2,0.6,2.9,1.6,2.7,4.1c-0.4,4.1-1,8.2-1.6,12.4c-2.3,16.9-4.6,33.8-6.9,50.8c-2.6,19.4-5,38.9-7.6,58.3 c-2.1,15.8-4.3,31.5-6.3,47.3c-2.1,15.8-4,31.6-6.1,47.4C511.1,807.3,510.3,812.6,509.6,817.8z M566.3,801c-0.3,3-2.1,4.4-4.8,5.1 c-1.8,0.5-3.5,1.2-5.2,1.8c-13.1,4.5-26.4,8.2-39.9,11.3c-0.6,0.1-1.3,0-1.9,0c-0.9-1.6-0.4-3.2-0.2-4.8c2.2-16.9,4.4-33.9,6.6-50.8 c2.1-15.8,4.3-31.6,6.4-47.3c2.1-16,4-32.1,6-48.1c1.6-12.4,3.2-24.7,4.7-37.1c1.6-12.8,3.1-25.7,4.6-38.5 c0.7-6.2,1.7-12.3,3.3-18.4c4.9-17.5,6.5-35.4,5.9-53.5c-0.1-3.5,0.1-6.9,0.3-10.4c0.1-1.1,0.5-2.3,0.9-3.3c0.4-0.9,1.4-1.3,2.3-0.9 c1.3,0.5,2.5,1.2,3.6,2c5.8,4.5,11.9,8.8,17.4,13.7c12.6,11.2,25.3,22.3,37.2,34.3c7,7.1,7.1,7.1,5.7,16.9 c-2.2,16.3-5.8,32.2-9.2,48.3c-8.7,41.1-18.7,81.9-28.9,122.7c-4.5,18.1-9.4,36.2-14,54.3C566.9,799.3,566.4,800.1,566.3,801z M780.5,620.6c-11.8,21.5-25.4,41.8-40.7,61c-9.5,12-20.4,22.7-31.3,33.3c-20.2,19.5-42.2,36.7-65.8,51.7 C622.7,779.2,601.8,790,580,799c-0.6,0.3-1.3,0.6-1.9,0.8c-1.4,0.4-3,1.9-4.4,0.5c-1.1-1-0.2-2.7,0.1-4c0.9-3.6,1.8-7.2,2.8-10.7 c13.1-48.8,24.6-98,34.9-147.5c3.3-15.8,6.2-31.7,8.6-47.7c1-6.6,2.3-13.2,3.5-19.8c0.2-1.1,0.4-2.3,0.6-3.4 c0.7-3.4-0.1-6.3-2.7-8.8c-5.2-4.9-10.2-10.1-15.3-15c-3.6-3.5-7.5-6.9-11.1-10.4c-2.1-2-1.8-3.4,1-4.7c4.4-2,8.9-3.7,13.3-5.8 c6.7-3.1,7.5-2.1,5.7-10.7c-1.8-8.9-4.4-17.4-8-25.8c-0.7-1.7-1.4-3.4-2.1-5.1c-0.2-0.6-0.4-1.5,0.4-1.8c0.6-0.3,1.3-0.4,1.9-0.2 c1.1,0.3,2.2,0.7,3.2,1.2c26.2,11.5,52.1,23.8,77.3,37.3c5.1,2.7,10.2,5.4,15.2,8.3c8.6,5,17.5,9,27.1,12 c16.3,5.1,31.4,13.5,46.2,21.9c2.4,1.4,4.7,2.9,7.2,4.1c2.6,1.3,3.7,3.3,3.9,6c0.2,1.8,0.5,3.7,0.6,5.5c0.2,4.4,0.4,8.8,0.5,11.8 C788.8,605.5,788.8,605.5,780.5,620.6z M801.3,575.9c-1.9,4.8-3.3,10-6.4,14.3c-0.1,0.1-0.4,0-0.6,0c-0.2-0.3-0.5-0.7-0.6-1.1 c-0.2-6.2-0.1-12.3-1-18.5c-0.1-0.9-0.1-1.9,0.7-2.5c1-0.7,2.2-0.4,3.2,0.1c2.2,1,3.6,2.8,4.5,4.9 C801.5,574.1,801.6,575.2,801.3,575.9z M827.9,469c-2.4,23.7-7,47-13.7,69.8c-2.2,7.5-4.7,15-7.2,22.4c-0.6,1.7-0.9,3.6-2.4,4.9 c-1.6,0.6-2.5-0.8-3.5-1.4c-2.2-1.4-4.4-2.6-7-2.7c-3.4-0.1-6.2-1.7-8.9-3.4c-12.1-7.2-24.5-13.9-37.4-19.6 c-7.8-3.5-15.8-6.4-24.1-8.6c-2.5-0.6-4.8-1.5-7-2.8c-30.6-17.7-62.3-33.1-94.6-47.5c-2.1-0.9-4.1-2.1-6.1-3.1 c-0.9-0.4-1.7-0.7-2.6-1.1c-0.8,0.1-1.3-0.2-1.7-0.9c-1.9-0.1-3.5-1-5-2.2c-7.2-0.7-10.6-5.7-13-11.8c-0.6-0.7-1.4-1.3-1.9-2 c-12.2-17.6-27.3-32.5-43.4-46.5c-2.1-1.8-4.2-3.7-6.3-5.4c-2-1.6-2.7-3.6-2.7-6c0-2.3,0.2-4.6,1-6.8c7.6-20.9,12.2-42.6,15.8-64.5 c0.8-4.8,1.4-9.6,2.1-14.3c2.4-0.9,4.4,0.1,6.4,0.3c5.9,0.7,10.4-1.6,13.5-6.5c1.6-2.5,2.8-5.3,3.5-8.2c1.5-5.8,2.5-11.7,2.6-17.8 c0.1-6.9,0.1-13.9,0-20.8c-0.1-3.5,0.1-6.9,1-10.3c3.5-13.3,4.2-26.9,3.3-40.6c-0.3-3.9-1.1-7.7-2.6-11.4c-2.2-5.4-7.5-7.7-13-4.7 c-1.4,0.8-2.8,1.5-4.2,2.2c-1.5-1.2-0.8-2.7-0.7-3.9c1.4-18.2,3.1-36.4,4.3-54.5c1-15.1-0.4-30-4.9-44.5 c-4.7-15.5-13.3-28.9-24.5-40.5c-6.3-6.5-13.1-12.4-20.1-18c-1.7-1.4-3.4-2.9-5.5-4.7c2.5-0.8,4.2-0.3,5.9,0.1 C574,44.5,620.6,66,662.9,96.8c42.5,31,77.8,68.7,105.8,113.2c7.9,12.5,15,25.5,21.4,38.8c0.4,0.8,0.6,1.7,0.9,2.6 c2.2,2.9,3.5,6.2,4.5,9.6c2.1,4.1,4.1,8.1,5.1,12.6c1.6,2.1,2.5,4.4,2.8,7c1.2,1,1.2,2.5,1.5,3.8c2.6,5.2,4.3,10.6,5.6,16.3 c3.3,8.4,5.2,17.2,7.5,25.8c3.3,12.2,5.5,24.7,7.5,37.2c2.8,18,4.1,36.1,4.5,54.3c0,1.8-0.2,3.7-0.3,5.5c0.7,7.4,0.1,14.7-0.4,22.1 C830.1,453.5,828.6,461.2,827.9,469z"></path> <path class="st0" d="M320.6,204.9c6.3-2.2,12.7-4.2,19.3-5.4c2.8-0.5,5.4-0.5,8.1,0.4c15.3,5.1,30.6,10.1,45.9,15.2 c7.6,2.6,15.2,5.4,22.8,8.1c1.3,0.5,2.3,0.2,2.8-1.1c3.2-6.9,4-14.1,2.2-21.6c-0.5-1.9-1.6-3.1-3.8-3.4c-5.7-0.8-11.4-1.7-17.1-2.6 c-15-2.5-30-5-44.7-9.2c-4-1.1-8.1-1.8-12.2-2.4c-4.8-0.6-9.2,0.7-12.8,4c-6.1,5.6-11.1,12.2-16.5,19.3 C317.4,206.3,319,205.4,320.6,204.9z M326.5,196.8c0.1-0.2,0.2-0.4,0.4-0.6c7.7-9,11-12.4,24.5-8.6c20.5,5.7,41.3,9.4,62.3,12.5 c4.3,0.6,5.4,2,5.5,6.3c0,0.7,0,1.4,0,2.9c0,0.3,0,1.5-0.2,2.6c-1.6,8.2-1.3,7.9-8.5,5.3c-20.1-7.4-40.7-13.5-61-20.2 c-3.9-1.3-7.7-1.1-11.6-0.3c-3.4,0.7-6.7,1.6-10.1,2.3c-0.4,0.1-1,0-1.3-0.3C326,198.1,326.1,197.4,326.5,196.8z"></path> <path class="st0" d="M467.5,198.7c-2.4,0.4-3.7,1.7-4,4c-0.6,3.9-1.4,7.8-0.5,11.7c0.8,3.6,0,5.9-3.4,7.9c-4.6,2.7-6.4,7.1-5.5,12.4 c0.2,1.3,0.3,2.7,0.5,4.4c0.2-2.2,0.4-3.9,0.5-5.7c0.3-4.6,2.8-7.7,6.9-9.6c2.1-0.9,4.3-1.7,6.5-2.2c15.9-3.8,31.8-7.5,47.8-11.1 c3.6-0.8,7.3-1.3,11-1.5c6.1-0.3,8.8,1.5,11.2,7.1c0.5,1.3,0.9,2.6,1.4,3.9c0.4,1,0.8,2.1,2.4,2c0.4-1,0.9-2,1.3-3.1 c1.8-5.2,3.7-10.4,3.5-16.1c-0.2-6.2-3.1-9.8-9-11.4c-4.8-1.3-9.6-1.1-14.4-0.7c-13.3,1.1-26.5,3.2-39.8,5.1 C478.4,196.8,473,197.9,467.5,198.7z M517.1,195.4c5.3-0.6,10.6-0.5,15.9-0.7c0.9,0,1.9,0.1,2.8,0.2c5.2,0.9,7.8,3.9,7.5,9 c-0.1,2.4-0.3,5-1.4,7.1c-0.7,0-1,0-1.1-0.1c-5.4-6.4-12.6-6.1-19.7-4.9c-7.3,1.2-14.5,2.8-21.7,4.5c-9.9,2.3-19.7,4.7-29.6,7.1 c-2.1,0.5-3-0.2-3.1-2.4c-0.1-3-0.1-6,0.1-9c0.2-2.7,1.1-3.6,3.8-4.1c6.4-1.1,12.7-2.1,19.1-3C498.8,197.7,507.9,196.4,517.1,195.4z "></path> <path class="st0" d="M382.3,156.7c1.1,0.1,2.2-0.2,3.3-0.4c-0.6-0.3-1.2-0.8-1.7-1.3c-0.3-0.3-1.3,0.1-2,0.2 c-0.6,0.1-0.6,0.1-0.4,0.5C381.7,156,382,156.6,382.3,156.7z"></path> <path class="st0" d="M424.2,160.8c18.3,0,36.4-2,54.5-3.8c4.1-0.4,8.2-1.2,12.3-1.7c5.9-0.7,11.6-2.5,17.6-2.6 c1.5,0,2.6-0.5,11.5,0.3c0.1-0.7-11.7-1.5-14.3-0.8c-5.4,1.6-10.9,1.1-16.4,1.9c-11.6,1.7-23.4,2-35.1,3.3 c-10.1,1.1-20.3,1.3-30.4,1.6c-7.4,0.2-14.8,0.2-22.1-0.7c-4.5-0.5-9.2-0.2-13.5-1.9c-0.9-0.4-1.9-0.3-2.8-0.1 c2.6,1.5,5.7,1.4,8.4,2C403.9,160.3,414.1,160.8,424.2,160.8z"></path> <path class="st0" d="M504.6,239.6c0.5-1.3,0.6-2.7,0.9-4c0.6-2.8,0.9-3,3.6-2.2c1.5,0.5,3,1,4.5,1.6c2.1,0.8,3.7,1.8,2.6,4.6 c-0.2,0.6,0.9,0.7,1.5,0.2c0.5-0.4,0.9-0.9,1.5-1.6c-1.5-1.2-2.9-2.2-4.3-3.4c-3.9-3.5-8.6-5.3-13.8-5.7c-3.9-0.3-7.8-0.6-11.8-0.6 c-5.4,0-11,2.2-16.4,6.4c1.7-0.7,2.7-1.3,3.8-1.4c1.3-0.2,2.6-1.2,4.2-0.4c0.1,1.7,0.1,3.5,0.4,5.3c0.4,2.9,1.5,4.1,4.5,4.2 c4.6,0.2,9.2,0.1,13.9,0.2C502.3,243,503.8,241.7,504.6,239.6z M492.2,241.1c0-0.1,0-0.2,0-0.2c-1.4,0-2.8,0.1-4.1,0 c-4.6-0.2-6.3-3.2-4.4-7.4c0.2-0.5,1-0.9,1.7-1c0.9-0.2,1.8,0.1,2,1.3c0.1,0.7,0.2,1.4,0.4,2c0.5,2,1.7,3.2,3.8,3.4 c2.2,0.2,4.2-0.1,5.5-2c0.7-1.1,1.1-2.5,1.7-3.7c0.4-1,1.3-1.2,2.3-1.1c1.2,0.1,2.3,0.4,2.7,1.7c1,4-1.1,6.9-5.1,7.1 C496.3,241.2,494.3,241.1,492.2,241.1z"></path> <path class="st0" d="M410.1,396.8c3.9,3,7.7,4.4,11.7,5.6c6.6,1.9,13.3,1.4,19.9,1.4c9.2,0,17.8-2.1,27-8.1 C448.4,399.6,429.7,400.3,410.1,396.8z"></path> <path class="st0" d="M385.9,234.8L385.9,234.8c-0.1,0-0.1,0.1-0.1,0.2C385.9,235,386,234.9,385.9,234.8L385.9,234.8 c0.1,0,0.1-0.1,0.1-0.2C386,234.6,385.9,234.7,385.9,234.8C385.8,234.7,385.9,234.7,385.9,234.8z"></path> <path class="st0" d="M389.6,227.6c-4.5-1.1-8.9-1.7-13.6-1.4c-2.5,0.2-5-0.1-7.5-0.1l0,0c0,0,0,0,0,0c0,0,0-0.1,0-0.1 c0,0,0-0.1,0-0.1c0,0,0,0.1,0,0.1c-5.3,1.3-10.6,2.5-15.4,5.1c-0.8,0.4-1.7,0.8-2.5,1.1c-0.6,0.2-0.9,0.5-0.6,1 c0.2,0.4,0.7,0.6,1.1,0.8c0.8,0.5,1.7,1.2,1.6-0.6c0-1.9,1.7-2.1,2.8-2.5c1.9-0.7,4-0.9,6-1.1c0.3,0,0.9,0.9,1.2,1.5 c0.5,1.5,0.9,3.1,1.4,4.6c0.5,1.3,1.4,2.7,2.7,2.8c5.2,0.5,10.4,2.1,15.7,1.4c1.2-0.2,1.8-1.1,1.9-2.2c-3.3,1.9-6.9,1.5-10.5,1.1 c-1.6-0.2-3.1-0.8-4.7-0.9c-4-0.3-4.6-3-4.9-6.3c-0.1-0.9,0.5-1.8,1.5-2c1.1-0.3,2.3-0.4,3.1,0.7c0.5,0.7,0.6,1.7,1,2.5 c1.8,3.7,7.9,4.2,10.1-0.1c0.4-0.8,0.7-1.7,1.2-2.5c0.8-1.1,1.9-1,3.1-0.8c1.1,0.2,1.5,1.1,1.6,2c0.1,1,0.1,2.1,0.1,3.2 c1.1-0.5,1-1.7,1.3-2.7c0.5-2.4,1.6-3.2,3.7-2.4c2.5,0.9,4.8,2.1,7.4,3.3C395.9,230,393.1,228.4,389.6,227.6z"></path> <path class="st0" d="M517.9,229c-0.7-0.1-1.3-0.2-2-0.3c0.6,0.7,1.1,1.6,1.5,2.8c0.4,1.5,2,1.5,3.1,0.1 C520.3,230,519.2,229.2,517.9,229z"></path> <path class="st0" d="M468.1,225.6c-0.5-0.1-1.3,0.2-1.6,1c-0.3,0.8,0.4,3,1.4,3.5c0.5,0.3,1.4,0.3,1.9,0.1c0.6-0.2,1.1-0.8,1.4-1.4 c0.7-1.3,1.5-2.2,2.5-2.9C471.8,226,470,226,468.1,225.6z"></path> <path class="st0" d="M512.4,226.8c-10.4-2.2-20.8-4.3-31.4-3c-2.6,0.3-5.1,0.7-7.2,2.2c3.1-0.2,6.2-0.8,9.3-0.9 c5.1-0.2,10.1-0.1,15.1,1.1c1.3,0.3,2.7,0.4,4.1,0.6c4.5,0.7,9.1,1.4,13.6,2.1C515,227.7,513.8,227.1,512.4,226.8z"></path> <path class="st0" d="M362.1,223.6c-0.5,0.3-1,0.5-1.5,0.6c0.6,0,1.2,0.1,1.8,0.3c0.4,0.1,0.9,0.1,1.4-0.1c1-0.3,1.9-0.6,2.9-0.8 C365.1,223,363.5,222.8,362.1,223.6z"></path> <path class="st0" d="M354.8,224.2c-0.6-0.1-0.9,0.4-0.6,1c0.2,0.4,0.6,0.6,0.9,0.9c0.2,0.1,0.6,0.2,0.6,0.1c0.6-0.8,1.2-1.3,1.8-1.6 C356.7,224.6,355.8,224.5,354.8,224.2z"></path> <path class="st0" d="M403.3,227.1c0.3,0.2,0.8-0.1,1.2-0.1c-0.1-0.4,0-0.9-0.2-1c-0.9-0.6-1.8-1.4-2.8-1.6c-1.3-0.2-2.6-0.3-3.9-0.4 c0.8,0.4,1.7,0.8,2.5,1.2C401.1,225.6,402.2,226.5,403.3,227.1z"></path> <path class="st0" d="M357.6,224.6c1,0,2-0.1,3-0.4C359.5,224.1,358.5,224.2,357.6,224.6z"></path> <path class="st0" d="M371.4,223.7c3.9-0.1,7.8,0,11.7-0.2c4.8-0.3,9.6,0,14.4,0.4c-1.4-0.7-2.9-1.3-4.3-1.2 c-8.8,0.3-17.8-1.3-26.5,0.8c0.5,0.2,0.9,0.4,1.4,0.6c0.8,0.4,0.4,1.1,0.5,1.7C368.7,224.1,370,223.7,371.4,223.7z"></path> <path class="st0" d="M368.5,226C368.5,226,368.5,226,368.5,226C368.5,226,368.5,226,368.5,226z"></path> <path class="st0" d="M476.7,307.1c0.9,2.9,1.4,5.8,1.2,8.8c-0.2,2.9-1.3,5.3-4,6.8c-0.6,0.3-1.1,0.1-1.5-0.2 c0.1,0.5-0.1,0.9-0.5,1.3c-1.4,1.4-3.5,0.9-5.2,2c3.3,0.8,6.2-0.3,8.8-1.7c3.6-1.9,5-5.2,5-9.2c0-5.5-2.2-10-5.2-14.4 C475.4,302.8,476,305,476.7,307.1z"></path> <path class="st0" d="M472.1,322.3c0.1,0.1,0.2,0.2,0.3,0.2c0-0.1-0.1-0.2-0.1-0.3L472.1,322.3z"></path> <path class="st0" d="M406.2,319.5c-0.1,0.1-0.1,0.2-0.1,0.3c0.1-0.1,0.2-0.1,0.2-0.2L406.2,319.5z"></path> <path class="st0" d="M406,319.8c-0.4,0.3-0.8,0.6-1.4,0.2c-2.5-1.4-3.5-3.9-3.7-6.8c-0.2-3,0.2-6,1.1-8.8c0.6-2.1,1.2-4.3,1.5-6.6 c-2.7,4.4-4.8,8.9-4.8,14.4c0,4,1.3,7.3,4.6,9.2c2.4,1.4,5,2.5,8,1.7c-1.6-1.2-3.5-0.7-4.8-2C406.1,320.7,405.9,320.3,406,319.8z"></path> <path class="st0" d="M470.3,318.2c-1.7-0.9-3.5-1.1-5.4-1c-3.3,0.3-6.4,1.1-9,3.2c-2.1,1.7-4.2,3.5-6.3,5.2c2.9-0.7,5.5-2.1,8.1-3.4 c2.5-1.3,5.4-2.4,7.9-1.2c2.1,1,4.2,0.4,6.1,0.9C470.7,321,471.9,319,470.3,318.2z"></path> <path class="st0" d="M472.1,322.3c0,0,0.1-0.1,0.1-0.1c-0.2-0.1-0.3-0.1-0.5-0.1C471.9,322.1,472,322.2,472.1,322.3z"></path> <path class="st0" d="M503.8,258.3c-1.8,0-3.7,0-5.5,0.1c-0.9,0.1-2.2-0.5-2.9,1.1c2.4,0.4,4.6,0.7,6.8,1.2c3.7,0.7,7.3,0.3,10.9-0.7 c4.4-1.2,8-3.5,8.9-8.5l0,0c0,0,0,0,0,0c0,0-0.1,0-0.1,0C516.9,256.3,510.7,258.4,503.8,258.3z"></path> <path class="st0" d="M417.8,318c-3.3-1.9-6.8-2.9-10.4-0.9c-0.4,0.2-0.7,0.7-0.8,1.1c-0.2,0.6,0.2,0.9,0.8,0.7 c4.7-1.2,8.5,0.8,12.3,3.1c2.1,1.3,3.8,3.2,7.3,4.2C423.6,323,421.2,320,417.8,318z"></path> <path class="st0" d="M365.5,255.6c2.6,0,5.4,0.6,7.6-1.2c-7.8-1.1-15.9-1.4-23-6.1C353.9,253.4,359.2,255.6,365.5,255.6z"></path> <path class="st0" d="M374.7,253.1c-0.2-0.1-0.5,0-0.6,0.1c-0.3,0.5-0.7,0.9-1.1,1.2c0.5,0.1,1.1,0.2,1.6,0.2c0.1,0,0.4-0.7,0.4-1 C375.1,253.4,374.9,253.1,374.7,253.1z"></path> <path class="st0" d="M384.6,237.6l-0.1-0.1c0,0.1,0,0.2,0,0.2C384.5,237.7,384.6,237.7,384.6,237.6c0,0,0.1-0.1,0.1-0.1 c-0.1,0-0.1,0-0.2,0.1C384.5,237.5,384.5,237.6,384.6,237.6z"></path> <path class="st0" d="M384.6,237.5c1.4-0.4,1.3-1.4,1.2-2.5C385.1,235.7,384.7,236.5,384.6,237.5z"></path> <path class="st0" d="M521.5,233c0.3,0,0.7-0.5,0.9-0.9c0.4-0.9,0.3-2-0.6-2.2c-0.9-0.2-1.4,0.8-1.4,1.8l0-0.2c0,0,0,0,0,0 c0,0,0,0,0,0C520.1,232.6,520.4,233.1,521.5,233z M520.5,231.7C520.5,231.7,520.5,231.7,520.5,231.7 C520.5,231.7,520.5,231.7,520.5,231.7C520.5,231.7,520.5,231.7,520.5,231.7z"></path> <path class="st0" d="M522.3,250.6c-0.7,0.1-0.8,0.4-0.3,0.9c0.5,0.3,0.8,0.2,0.8-0.5C522.8,250.8,522.5,250.6,522.3,250.6z"></path> <path class="st0" d="M597.8,586.4c0.7,0.1,1.3-0.3,1.3-0.2c0.6-2.1-0.1-3-1-3.8c-6.8-6.1-13.6-12.3-20.4-18.4 c-1.5-1.3-3.1-1.4-3.6-0.3c-0.6,1.3,0.2,2.2,1,3c0.1,0.2,0.3,0.3,0.5,0.5c6.8,6.1,13.6,12.2,20.5,18.3 C596.5,586,597.2,586.3,597.8,586.4z"></path> <path class="st0" d="M404.9,377.7c6.8-2.2,18.1-4.2,35.1,1.7c6.9,2,14.8,2.6,25.2-0.3c7.6-1.4,11.7-2.2,13.8-2.6 c0.9,0,1.9-0.1,3-0.5l14.2,0.2c-11.7-1.8-15.6-2.2-20.2-1.6c-1.6-0.2-3.1-0.4-4.6-0.5c-5.8-0.6-11.5,0.1-17,2 c-2.2,0.7-4.2,2.1-6.6,2c0.1,0.4,0.2,0.7,0.3,1.1c-1.2,0-2.5-0.1-3.8-0.3C436.6,377.9,420.2,370,404.9,377.7z M457.7,377.4 c2.8-0.6,5.7-0.8,8.5-0.9c-7,1.5-11.9,2.6-17.1,2.6C452,378.6,454.8,378,457.7,377.4z"></path> </svg> 