<?xml version="1.0" encoding="UTF-8"?> <svg xmlns="http://www.w3.org/2000/svg" xmlns:xlink="http://www.w3.org/1999/xlink" version="1.1" id="Calque_1" x="0px" y="0px" viewBox="0 0 850.4 850.4" style="enable-background:new 0 0 850.4 850.4;" xml:space="preserve"> <style type="text/css"> .st0{fill:#B49F71;} </style> <path class="st0" d="M230.8,766.8c0.4,0.3,0.7,0,0.8-0.6c0.2-0.8,0.4-1.5,0.6-2.2c-0.6,0.6-1.2,1.2-1.8,1.8 C230.3,765.9,230.5,766.6,230.8,766.8z"></path> <path class="st0" d="M318,701.8c0.2,0.2,0.5,0.4,0.7,0.5c0,0,0,0,0,0C318.5,702.1,318.3,701.9,318,701.8z"></path> <path class="st0" d="M318.8,702.3C318.8,702.3,318.8,702.3,318.8,702.3C318.8,702.3,318.8,702.4,318.8,702.3 C318.8,702.4,318.8,702.3,318.8,702.3z"></path> <path class="st0" d="M318.7,702.2C318.7,702.3,318.7,702.3,318.7,702.2C318.7,702.3,318.7,702.3,318.7,702.2 C318.7,702.3,318.7,702.3,318.7,702.2z"></path> <path class="st0" d="M799.6,256.9c-26.2-57.3-63.8-106-112-146.4C656.1,84.1,621.3,63,583.3,47.1c-49.4-20.6-101-30.9-154.5-31.6 c-15.6-0.2-31.1,0.8-46.6,2.3c-14.8,1.5-29.4,3.7-43.9,7c-7.5,1.7-14.9,3.3-22.4,5c-6.1,1.9-12.3,3.7-18.3,5.8 c-10.8,3.8-21.5,7.8-32.2,11.7c-2,1.5-4.3,2.5-6.8,2.9c-1.1,1.1-2.4,1.5-3.9,1.7c-1.9,1.8-4.5,2.5-6.8,3.5c-1,0.5-1.9,0.9-2.9,1.4 c-4.2,2.3-8.3,4.7-12.8,6.3c-2.5,2-5.2,3.3-8.1,4.5c-5.6,3.4-11.1,6.7-16.7,10.1c-2.3,1.5-4.6,3.1-7,4.6 c-45.9,30.3-84.4,68.1-115.2,113.7c-45.7,67.6-68.6,142.5-69.9,224c-0.4,23.5,1.7,46.8,5.2,70c3.7,24.6,9.4,48.7,17.6,72.2 c29.7,84.4,81.7,151.9,155.1,202.8c57.2,39.7,120.8,62.3,190,69.3c12.7,1.3,25.4,1.7,38.2,1.9c24.7,0.3,49.1-1.4,73.5-5.4 c27.8-4.6,54.8-12,81-22.2c99-38.4,179.8-116.3,222.6-209.5c2.7-5.9,5.4-11.8,8.1-17.7c0.2-2.2,1-4.2,2.4-5.9c0.4-2.6,1.4-5,2.7-7.2 c0.4-1.6,0.8-3.1,1.3-4.7c12.5-35.7,20-72.4,22.3-110.1c1.9-32,0.8-64-4.9-95.7C824.3,322.8,814.4,289.1,799.6,256.9z M305.2,43 c-0.3-3.5,0.1-3.8,3.5-4.9c15.8-4.7,31.8-8.4,48-11.2c15.1-2.6,30.3-4.3,45.6-5.1c16.9-1,33.9-1,50.8,0.3c13.7,1,27.3,2.4,40.8,4.8 c16.9,2.9,33.7,6.7,50.1,11.7c0.9,0.3,1.8,0.5,2.6,0.9c2.4,0.9,2.9,1.6,2.4,4.1c-0.7,3.6-1.6,7.2-1.7,11 c-0.1,7.8,3.7,13.2,11.2,15.4c0.9,0.3,1.8,0.5,2.7,0.5c4.7,0.3,4.1,2.4,2.6,5.6c-0.9,1.9-2.3,3.5-3.4,5.2c-1,1.5-2.8,2.5-3.3,4.2 c-0.1,0.7,0.2,1,0.8,1c4.8,0.5,4.8,0.5,4.4,5.1c-0.5,5.6-0.3,11.1,1,16.6c3.1,12.9,4.6,26,5.9,39.2c1.6,16.2,3.4,32.3,5,48.4 c0.5,4.8,0.5,9.8,1.2,14.6c0.7,4.4-1,7.5-3.9,10.6c-1.6-1.6-1.4-3.5-1.6-5.2c-1.1-12-2.2-24-3.3-36c-0.6-6.5-1.1-12.9-1.6-19.4 c-0.2-2.5-0.6-5-1.6-7.5c-9.1-23.1-19.1-45.8-29.9-68.2c-2.8-5.9-6.5-11.3-11-16c-8.4-8.7-18.7-13.4-30.8-14.5 c-13.4-1.2-26.3,1.3-39,5.4c-5.1,1.6-10.1,3.5-15.1,5.3c-1.6,0.6-3.1,0.8-4.6-0.2c-10.5-6.9-22.3-10.1-34.3-13 c-8.1-2-16.2-4.1-24.5-5.1c-24-2.9-47.3,4.9-60.5,29.1c-5.6,10.3-8.7,21.4-10.7,32.9c-0.1,0.5-0.1,0.9-0.2,1.4 c-0.5,3.9-0.7,7.9-1.6,11.7c-0.8,3.7-4.4,5.8-6.4,8.9c-8,12.5-13,26.1-15.5,40.7c-0.7,4.1-0.7,8.3-0.3,12.5 c1.1,11.8,1,23.6,0.5,35.5c-0.1,1.6,0.2,3.2-0.7,4.7c-4-1.4-4-1.4-4.1-4.3c0-1.4,0.1-2.8,0.1-4.2c0.4-15.1,0.7-30.2-0.4-45.2 c-0.7-10,0.4-20,1.3-29.9c1.1-11.8,2.6-23.5,5.2-35.1c2.3-10.2,5.4-20.1,10.6-29.3c3.5-6.3,6.5-12.8,9.9-19.1 C304.2,52.5,305.7,48.1,305.2,43z M563.9,505.3c2,15.5,2.3,31,1.1,46.5c-1.7,23.8-7.5,46.6-17.6,68.3c-0.4,0.8-0.8,1.7-1.2,2.5 c-0.6,1.1-1.5,1.7-2.9,1.1c-1.7-0.8-3.5-1.2-4.8-2.8c0.2-2,1.7-3.2,2.8-4.6c13.5-17.3,18.7-36.9,17.6-58.6 c-0.8-14.7-4.6-28.8-9.1-42.7c-2-6.2-6.5-8.7-12.5-9.1c-5.2-0.3-10.2,0.8-15.1,1.9c-12.5,2.7-24.5,7-36.6,11.1 c-4.4,1.5-8.7,3.1-13.1,4.6c-1.5,0.5-3.1,0.7-4.7,1c-0.2,0-0.6-0.1-0.6-0.3c-0.1-0.4-0.2-1.1,0-1.2c1.2-1.1,2.4-2.1,3.8-3 c11-7.3,22-14.7,32.4-22.9c7.7-6,15-12.4,21.9-19.4c4.6-4.6,8.6-9.7,12.1-15.2c3.5-5.5,6.3-11.3,7.4-17.9c0.1-0.6,0.5-1.2,1.2-2.7 c3.1,4.9,4.6,9.5,6.2,14.1C558,472.1,561.7,488.5,563.9,505.3z M556.9,449c3.3,0.2,5.3,1.8,7.4,3.2c11.8,7.5,22.2,16.7,30.2,28.3 c2.2,3.1,4.7,5.6,7.9,7.5c31.6,19.3,53.2,46.9,67.9,80.5c0.5,1,0.7,2.2,1,3.3c-0.7,0.5-1.2,1-1.8,1.3c-5.6,2.1-11.3,4.2-16.9,6.3 c-2.1,0.8-3.9,0.5-5.8-1c-5.6-4.5-11.3-8.9-17-13.3c-10.7-8.1-21.4-16.3-32.3-24.1c-3.2-2.3-4.3-4.7-4.5-8.5 c-0.5-9.9-1.3-19.9-3.8-29.6c-1-4-2.3-8-4.2-11.7c-3.2-6.5-7.9-11.3-14.9-13.7c-0.9-0.3-1.7-0.7-2.6-1c-2.3-0.6-3.3-2-4-4.3 c-2-6.9-4.3-13.7-6.4-20.5C557,451,557,450.3,556.9,449z M507.6,586.5c-8.3,0-15.1-4.2-21.8-8.3c-8.1-4.9-16.1-10.1-24.3-15 c-2-1.2-2.1-2.8-2.2-4.7c-0.2-4,0.1-4.4,3.9-5.1c14.8-2.8,29.6-5.5,44.4-8.3c1.4-0.3,2.8-0.2,3.8-1.5c0.2-0.3,0.4-0.8,0.3-1.2 c-0.1-0.4-0.4-1-0.8-1.1c-0.9-0.2-1.8-0.3-2.7-0.1c-9.8,1.8-19.6,3.6-29.4,5.5c-5.7,1.1-11.4,2.2-17.1,3.3c-2.6,0.5-3.2,0.1-4-2.5 c-0.8-2.9-1.6-5.8-2.3-8.7c-0.2-1,0.2-1.8,1.2-2.2c0.6-0.3,1.3-0.6,1.9-0.8c19.6-6.3,38.9-13.8,58.8-19c4.9-1.3,9.9-2.2,14.9-3.2 c1.1-0.2,2.3-0.3,3.5-0.3c4.7,0,6,0.9,7.5,5.5c4.8,13.6,8.3,27.5,8.7,42.1c0.7,26.1-9.2,47.3-29,64.2c-2.3,2-4.3,2.2-6.9,0.7 c-1.4-0.8-2.9-1.4-4.4-2.1c-22.7-9.4-39.5-25.5-52.9-45.8c-2.3-3.5-2.3-6.2-0.6-9.6c0.6-1.2,1.5-1.8,2.7-1.2 c2.3,1.2,4.5,2.4,6.7,3.7c5.7,3.6,11.3,7.3,17,10.8c4.5,2.8,9.2,5.3,14.3,7c2.7,0.9,5.4,1.1,8.2,0.8c1-0.1,1.7-0.7,1.7-1.8 C508.9,587,508.3,586.5,507.6,586.5z M382.7,544.2c1.3,0.6,2.7,0.3,4.1,0.2c6.3-0.2,12.5-0.4,18.8-0.5c1.6,0,3.2,0.1,4.8,0.4 c0.9,0.2,1.6,0.9,1.7,1.9c0,0.2,0,0.5,0,0.7c-1.2,11.6,1.1,9.7-9.9,12c-11.1,2.3-22.2,4.6-33.5,6c-3.7,0.5-7.4,0.6-11.1,0.9 c-0.5,0.1-1.3,0.6-1,1.5c0.2,0.4,0.4,0.8,0.8,1c2.5,1,5,0.7,7.6,0.5c8.1-0.4,16.1-2.1,24.1-3.6c5.5-1,10.9-2.2,16.4-3.3 c1.4-0.3,2.8-0.4,4.1-0.5c1,0,1.8,0.4,2.1,1.4c0.1,0.2,0.1,0.5,0.2,0.7c2.5,7.7,2.5,7.7-5,11.2c-22.3,10.5-45.5,18.4-69.4,24.5 c-1.1,0.3-2.2,0.6-3.4,0.8c-1.1,0.2-1.7-0.6-2.2-1.3c-0.4-0.6-0.5-1.3-0.7-2c-5.2-19.9-8-40-5.5-60.6c0.8-6.2,2.2-12.3,4.8-18.1 c0.4-0.8,0.8-1.7,1.2-2.5c4.3-7.8,5.1-8.1,13.6-5.5c19.9,6.1,39.9,12.1,59.8,18.2c3.1,0.9,6.1,2.1,9.2,3.3c0.8,0.3,1.5,1.2,1.2,2.3 c-0.4,1.3-0.7,2.7-1.1,4c-0.5,1.8-1.7,2.6-3.6,2.6c-4.2-0.1-8.4,0-12.5,0c0,0.1,0,0.1,0,0.2c-4.2,0-8.4,0-12.5,0 c-1.1,0-2.3,0.4-3.3,0.7c-0.3,0.1-0.7,0.7-0.7,1.1C381.6,543.2,381.9,543.8,382.7,544.2z M390.4,593.1 c-8.6,11.8-17.2,23.6-25.8,35.4c-0.5,0.7-1.2,1.5-1.8,2.1c-0.8,0.8-1.7,0.6-2.5-0.1c-0.5-0.4-1-1-1.4-1.5 c-5.6-6.8-10.7-13.9-15.5-21.4c-0.4-0.5-0.4-1.3-0.6-1.9c0.5-0.3,0.8-0.7,1.2-0.8c15.8-4.4,31.4-9.6,46.9-15 c0.2-0.1,0.4,0.2,0.7,0.3C391.9,591.5,391,592.3,390.4,593.1z M321.3,522.9c-0.3,1.1-0.6,2.2-1.6,3c-3.6-10,2.1-64.9,6.2-74.7 c1.4,0.2,1.6,1.5,2,2.4c4.4,10.7,11.5,19.5,20.1,27.2c9.2,8.3,19.6,14.8,30.5,20.6c10.6,5.7,20.8,12.2,31,18.5 c0.8,0.5,1.4,1.2,2.1,1.8c-1,0.8-1.8,0.5-2.7,0.2c-22.4-6.8-44.7-13.6-67.1-20.4c-0.9-0.3-1.7-0.6-2.6-0.9c-1.9-0.6-3.6-0.1-5.1,1.2 c-3.7,3-6.4,6.7-8.6,10.8C323.6,515.9,322.2,519.3,321.3,522.9z M418.8,536.4c0.6-2.1,2-3.1,3.9-3.3c8.1-0.8,16.1-0.3,24.1,1.7 c1.8,0.5,3.4,1.3,4.1,3.3c2.5,7.2,4.7,14.5,4.5,22.3c0,2.1-0.1,4.2-0.5,6.2c-1,4.6-2.4,5.7-7,5.8c-2.1,0.1-4.2,0-4.8,0 c-8.6,0.5-15.7-0.7-22.6-2.6c-2.3-0.6-3.6-1.9-4.1-4.2c-0.4-2.3-1-4.5-1.1-6.8C414.8,551.2,416.6,543.8,418.8,536.4z M464.4,524.7 c0-0.1,0.6-0.4,1-0.6c0.5-0.3,0.8-0.1,1,0.5c-0.2,0.3-0.3,0.7-0.6,0.8C465.2,525.6,464.6,525.3,464.4,524.7z M537.8,448.7 c-1.9,5.5-4.7,10.6-8.2,15.2c-6.7,9-14.8,16.6-23.4,23.7c-17,14-35.5,26.1-54,38c-2.1,1.3-4.1,1.8-6.5,1.4c-5-0.8-10.1-1.8-15.2-1.5 c-2.3,0.1-4-1-5.7-2.2c-5.3-3.4-10.5-6.8-15.9-10.1c-10.1-6.2-20.1-12.4-30.5-18c-8-4.3-15.6-9.2-22.6-14.9 c-6.2-5-11.7-10.5-16.3-17.1c-5.8-8.3-9.3-17.5-10.7-27.8c2.5-0.1,3.3,1.8,4.4,3c9.5,10.7,20.6,19.4,33.3,25.8 c12.9,6.5,26.6,10.5,41,12.7c8,1.2,16.1,1.7,24.2,2c12.3,0.5,24.6-0.7,36.5-4c19.1-5.4,34.7-16.2,46.9-31.8 c7.3-9.4,13.1-19.7,18.2-30.4c1.3-2.7,2.6-5.3,3.9-8c0.5,0.1,0.9,0.2,1.4,0.4c0,5.3,0,10.6,0,15.9c0,4.6-0.1,9.2,1,13.8 C540.6,439.6,539.3,444.2,537.8,448.7z M502.9,446.7c0-0.2,0.3-0.3,0.5-0.5c0.1,0.2,0.3,0.3,0.4,0.5c-0.2,0.1-0.3,0.3-0.5,0.4 C503.2,447,502.9,446.8,502.9,446.7z M535,395.3c-5.2,10.9-10,21.9-16.2,32.3c-2.7,4.6-5.7,9-9.1,13.2c-1.2,1.4-2.4,2.8-3.8,4.1 c-0.4,0.4-1.3,0.4-1.9,0.3c-0.2,0-0.4-0.8-0.4-1.2c0.3-1.6,0.7-3.2,1-4.8c1.1-4.5,2.1-8.9,3.3-14c-2.9,3.1-2.9,6.8-4.6,9.7 c-0.4,0.9-0.8,1.8-1.2,2.7c-0.5,2.6-1.7,5-3.1,7.3c-0.8,1.3-1.5,2.6-2.3,3.8c-0.7,2.3-1.8,4.3-3.8,5.8l-0.1,0.1 c-1.6,3.1-4,5.2-7.2,6.4c-7,5.3-15.3,7.8-23.6,9.6c-13.4,3-27.1,3.5-40.8,2.3c-11.3-1.1-22.5-2.9-33.5-5.9 c-5.5-1.5-8.9-4.6-10.8-9.7c-2.2-5.8-4.3-11.7-6.6-17.6c-0.9-2.3-1.4-4.9-3.6-7.2c0.3,4.7,1.7,8.9,2.6,13.1c1,4.5,2.1,9,3.1,13.5 c0.3,0.6,0.5,1.2-0.2,1.6c-0.1,0.1-0.6-0.4-0.9-0.7c-2.9-0.4-5.1-2.1-7.5-3.5c-20.1-11.6-34.6-28.4-44.9-49 c-7.2-14.4-12.2-29.5-15.4-45.2c-5-24-9.2-48.2-12.8-72.5c-0.7-4.6-1.4-9.2-2.1-13.7c-0.6-2.4-0.9-4.8-0.7-7.2 c-1.4-4.4-1.6-9.1-2.2-13.7c-1-3.9-0.9-7.8-0.8-11.8c0.3-13.9,0.6-27.8,0.8-41.8c0.1-6.7,0-13.5-0.9-20.1c-0.6-4.2,0.2-8.4,1-12.4 c2.1-10.2,5.6-20.1,10.4-29.4c2-3.9,4.1-7.9,7.5-10.8c2.8-2.4,3.6-5.2,3.8-8.6c0.3-6.7,1.6-13.3,3.1-19.9c1.6-7.3,4-14.3,7.5-20.9 c9.5-18,24.5-27.1,44.8-27.9c9-0.4,17.5,1.6,26.1,3.3c6.8,1.4,13.5,3.3,20.2,5.1c7.9,2.2,15.4,5.1,22,10c2.2,1.6,4.1,1.5,6.5,0.6 c10.3-4.2,20.8-7.8,31.8-9.9c7.5-1.4,15.1-2.2,22.8-1.2c14.9,1.9,26,9.5,33.4,22.2c3.4,5.8,6.1,12,8.9,18.1 c7.9,17,15.4,34.2,22.3,51.7c1.5,3.7,2.3,7.4,2.6,11.4c0.8,11.6,2.1,23.1,3.1,34.6c0.9,9.9,1.7,19.9,2.5,29.8c0.4,5.3,0.8,10.6,1,16 c0.7,14.4-0.9,28.7-2.9,43c-2.6,19.3-6.1,38.5-10.7,57.4C548.3,361.7,542.8,378.8,535,395.3z M273.3,248c1.5-2.6,2.8-2.5,4.4,0.2 c0.9,1.6,1.5,3.3,1.8,5.2c2.8,18.7,5.7,37.5,8.5,56.2c0.5,3.6,2.1,7.1,1,10.9c-10.9-0.9-19-7.5-21.6-17.5c-0.3-1.1-0.7-2.2-0.8-3.4 c-0.6-9.2-1.2-18.5-1.8-27.7c0-0.5,0-0.9,0.1-1.4C267.1,262.9,269.3,255.1,273.3,248z M270.2,241.6c1-4.5,2.1-8.4,4.4-12.3 c2.9,2.8,3.5,6.2,4.3,9.4c0.2,0.9-0.7,1-1.4,0.9C274.7,239.2,272.4,239.9,270.2,241.6z M567.3,298.3c2.7-16.7,4.8-33.5,4.7-50.5 c0-2.6,0-5.1,2.1-7.1c2.7-2.5,5.2-5.3,9.1-6.1c1.4-0.3,2.8,0,3.9,1c0.9,0.8,1.8,1.5,2.4,2.4c4.5,7.2,7.1,15.2,7.1,23.7 c0,6.7-1.3,13.4-2.2,20c-0.2,1.8-0.7,3.6-1.2,5.4c-4.1,14.3-12.1,21.6-27.9,24.8C566.1,306.9,566.6,302.6,567.3,298.3z M594.6,234.5 c0.2,0,0.4,0.1,0.7,0.1C594.8,235.2,594.7,234.8,594.6,234.5z M594.2,234.1c-0.7-0.6-1.3-1.1-1.9-1.7c-4.2-4-8.8-4.8-14-2.2 c-1.2,0.6-2.2,1.8-3.8,1.2c-0.7-1.2,0.2-2.2,0.7-3.1c4.7-9.9,3.9-10,13.4-2.8C591.4,227.5,594.3,230,594.2,234.1z M52.3,585.2 c-0.8-1.4-1.5-2.9-2.1-4.4c-11.8-28.4-20.4-57.7-25.5-88c-3.7-21.8-5.1-43.8-5-65.8c0.3-70.1,17.2-135.9,51.2-197.2 c20.2-36.4,45.6-68.7,75.9-97.3C187.4,94,233.9,65,286.4,45.7c3.5-1.3,7-2.4,10.5-3.5c1.3-0.4,2.2,0.2,2.4,1.6 c0.4,2.8-0.1,5.5-1.4,8.1c-3.6,6.8-6.8,13.7-10.6,20.4c-7.3,12.7-10.9,26.5-13.5,40.7c-2.6,14.4-3.9,28.9-5,43.5 c-0.3,3.9-0.2,7.9,0,11.8c1.2,17.4,0.6,34.8,0.5,52.2c0,3.7-0.8,7.3-2.2,10.8c-1.6,3.9-3,7.8-4.3,11.8c-3.7,11.6-5.3,23.5-3.5,35.7 c0.6,4.6,0.5,9.3,0.7,13.9c0.1,4.4,0.8,8.8,2,13c2.3,8.1,7.5,13.7,14.9,17.4c3.5,1.8,7.2,3.2,11.1,4c2.4,0.5,3.4,2,3.8,4.3 c1.8,9.8,3.7,19.6,5.7,29.4c4.2,21.3,11.2,41.6,22.6,60.2c3,4.9,2.9,10.2,2.2,15.5c-1,6.9-2.5,13.7-3.7,20.5c-0.3,1.9-1.1,3.5-2.2,5 c-6.6,9-13.2,17.9-19.8,26.9c-1.3,1.7-2.8,3.1-4.7,4.1c-0.4,0.2-0.8,0.4-1.2,0.7c-8.8,6.8-18.9,10.4-29.4,13.6 c-20.8,6.4-41,14.8-61.3,22.8c-9.3,3.6-18.6,7.2-27.8,11c-14.6,6-30,9.6-45.2,13.9c-13.8,3.9-27.7,7.7-41.5,11.6 c-10,2.8-18.5,8.4-26.3,15.1c-1.6,1.4-3.1,2.8-4.7,4.1C53.7,586.4,52.8,586.2,52.3,585.2z M291.4,693c0,1.9,0,3.7,0.1,5.6 c0.1,2.3-0.7,4-2.4,5.5c-6.5,5.6-13,11.2-19.5,16.8c-0.7,0.6-1.5,1.1-2.4,1.4c-1,0.4-1.9,0-2.2-1c-0.3-1.3-0.3-2.8-0.5-4.1 c-0.3-2.3-0.6-4.6-1.3-6.8c-1.2-4-3.5-6.9-7.2-8.9c-4.9-2.6-9.9-5.1-15.6-5.6c-3.7-0.3-4.2-1.5-4.2-4.9c0-1.2-0.1-2.3,0-3.5 c0.2-5.8-2.4-10.3-6.9-13.8c-4-3.2-8.4-5.9-13.3-7.3c-3-0.9-4.6-2.6-4.9-5.9c-1.2-11.3-2.5-22.6-3.8-33.9c-0.2-1.4-0.1-2.8-0.2-4.2 c-0.3-3.7,1.2-6.8,3.7-9.4c2.6-2.7,5.6-4.9,8.7-6.9c11.2-7,22.7-13.5,35.1-18.3c10.8-4.2,21.7-8.3,32.5-12.3c1.5-0.6,3.1-1,4.7-1.3 c1.3-0.2,2.2,0.5,2.3,1.9c0.1,1.4,0,2.8,0,4.2c-0.7,19.3-1.5,38.5-2.2,57.8C291,656.4,291.1,674.7,291.4,693z M290.2,569.1 c-13.5,4.8-27,9.9-40.2,15.5c-0.6,0.3-1.3,0.5-1.9,0.8c-1.9,0.8-3.5,0.4-5-1.1c-4.4-4.4-8.9-8.8-13.4-13.2c-1.7-1.6-3.4-3.2-5-4.9 c-1.8-1.9-1.9-2.6-0.1-4.7c6.2-7.2,12.3-14.5,18.8-21.5c12.1-12.9,25-24.9,39.6-35c3.6-2.5,7.3-5,11.1-7.1c2.9-1.6,5.3-3.6,7.2-6.3 c3.7-5.1,7.5-10,11.3-15c0.5-0.7,1.2-1.3,2.2-2.5c1.3,1.9,0.8,3.3,0.7,4.6c-0.7,7.6-1.4,15.2-2.3,22.8c-0.2,1.3-1,2.6-1.6,3.8 c-1.4,2.7-2.9,5.3-4.4,7.9c-8.2,14.2-12.1,29.5-12.4,45.8c0,1.2,0,2.3-0.1,3.5C294.7,567.5,294.7,567.5,290.2,569.1z M111.5,682.8 c-21.6-26.3-39.7-54.8-54.1-85.7c-0.4-0.8-0.7-1.7-1.1-2.5c-0.7-1.4-0.4-2.7,0.5-3.8c0.9-1.1,1.8-2.1,2.8-3.1 c8.6-8.4,18.3-14.7,30-18.1c18.9-5.5,37.8-10.8,56.9-15.5c10.4-2.6,20.4-6.2,30.4-9.9c24.3-9.2,48.3-19.1,72.8-27.6 c3.7-1.3,7.5-2.4,11.2-3.6c0.4-0.1,1.1,0,1.3,0.3c0.5,0.6,0.1,1.2-0.4,1.7c-1.7,1.6-3.4,3.2-5.1,4.8c-13.5,12.5-25.8,26.1-37.1,40.5 c-0.7,0.9-1.5,1.8-2.1,2.8c-0.7,1.1-0.7,2.2,0.2,3.2c1.3,1.3,2.7,2.6,4,3.9c5.5,5.4,11,10.7,16.4,16.1c2,2,1.9,2.9-0.4,4.3 c-1.8,1.1-3.7,2-5.5,3.1c-5.2,3.1-10.4,6.1-15.5,9.3c-1.8,1.1-3.4,2.5-5,3.7c-6.5,4.8-9.7,10.8-8.5,19.2c1.5,10.3,2.4,20.7,3.6,31.1 c0.1,0.9,0.4,1.8,0.5,2.7c0.6,5.2,0,5.7-4.5,7c-4.3,1.3-8.1,3.6-11.3,6.6c-6.8,6.3-14.3,11.9-19.7,19.6c-0.2,0.3-0.8,0.4-1.8,0.9 c-0.9-3.2-0.4-5.9,0.1-8.6c0.9-4.8,2-9.6,4.2-14c3.3-6.7,5.2-13.9,7.3-21c5.6-18.7,12.1-37,20.3-54.7c2.4-5.3,4.5-10.6,5.8-16.4 c1.4-6.5-0.3-11.9-4.9-16.5c-2.1-2.2-4.6-3.9-7.3-5.3c-6-3-11.6-2.4-16.9,1.8c-3.1,2.5-5.7,5.4-8.1,8.6c-4.5,5.9-8.4,12.2-11.9,18.8 c-5.4,10.3-10.6,20.6-15.8,31c-3.1,6.2-5.9,12.6-9.5,18.6c-2.6,4.2-4.2,8.8-4.9,13.7c-0.4,3-1.3,5.9-2.4,8.7 c-3.6,9-7.2,18.1-10.7,26.9C113,685.2,112.3,683.9,111.5,682.8z M196.7,566.7c-0.5-0.4-1-0.9-1.6-1.3c-0.5-0.3-0.9-0.6-1.4-1 c-1.1,0-1.9-0.6-2.7-1.3c-1.8,0-3.5-0.4-4.8-2.2c2.2-1.6,4.1-0.9,6.1,0.3c1.1,0.2,2.1,0.5,2.7,1.5c0.6,0.3,1.1,0.7,1.7,1 c0.6,0.5,1.2,1,1.8,1.4c0.4,0.4,0.8,0.7,1.1,1.1c0.3,0.3,0.6,0.6,0.9,0.9c0.4,0.7,0.8,1.6-0.1,2.2c-0.9,0.5-1.5-0.2-2-0.7 c-0.1-0.2-0.3-0.3-0.4-0.5C197.6,567.6,197.1,567.1,196.7,566.7z M197.7,573.4c-1.9,6.5-4.3,12.5-10.4,16c-3.5,2-7,2-10.5-0.1 c-3.7-2.3-4.9-5.4-3.3-9.5c2.2-5.4,5.7-10,9.2-14.6c0.6-0.7,1.5-1.1,2.5-0.9c4.8,0.6,8.8,2.6,11.5,6.7 C197.3,571.7,197.4,572.7,197.7,573.4z M249.4,791.8c-5.1-2.6-10.3-5.1-15.4-7.8c-41.7-22.5-78.3-51.4-110-86.6 c-7.1-7.9-6.1-5-2.6-14.3c2.7-7.2,5.5-14.3,8.3-21.4c1.7-4.3,3.1-8.7,3.6-13.4c0.4-3.9,2.1-7.6,4.1-11c2.8-4.8,5.1-9.9,7.4-15 c5.4-12.1,11.4-23.8,18-35.3c1.3-2.2,2.4-4.5,4.3-6.3c0.7-0.6,1.9-0.3,2.2,0.6c0.1,0.4,0.3,0.9,0.3,1.4c-0.2,9.8,12.6,14.2,20.5,8.7 c2.3-1.6,4.2-3.7,5.6-6.1c2.1-3.4,3.3-7.1,4.2-11c0.2-1.1,0.5-2.3,0.7-3.4c0.1-0.6,0.4-0.8,1-0.6c0.4,0.2,0.9,0.3,1.1,0.6 c0.4,0.8,0.7,1.7,0.8,2.6c0.3,2.8-0.1,5.6-1,8.2c-1.1,3.3-2.1,6.6-3.6,9.8c-9.7,20.9-16.3,42.9-23.4,64.7c-1.1,3.3-2.3,6.5-3.8,9.7 c-5.5,11.3-8,23.2-6.5,35.8c0.4,3,0.4,6,0.7,9c0.1,0.9,0.2,1.9,1.4,2.2c1.9-1.8,2.3-4.4,3.2-6.8c3.1-8.2,7.7-15.3,14.3-21.1 c3-2.6,5.8-5.4,8.7-8.1c2.2-2.1,4.6-3.9,7.3-5.3c4.7-2.5,9.8-3.2,14.8-1.5c5.1,1.7,9.7,4.4,13.5,8.3c1.1,1.1,2.1,2.6,2.6,4.1 c1.8,6.2,2.2,12.6-1.2,18.2c-6.9,11.2-14.5,22.1-21.8,33.1c-0.3,0.5-1.2,0.6-1.8,1l0.1,0c2.5-0.4,3.9-2.4,5.3-4.2 c6.1-7.9,12.2-15.7,18.3-23.6c1.1-1.5,2.2-3,3.3-4.5c1.9-2.4,4.3-3.4,7.3-2.9c5.3,1,10.2,3,14.7,6c3.1,2.1,4.2,5.5,4.7,9 c0.6,3.7,0.2,7.4-1.5,10.9c-1.8,3.8-4,7.3-6.8,10.5c-4.1,4.7-8.2,9.5-12.1,14.4c-3.3,4.1-6.3,8.4-7.9,13.4c4.2-4.6,7.5-10,11.9-14.6 c10.6-10.8,22.1-20.5,33.5-30.3c6.9-5.9,13.7-11.8,20.6-17.7c2.6-2.3,5-4.9,8.6-5.7c5.1-2.9,10.2-2.3,15.1,0.2 c4.9,2.5,7.5,7.9,6.6,13.2c-0.1,0.6-0.5,1.3-1,1.6c-0.9,0.6-1.7,0.1-2.4-0.7c-2.2-2.6-4.3-5.2-6.4-7.9c0,0,0,0,0,0 c4.3,6,4,9.4-1,14.3c-3.3,3.2-7.1,5-11.8,4.5c-5-0.5-6.9-3.8-4.7-8.2c2.4-4.9,6.2-8.6,10.7-11.5c2-1.3,4.2-1,6.2,0.4 c-1.5-1.2-2.8-2.7-4.5-3.7c-1.7-0.9-3.1-0.6-4.6,0c-2.4,3.7-4.9,7.3-7.2,11c-1.2,2-2.2,4-2.3,6.5c-0.1,2.7,1.1,4.6,3.3,5.6 c2.3,1.1,4.7,1.9,7.4,1.1c1.5-0.5,3.2-0.7,4.8-0.9c0.6-0.1,1.7,0,1.9,0.4c0.5,0.8,0.1,1.8-0.6,2.5c-2.8,2.8-5.5,5.7-8.5,8.2 c-20.4,17.7-38.4,37.8-56.5,57.7C250.8,790.8,250.2,791.1,249.4,791.8z M306.4,813.9c-0.9-0.1-1.9-0.2-2.7-0.5 c-15.2-4.9-30.2-10.5-44.7-17.2c-0.8-0.4-1.7-0.8-2.4-1.3c-0.9-0.6-1.1-1.5-0.6-2.4c0.6-1,1.3-1.9,2.1-2.8 c10.3-11.3,20.6-22.7,31-33.9c1.3-1.4,2.5-3.9,4.9-2.8c1.9,0.9,1.2,3.3,1.5,5.1c2.4,17.7,5.1,35.3,11.9,52c0.3,0.8,0.5,1.8,0.6,2.3 C307.7,813.6,307.1,814,306.4,813.9z M409.6,824.8c-0.2,6.9-1,7.6-7.8,7c-8.8-0.8-17.6-1.3-26.3-2.5c-14-1.9-28-4.2-41.7-7.6 c-5.4-1.3-10.8-2.8-16.2-4c-3.2-0.7-5.1-2.5-6.5-5.6c-3-6.8-5.4-13.8-7.3-21c-3.3-12.6-5.4-25.4-6.8-38.3c-0.4-3.4,0.4-5.9,2.9-8 c2.3-2,4.5-4.1,6.8-6c6.2-5.2,12.2-10.7,17.9-16.5c1.5-1.5,2.9-3,4.3-4.6c4.4-4.7,5.4-10.1,3.2-16.1c-2.4-6.5-7.1-10.3-13.8-11.3 c-6.4-1-12.5-0.1-17.8,4c-1.1,0.8-2.2,1.7-3.4,2.4c-1.4,0.9-2.8,0.3-3.1-1.4c-0.2-1.8-0.4-3.7-0.4-5.5c0.1-11.8,0.1-23.7,0.5-35.5 c0.6-20,1.4-39.9,2.4-59.9c0.6-11.8,1.2-23.6,1.6-35.5c0.5-14.8,3.8-29,11.3-41.9c0.6-1,1.3-1.9,1.9-2.9c0.3-0.4,0.8-0.5,1.2-0.1 c0.2,0.1,0.4,0.3,0.4,0.5c0.1,1.1,0.3,2.3,0.3,3.5c0.4,10.5,1.5,20.8,3.8,31c1.2,5.4,1,11.1,1.5,16.6c1.2,13.5,3.7,26.6,8,39.5 c1.1,3.3,1.2,3.3,4.4,3c1.2-0.1,2.3-0.3,3.4-0.5c1.6-0.3,2.7,0.3,3.6,1.5c1.1,1.5,2.1,3.1,3.1,4.6c4.9,7.1,9.8,14.1,15.5,20.6 c1.6,1.9,3.1,4.1,5.6,5c2.3-1.6,3.6-3.8,5.2-5.8c11.4-14.4,22.2-29.2,32.4-44.5c3-4.5,7.3-6.1,11.9-7.8c1-0.4,1.8,0.4,1.9,1.4 c0.1,2.3,0.1,4.6,0.1,7c-0.9,60.8-1.8,121.7-2.7,182.5C410.6,789.5,410.1,807.1,409.6,824.8z M457.9,827.5c-0.1,2.4-0.8,3.1-3.5,3.4 c-12.7,1.7-25.5,1.4-38.2,1.3c-0.7,0-1.4-0.1-2.1-0.2c-1.3-0.2-2.1-1-2.3-2.3c-0.2-2.1-0.2-4.2-0.2-6.3c0.4-9.7,1-19.5,1.2-29.2 c0.5-30.2,2.1-60.3,2-80.1c1-50.5,1.8-90.7,2.6-130.8c0-1.4,0.1-2.8,0.2-4.2c0.1-1.4,0.9-2,2.3-1.8c0.5,0.1,0.9,0.1,1.4,0.2 c7.2,2,14.6,2.5,22.1,2.2c1.6-0.1,3.3-0.1,4.9,0c2.3,0.1,3,0.7,3.2,2.7c0.2,2.5,0.4,5.1,0.4,7.6c0.2,7.4,0.2,14.8,0.4,22.3 c0.8,29.5,1.6,58.9,2.4,88.4c0.7,26,1.3,52,1.9,77.9c0.4,14.1,0.8,28.3,1.2,42.4C457.9,823.4,458,825.5,457.9,827.5z M552.8,811.4 c-23.6,7.9-47.7,13.7-72.3,16.8c-5.3,0.7-10.6,1.4-15.9,2c-2.9,0.3-3.9-0.5-4.1-3.2c-0.1-0.9-0.1-1.9-0.1-2.8 c-0.4-17.4-0.7-34.8-1.1-52.2c-0.7-34.3-1.4-68.7-2.2-103c-0.5-24.6-1.1-49.2-1.6-73.8c0-2.3,0-4.6,0-7.4c2.7,0.8,3.4,2.6,4.5,4.1 c11.8,16.1,26.6,28.3,44.7,36.7c4.4,2,8.9,4,13.2,6.2c1.9,1,3.4,1,5.1-0.4c2.8-2.4,5.8-4.7,8.5-7.1c1.4-1.3,2.8-1.5,4.4-0.7 c3.8,1.7,7.5,3.4,11.1,5c2-1.2,2.4-2.8,3.1-4.2c9-18.2,14.8-37.4,18.3-57.4c2.8-16.1,3.1-32.3,2.5-48.6c-0.4-12.8-2.3-25.4-5-37.9 c-0.4-1.7,0.7-2.6,2.4-2.1c5.3,1.8,9.2,5.2,12,10c2.7,4.7,4.4,9.7,5.4,15c1.8,8.9,2.9,17.8,3.1,26.9c0.3,16.5,0.7,32.9,1.1,49.4 c0.4,19.7-0.4,39.5-1.5,59.2c-1.6,26.6-4.5,53.1-8.9,79.5c-4.5,27-10.2,53.8-17.2,80.2C560.1,809.9,562.2,808.3,552.8,811.4z M637.7,771.7c-21.8,13.4-44.6,24.7-68.5,33.8c-0.6,0.2-1.3,0.5-2,0.7c-1.4,0.4-2.4-0.2-2.1-1.6c0.3-1.6,0.6-3.2,1-4.7 c5.1-19.8,9.7-39.6,13.5-59.7c3.4-18.2,6.3-36.5,8.5-55c2.8-23.5,4.8-47.1,5.2-70.7c0.3-20.6,0.1-41.3,0.1-61.9c0-2-0.4-4.1,0.4-6.1 c2.5,0,3.9,1.7,5.5,2.9c17.8,13,35.1,26.6,52.4,40.3c8.6,6.8,17,13.6,25.6,20.4c0.9,0.7,1.8,1.5,2.7,2.1c1.8,1.3,1.9,2.9,1.5,4.9 c-3.4,17-6.7,34.1-10.5,51c-5.6,24.9-11.8,49.6-19.6,73.9c-2.6,7.9-5.7,15.7-8.5,23.5C642,768.3,640.2,770.2,637.7,771.7z M805.9,565.7c-0.4,1.3-1,2.6-1.4,3.9c-16.6,43.5-39.9,83.1-70,118.6c-22.2,26.1-47.2,49.2-75.1,69c-2.3,1.6-4.6,3.1-6.9,4.6 c-0.5,0.3-1.1,0.8-1.5,0.2c-0.4-0.5-0.1-1.1,0.3-1.6c3.7-11.5,7.5-22.9,11-34.5c8.3-27.8,14.8-56,20.5-84.4c1.7-8.4,3.2-16.9,5-25.2 c0.7-3.4,0-5.6-2.8-7.8c-7.9-6.1-15.6-12.4-23.4-18.7c-1.8-1.4-3.5-2.9-5.2-4.3c0.2-2,1.9-2.1,3-2.5c5.2-2,10.4-3.9,15.7-5.7 c1.3-0.5,2.6-0.9,3.7-2c0.6-1.6-0.4-3-1-4.5c-8.9-22.2-21.1-42.3-37.5-59.8c-0.8-0.8-1.4-1.8-2.1-2.7c-0.7-0.4-1.9-0.9-1.1-1.8 c0.6-0.7,1.7-0.2,2.4,0.6c8.6,2.1,16.7,5.4,25,8.2c25.2,8.6,50.3,17.5,75.4,26.1c20.8,7.1,41.5,14.4,62.8,19.8 c0.4,0.1,0.9,0.3,1.3,0.4C806.5,562.5,806.8,563,805.9,565.7z M829.9,448.9c-1.8,35.2-8.3,69.5-19.2,103c-0.3,0.9-0.5,1.8-0.8,2.7 c-0.5,1.2-1.5,1.8-2.7,1.6c-2-0.4-4.1-0.8-6.1-1.3c-18.9-4.9-37.2-11.4-55.6-17.7c-39-13.3-78-26.8-117-40.2 c-3.8-1.3-7.2-3-10.4-5.5c-4-3.2-22.9-20.3-26.4-24.1c-10-11.2-22.1-19.8-35.4-26.6c-3.2-1.6-5.5-3.7-7.6-6.7 c-3-4.4-4.4-8.8-4.2-14.1c0.3-8.3,0.2-16.7-0.9-25c-0.3-2.3,0-4.5,1-6.8c8.7-19.9,13.6-40.9,18-62c0.1-0.7,0.2-1.4,0.3-2.1 c0.5-3.8,1.9-6.3,6.3-6.9c2.9-0.4,5.8-1.6,8.5-2.8c9.7-4.2,16.1-11.5,19.7-21.4c2.6-7,3.6-14.4,4.2-21.8c0.2-3.2,0.5-6.5,1-9.7 c1-6.4,1.2-13,0.5-19.4c-1.1-10.3-5.7-18.9-14.9-23.8c-5.6-2.9-7-6.8-7.5-12.6c-2.1-27.1-4.5-54.1-8.5-81 c-0.9-6.2-2.2-12.3-3.5-18.5c-0.9-4.1-1.2-8.2-0.9-12.4c0.3-4.3,1.8-8.1,5.3-10.9c0.9-0.7,2-1.3,1.9-2.7c-1.7-1.3-3.7,0-5.3-0.7 c-0.6-0.5-0.6-1.2-0.4-1.9c1.8-5.1,2.7-10.3,2.4-15.7c-0.1-1.1-0.1-2.3-1.3-3c-1.8,0.9-2.4,2.8-3.5,4.2c-0.9,1.1-2.1,1.9-3.4,2.2 c-3.9,0.8-10-3.4-10.4-7.3c-0.4-4.4-0.2-8.8,1.4-13.1c0.6-1.6,1.6-2.1,3.2-1.7c2.2,0.6,4.5,1.3,6.6,2.1c30,11,58.4,25.1,84.9,42.9 c54.4,36.4,97.9,82.9,130.1,140c14,24.8,24.9,50.8,33.4,77.9c7.6,24.2,12.7,48.9,15.5,74.1C830.6,403,831.1,425.9,829.9,448.9z"></path> <path class="st0" d="M480.6,314.1c-10.6-4.3-21.5-5.5-32.4-0.4c-0.8,0.4-1.7,0.7-2.5,1.1c-5.1,2.4-10.5,3.3-16.2,2.7 c-9-1-18-1.2-27-0.2c-3.7,0.8-7.4,1.5-11.1,2.3c-0.9,0.9-2,1-3.1,1.1c-2.5,1.6-5.1,3.1-7.6,4.7c-10.5,6.8-15,16.7-14.7,28.9 c0.2,8.7,2.6,16.9,6.7,24.6c6.5,12.1,15.8,21.1,29.3,25.1c8.3,2.4,16.8,3,25.5,2.4c3.7-0.2,7.4-0.4,11.1-0.6 c2.7-1.1,5.5-1.6,8.4-1.3c2-0.5,4-1,6.1-1.4c12.9-2.5,23.9-8.2,32-18.9c4-6.3,7-13,8.6-20.4c1.8-7.9,3-16,3.2-24.1 C497.1,326.4,491,318.3,480.6,314.1z M494.1,345.4c-0.5,7.6-1.7,15.2-3.9,22.5c-4.8,16.6-15.6,27.2-32,31.7 c-15.1,4.1-30.5,5.8-46.1,4.3c-12.4-1.2-23.1-6.4-31.2-16.3c-7.7-9.4-12.3-20.3-12.9-32.4c-0.5-10.7,2.8-20,12-26.7 c7.5-5.5,15.8-8.7,25.1-9.1c5.1-0.2,10.2,0,15.3,0c0,0,0-0.1,0-0.1c1.2,0,2.3-0.1,3.5,0c9.7,1.2,18.7-0.3,27.7-4.4 c11.3-5.1,22.3-2.2,32.6,3.5c6,3.3,9.1,9.1,10,15.9C494.6,338,494.4,341.7,494.1,345.4z"></path> <path class="st0" d="M376.7,189.9c7.3,0.2,14.2,2.2,20,6.9c3.5,2.9,7,3.2,11.9,0.1c-2.1-0.2-3-0.4-3.9-0.3c-3.5,0.2-4.6-1.8-3.8-4.8 c0.6-2.5,1-5,1.4-7.5c0.7-4.6,0.5-5.2-3.8-6.7c-5.4-2-11-3.8-16.5-5.4c-6.7-2-13.6-3.1-20.6-3.3c-18.3-0.5-34,6-47.6,17.9 c-0.3,0.3-0.6,0.7-0.9,1.1c-0.5,0.7-0.2,1.5,0.5,1.6c1.6,0.3,3.2,0.4,4.8,0.4c12.5,0,25.1-0.1,37.6-0.1 C362.8,189.8,369.8,189.7,376.7,189.9z M326.4,186.3c-0.9,0-2,0-2.4-0.9c-0.6-1.5,0.9-1.9,1.7-2.5c9.4-6.1,19.5-9.5,30.7-9.7 c1.2,0,2.3,0,3.5,0c12.5,0.1,24.3,3.4,35.9,7.6c1.8,0.6,2.6,1.8,2.2,3.8c-0.1,0.7-0.2,1.4-0.2,2.1c-0.7,5.6-2.1,4.5-5.2,3 c-6-2.8-12.3-4-18.9-4.2c-10.4-0.2-20.9,0.1-31.3,0.7C337.1,186.4,331.8,186.2,326.4,186.3z"></path> <path class="st0" d="M539.2,179.9c-2.6-1.9-5.2-3.9-8-5.6c-8.9-5.2-18.6-6.8-28.8-6.3c-9.8,0.5-19.2,2.8-28.7,5 c-2.9,0.7-5,2.2-6.9,4.4c-4.7,5.5-8.6,11.5-11.9,17.9c-1.8,3.5-1.8,3.5-5.8,4.6c0.5,1.2,1.7,1.4,2.6,2c0.3,0.2,0.9,0.3,1.3,0.1 c0.9-0.3,1.8-0.6,2.5-1.1c5-3.6,10.8-5.2,16.6-6.8c15.3-4.1,30.9-6.1,46.7-7c8.1-0.5,16.2-0.7,24.3-0.2c0.9,0.1,2,0.1,2.1-1.1 c0-0.6-0.4-1.3-0.9-1.7C542.8,182.7,541,181.2,539.2,179.9z M510.8,183.8c-14.8,1.2-29.4,3.4-43.7,7.7c-1.1,0.3-2.2,0.6-3.3,0.8 c-0.4,0.1-1-0.1-1.3-0.4c-0.2-0.3-0.3-0.9-0.2-1.2c2.2-4.6,5.4-8.6,9-12.2c0.8-0.8,2-1.2,3-1.5c11.2-2.9,22.4-5.7,34.2-5.2 c8.3,0.3,15.9,2.7,22.9,7.2c0.9,0.6,2,1.2,2.6,3.1C526,182.7,518.4,183.2,510.8,183.8z"></path> <path class="st0" d="M478.4,225c0.4,0.3,0.8,0.6,1.5,0.7c0.3,0,0.7,0.1,1,0.2c-0.1-0.1-0.3-0.1-0.4-0.2 C479.8,225.1,479.1,224.9,478.4,225z"></path> <path class="st0" d="M477.4,223.8c-0.4-0.6-1.3-0.3-1.8,0.2c-0.2,0.1-0.3,0.4-0.3,0.6c0.1,0.9,0.7,1.1,1.4,0.9 c0.6-0.2,1.2-0.4,1.8-0.4C478,224.7,477.7,224.3,477.4,223.8z"></path> <path class="st0" d="M482,202.7c-0.2,1.2,0.7,1.4,1.7,1.4c1.8,0,3.7,0.2,5.5,0c0.5,0,0.9-0.1,1.4-0.1c-2.3-0.6-4.7-1.3-7-1.9 C482.9,202,482.1,201.7,482,202.7z"></path> <path class="st0" d="M517.1,213.6c-5.7,0.3-10.8-2-16.2-3.4c-0.6-0.2-1.2-0.7-1.7-1.1c-0.7-0.5-0.7-1.2-0.5-1.8 c0.1-0.3,0.6-0.7,1-0.8c2.5-0.6,4.9,0.2,7.4,0.7c-5.3-1.9-10.7-3.4-16.4-3.2c1.6,0.4,3.2,0.9,4.8,1.3c0.2,0.1,0.4,0.2,0.6,0.4 c0.8,0.5-0.2-0.2,0.1,0.7c0.2,0.5,0.1,0.8-0.5,1.1c-1.4,0.7-2.7,0.2-4.1-0.1c-3-0.5-5.9-1-9-0.5c-8.2,1.2-15.7,0.9-23.3,4.7 c-0.6,0.3,5.4,0.2,8.4,0.3c2.1-2.2,5.1-2.2,7.7-2.5c7.4-0.8,14.8-1,22,1.6c3.9,1.4,8,2.4,12.2,2.6c1.5,0.1,3,0.9,5.5,1.6 c-6.4,2.4-11.9,2.1-17.3,1.4c-6-0.8-11.9-1.9-17.8-2.9c-4.1-0.7-8-1.8-12.2-1.8c2.6,2.2,5.7,2.7,8.7,3.8c1.1,0.4,2.8,0.5,3.1,1.3 c1.4,2.9,4.3,4.1,6.2,6.4c0.6,0.7,0.3,2-0.6,2.3c-0.8,0.2-1.5,0.4-2.3,0.5c1.7,0.4,3.3,0.9,5,1.4c3.5,1.1,6.8,0.7,10.3,0.7 c2,0,3.9,0.5,5.9,0.4c-0.2-0.2-0.4-0.3-0.6-0.5c-0.7-0.6-0.8-1.8-0.1-2.5c2.7-2.5,5.3-5.1,8.3-7.3c2.6-1.9,5.6-3,8.3-4.6 C519,213.7,518.1,213.6,517.1,213.6z M489.3,225.8c-0.1,0-0.3-0.3-0.4-0.5c0.2-0.1,0.3-0.4,0.5-0.4c0.1,0,0.3,0.3,0.4,0.5 C489.6,225.6,489.4,225.8,489.3,225.8z M495.7,226.2c-0.1,0.5-1,0.7-1.5,1c-0.2,0.1-0.4,0-1.3,0c-0.2-0.1-1.2-0.1-1.9-0.6 c-0.4-0.3-0.6-1.2-0.4-1.7c0.2-0.6,0.9-1.4,1.3-1.4c1.1,0.1,2.2,0.5,3.1,1C495.4,224.9,495.8,225.8,495.7,226.2z M499.8,228.3 c-2.1,0-3.4-1.1-3.1-2.8c0.1-0.7,0.5-1.3,1.2-1.4c1.7-0.2,3.4,1,3.4,2.5C501.4,227.6,500.7,228.2,499.8,228.3z"></path> <path class="st0" d="M482.9,226.2c-0.6-0.2-1.3-0.3-1.9-0.4C481.6,226.2,482.2,226.3,482.9,226.2z"></path> <path class="st0" d="M509.8,230.7c0.4-0.7,0.3-1.8,0-2.6c-0.1-0.4-1.4-0.8-1.8-0.6c-1.3,0.9-2.7,1.2-4.1,1.3 c1.1,0.9,2.2,1.6,3.4,2.3C508.2,231.6,509.4,231.5,509.8,230.7z"></path> <path class="st0" d="M526.4,210.4c-1.1,0.1-2.5,0.3-3.2,1c-1,1-2,1.8-3.2,2.4c1.1,0.2,2.1,0.6,3.1,1.3c1.4,0.9,3.1,1,4.6,0.1 c1.2-0.6,1.4-1.7,1.1-3C528.5,210.9,527.6,210.3,526.4,210.4z"></path> <path class="st0" d="M399.1,279c-1.3,1.5-2.8,1.3-4.1-0.2c-2.8-3.2-3.2-7.2-2.9-11.1c0.3-4.6,0.8-9.2,2.4-13.6l-0.2,0.2 c-0.4,0.1-0.9,0.3-1.3,0.4c-0.8,2.6-1.6,5.3-2.4,7.9c-0.4,1.3-0.7,2.7-1.1,4c0.1,2.5-0.2,5,0.2,7.4c0.9,5.3,3.2,9.4,9.2,10.1 c1-1,1.9-2,2.9-3c3.9-4,8.3-4.7,13.1-1.7c2.1,1.3,3.9,3.2,5.8,4.9c1.9,1.7,3.7,3.5,5.8,5c3.6,2.7,7.4,2.5,11,0.1 c2.1-1.4,3.9-3.2,5.8-5c1.4-1.3,2.5-2.8,3.9-4c3.4-3,7.2-4,11.5-2.3c1.3,0.5,2.5,1.1,3.9,1.5c4.3,1.3,8.1-0.3,9.4-4.7 c2.3-7.7,2.1-15.4-2.5-22.4c-0.5,2,0,3.9,0.4,5.9c0.7,3.9,0.5,7.8-0.5,11.7c-1.5,5.8-2.9,6.8-8.1,3.8c-6.7-3.8-15-1-19,4.9 c-1.1,1.5-2.1,3.1-3.2,4.6c-4.9,6.5-8.3,6.5-13.9,0.5c-2.2-2.4-4.3-4.9-6.8-7c-4.1-3.4-8.8-3.9-13.8-2.2 C402.1,275.4,400.7,277.3,399.1,279z"></path> <path class="st0" d="M469.2,252.4c0,0,0.1,0.1,0.1,0.1c0-0.1,0-0.2,0.1-0.3L469.2,252.4z"></path> <path class="st0" d="M365.1,227.1c2.9-0.2,5.2-1.6,7.8-2.2c1.7-0.4,2.4-2,3.3-3.4c0.6-0.9,1.8-1.4,2.8-1.9c1.6-0.8,3.4-1.2,4.3-3 c-0.6-0.7-1.3-0.7-1.9-0.5c-11,3.5-22.3,3.2-33.7,2.4c-0.9-0.1-1.8-0.3-2.6-0.7c-0.3-0.1-0.3-0.7-0.4-1.1c0,0,0.4-0.2,0.6-0.3 c0.8-0.4,2.3,0.3,2.3-1.6c-3.5-0.6-7-0.2-10.4,0.4c-2.2,0.4-4.6,1-6.6-0.9c0,0,0.1,0.1,0.1,0.1c-0.5,1.6,0.1,2.8,1.7,3.1 c1.6,0.3,3.2,0,4.8,0.2c3.7,0.6,7.4,1.6,9.5,4.8c2.1,3.2,5.5,3,8.3,4.4C358.3,225.7,361.7,227.3,365.1,227.1z"></path> <path class="st0" d="M474.8,256.8c1.5,2.3,2.9,4.7,4.5,7c3.1,4.6,6.2,9.2,9.2,13.9c7.3,11.4,12.5,23.8,14.9,37.2 c0.9,5,1.6,9.9,2.4,14.9c1.8-13-0.5-25.4-5.3-37.4C494.9,278.3,485.6,266.8,474.8,256.8z"></path> <path class="st0" d="M355.3,328.9c0.4-0.4,0.9-0.8,1-1.2c0.1-0.3,0.2-0.7,0.2-1C355.9,327.2,355.4,327.9,355.3,328.9z"></path> <path class="st0" d="M355.1,329.1c-0.4,0-0.8,0-0.9,0.2c-0.4,0.7,0,1.3,0.6,1.6c0.9,0.5,2,0.3,2.2-0.6 C357.2,329.3,356.1,329,355.1,329.1c0.1,0,0.2,0,0.2,0c0-0.1,0-0.1,0-0.2C355.3,329,355.2,329,355.1,329.1z"></path> <path class="st0" d="M371.3,290.8c0.9-3.1,1.7-6.3,3.3-9.1c0.8-4.1,2.7-7.8,4.6-11.5c0.5-1.2,1-2.4,0.6-3.8 c-0.6,0.5-1.1,0.9-1.7,1.4c-2.5,4.7-4.9,9.3-7.4,14c-0.4,0.9-0.8,1.9-1.2,2.8c-1,2.5-2.1,5-3.1,7.4c-3.4,11.5-7.2,22.8-9.9,34.5 c0.9-0.8,2-1.5,2.4-2.8c0.7-2.4,1.8-4.7,2.8-7.1c0.3-0.6,0.5-1.3,0.8-1.9c0.6-1.5,1.2-3,1.7-4.5c0.7-2.7,1.4-5.4,3-7.8 C368,298.4,369.7,294.6,371.3,290.8z"></path> <path class="st0" d="M379.8,266.3c0,0.1,0,0.2,0.1,0.2c0,0,0.1-0.1,0.1-0.1L379.8,266.3z"></path> <path class="st0" d="M393.6,207.4c0.1-0.1-0.3-1-0.4-1c-1.2,0.2-2.5,0.4-3.7,0.6c1.2,0.2,2.5,0.5,3.7,0.9 C394.1,208.2,392.8,207.9,393.6,207.4z"></path> <path class="st0" d="M376.1,207.4c-10.3,1.4-20.6,3.2-30.7,3.1c-1.6,0.1-2.8,0.1-3.9,0.2c-1,0.1-2.1,0.2-3.1,0.3 c3.2,1.1,6.7,0.9,10.1,0.9c7.7,0,15.3-0.9,22.8-2.1c6.1-1,12.1-1.9,18.2-2.9C385.1,206.2,380.6,206.8,376.1,207.4z"></path> <path class="st0" d="M335.1,209.6c-0.7-0.1-1.4-0.1-1.8,0.7c-0.1,0.2,0,0.6,0.1,0.7c0.4,0.2,0.8,0.6,1.2,0.5 c1.3-0.1,2.5-0.2,3.8-0.4c-0.9-0.3-1.8-0.8-2.7-1.3C335.6,209.6,335.3,209.6,335.1,209.6z"></path> <path class="st0" d="M316.2,172.5c-1.5-0.2-2,1.1-2.6,1.9c-6.9,10.3-12.6,25.9-9.3,40.6c0.2-2.4,0.3-4.5,0.4-6.6 C305.5,195.4,309.6,183.5,316.2,172.5C316.3,172.4,316.2,172.5,316.2,172.5z"></path> <path class="st0" d="M404.8,214.3c-1.7-1.8-4-0.2-5.8-1.3c-1.7-1.1-3.4-2.3-5.2-2.4C398.3,214.2,398,215.8,404.8,214.3z"></path> <path class="st0" d="M453.9,220.5c0.1-0.2,0.1-0.5,0-0.6c-0.3-0.4-0.8-0.5-1.1,0c-0.6,1.1-2.2,1.7-1.5,3.4 C452.7,222.8,453.4,221.7,453.9,220.5z"></path> <path class="st0" d="M324.4,212c0.7,0.4,1.4,0.8,2.1,1.3c1.2,0.9,2.4,1.7,4,1.1c-1.7-1.5-4.4-0.7-6-2.5L324.4,212z"></path> <path class="st0" d="M330.6,214.4C330.6,214.4,330.6,214.5,330.6,214.4C330.7,214.5,330.6,214.4,330.6,214.4 C330.6,214.4,330.6,214.4,330.6,214.4z"></path> <path class="st0" d="M324.4,212c0,0,0.2-0.2,0.2-0.2c-0.1,0-0.2,0-0.3,0C324.3,211.9,324.4,212,324.4,212z"></path> <path class="st0" d="M323.6,211.1c-0.3-0.2-0.7-0.1-1.1-0.1c0.3,0.3,0.5,0.6,0.8,0.7c0.3,0.1,0.6,0.1,0.9,0.2 C324.1,211.6,323.9,211.2,323.6,211.1z"></path> <path class="st0" d="M317.6,168.9c-1.3,0.8-1.4,2.1-1.3,3.5C317.2,171.4,318.3,170.5,317.6,168.9z"></path> <path class="st0" d="M317.7,168.8C317.7,168.8,317.7,168.8,317.7,168.8c-0.1,0-0.1,0-0.2,0c0,0,0,0,0,0.1 C317.6,168.8,317.7,168.8,317.7,168.8L317.7,168.8z"></path> <path class="st0" d="M316.3,172.4C316.2,172.4,316.2,172.4,316.3,172.4C316.2,172.5,316.3,172.4,316.3,172.4 C316.3,172.4,316.3,172.4,316.3,172.4z"></path> <path class="st0" d="M394.4,254c0,0-0.1,0.1-0.1,0.1C394.3,254.1,394.4,254,394.4,254C394.4,254,394.4,254,394.4,254z"></path> <path class="st0" d="M394,253.2c-0.1,0-0.4,0.1-0.4,0.2c0,0.5,0.3,0.7,0.8,0.5C394.6,253.7,394.5,253.4,394,253.2z"></path> <path class="st0" d="M468.3,251.9c0.1,0.2,0.5,0.2,0.9,0.3c-0.1-0.4-0.2-0.7-0.4-0.9C468.4,251,468,251.4,468.3,251.9z"></path> <path class="st0" d="M469.2,252.4c0,0,0.1-0.1,0.1-0.1c-0.1,0-0.1,0-0.2,0C469.2,252.3,469.2,252.3,469.2,252.4z"></path> <path class="st0" d="M317.7,168.2c0,0-0.3,0.1-0.3,0.3c0,0,0,0,0,0c0.1,0,0.3,0,0.4,0.2C318,168.7,318,168.5,317.7,168.2z"></path> <path class="st0" d="M317.3,168.5C317.1,168.6,317,169,317.3,168.5L317.3,168.5z"></path> <path class="st0" d="M653.4,638.7c1.3-0.2,2.1-0.9,2.4-2.3c-0.2-0.5-0.2-1.3-0.6-1.8c-0.7-0.9-1.6-1.6-2.5-2.3 c-7.6-5.9-15.3-11.8-23-17.7c-0.9-0.7-1.9-1.3-2.9-1.8c-1.2-0.5-2.3-0.2-3.1,0.8c-0.7,1-0.8,2.2-0.1,3.2c0.4,0.6,0.9,1.1,1.4,1.5 c8.4,6.5,16.8,12.9,25.2,19.4C651.2,638.3,652.2,638.8,653.4,638.7z"></path> <path class="st0" d="M204.2,736.9c-0.7,0.7-1,1.6-0.2,2.4c0.4,0.4,1.2,0.4,1.9,0.4c0.8,0,1.1-0.8,1.1-1.4c0-1.1-0.1-2.2-0.2-3.3 C205.5,735.1,205,736.2,204.2,736.9z"></path> <path class="st0" d="M206.7,734.9C206.7,734.9,206.7,734.9,206.7,734.9c0,0,0.1,0,0.1,0C206.8,734.9,206.7,734.9,206.7,734.9z"></path> <path class="st0" d="M382.7,262.3C382.7,262.3,382.6,262.3,382.7,262.3c-1,1.2-2.3,2.2-2.7,3.9C381.7,265.5,381.5,263.4,382.7,262.3 z"></path> <path class="st0" d="M379.8,266.3c0,0,0.2,0.2,0.2,0.2c0-0.1,0-0.2,0.1-0.2C379.9,266.2,379.8,266.2,379.8,266.3z"></path> <path class="st0" d="M430.8,330.5c0.1-0.2,0.3-0.4,0.4-0.6c-1.6,0.3-3-0.3-4.3-1.8c0,0,0,0,0,0c0.7,0.9,1.3,1.9,2.1,2.6 C429.5,331.2,430.3,331.1,430.8,330.5z"></path> <path class="st0" d="M456.3,324.2c0.7-0.4,1.5-0.8,2.2-1.2c0,0-0.1-0.1-0.1-0.1c-1.2,0.4-2.4,0.7-3.1,0.9 C455.4,324.4,455.8,324.5,456.3,324.2z"></path> <path class="st0" d="M484.2,339.5c1.6-7.6-1.3-13-8.4-16.5c-7.7-3.9-15.7-5.5-24-1.6c-1.3,0.6-2.6,1.1-3.9,1.5 c-6.6,2.1-13.3,4-20.4,2.5c-2.5-0.5-5.1-0.3-7.6-0.4c-5.1-0.3-10.2,0.5-15.2,1.3c-7.8,1.1-14.5,4.5-20.1,10.2 c-1.8,1.9-3.6,3.8-4.2,6.3c-0.7,3.1-2.3,5.5-3.9,8.1c-0.6,1-1,2.1-1.6,3.1c-1.2,2.5-1.1,4.9,0.7,7.2c0.9,1.1,1.7,2.2,2.7,3.2 c3.6,3.6,6.6,7.7,9.7,11.8c2.5,3.4,5.1,6.6,7.9,9.7c4.1,4.5,8.7,8.4,14.1,11.2c8.4,4.5,17.1,5.5,26.1,2.3c4.2-1.5,8.1-3.4,11.9-5.6 c13.4-7.8,24.2-18.7,34.7-29.8c3.4-3.6,4.6-8.2,2.4-12.9C483.3,347,483.3,343.5,484.2,339.5z M479.9,360.8 c-11.5,12.2-23.2,24.1-38.3,31.9c-2.5,1.3-5.1,2.2-7.7,3.1c-6.7,2.3-13.2,1.7-19.6-1.2c-4.7-2.1-8.9-5-12.5-8.7 c-3-2.9-5.8-6-8.4-9.3c-4.3-5.5-8.2-11.2-13.1-16.2c-2.7-2.7-2.6-4-0.7-7.4c2.4-4.2,5.8-7.2,10.4-8.9c3.3-1.2,6.6-2.3,10.1-2.3 c3.9-0.1,7.9,0,11.8,0c0-0.1,0-0.3,0-0.4c4.9,0.3,9.7,0.5,14.6,1.1c3.6,0.4,4,1.1,3.5,4.4c-0.1,1.1-0.5,2.3-0.7,3.4 c-0.4,2.3-0.5,4.6,1.1,6.6c0.5,0.7,0.7,1.7,0.8,2.6c0.2,1.7-0.7-8.8,0.5-13.1c0.6-2.3,1.9-3.7,4.2-4.1c9.8-1.8,19.6-4,29.6-1.8 c3.9,0.8,7.5,2.2,10.7,4.7c2.1,1.6,3.7,3.6,4.7,6C482.3,354.4,482.5,358,479.9,360.8z M482.1,336.7c-0.3,1.8-0.1,4.3-1.2,5.2 c-1.7,1.5-3.1-1.1-4.6-1.9c-4.8-2.6-9.8-4.1-15.2-4.4c-7.2-0.4-14.4-0.2-21.4,1.7c-6.2,1.7-12.4,1.2-18.6,0.5 c-8.5-1-17.1-1.2-25.6,0.5c-3.4,0.7-6.6,2.1-9.9,3.1c-0.4,0.1-1,0-1.2-0.3c-0.2-0.2-0.3-1-0.1-1.2c3-3.4,5.5-7.5,11-7.3 c0.8,0,1.9,0,2.4-1c1.4-2.7,4-3,6.6-2.9c2.5,0.1,4.7-2.1,7.2-0.8c2.5,1.3,4.7-0.6,7.1-0.6c2.8,0.1,5.5,0.1,8.2,0.6c0,0,0,0,0.1,0 c0,0,0,0,0,0c0,0,0,0,0,0c1.1-0.1,2.2-0.2,3.4-0.2c0.9,0,1.1,0.7,1.1,1.4c0,0.2-0.1,0.4-0.2,0.6c0.7-0.1,1.4-0.4,2.1-0.8 c3.7-2.1,8-1.7,12-2.6c2.2-0.5,3.3-1.6,5.5-2.6c0.6-0.3,1.3-0.4,2-0.5c0.6,0,1.5,0,1.8,0.3c0.1,0.1,0.3,0,0.8-0.1c0,0,0,0,0,0 c0-0.3,0-0.9,0.3-1c0.7-0.6,1.5-0.7,2.4-0.3c0.2,0.1,0.3,0.3,0.5,0.5c2.2-0.7,4.5-1.4,4.9-1.4c1.8,0.2,3.6,0.7,5.5,0.9 c1.7,0.3,2.3,2.2,3.6,2.7c1.1,0.5,2.6-0.1,4,0.6c3.2,1.4,0.3,4.2,1.4,5.5c1.1,1.3,4.4,0,4.3,3.3C481.9,335.3,482.2,336,482.1,336.7z "></path> </svg> 