<?xml version="1.0" encoding="UTF-8"?> <svg xmlns="http://www.w3.org/2000/svg" xmlns:xlink="http://www.w3.org/1999/xlink" version="1.1" id="Calque_1" x="0px" y="0px" viewBox="0 0 850.4 850.4" style="enable-background:new 0 0 850.4 850.4;" xml:space="preserve"> <style type="text/css"> .st0{fill:#B49F71;} </style> <path class="st0" d="M810.8,287.3c-15.4-42.8-37.8-82.6-66.5-118.2c-28.5-35.3-62.3-65.4-100.6-89.5c-39-24.6-81.5-42.3-126.3-52.5 c-29.8-6.8-60.6-10.3-91.5-10.3c-55.2,0-108.8,10.8-159.2,32.1c-48.7,20.6-92.4,50.1-130,87.7c-37.6,37.6-67.1,81.3-87.7,130 c-21.3,50.4-32.1,104-32.1,159.2S27.6,534.6,48.9,585c20.6,48.7,50.1,92.4,87.7,130c37.6,37.6,81.3,67.1,130,87.7 c50.4,21.3,104,32.1,159.2,32.1S534.6,824,585,802.7c48.7-20.6,92.4-50.1,130-87.7c37.6-37.6,67.1-81.3,87.7-130 c21.3-50.4,32.1-104,32.1-159.2C834.8,378.3,826.8,331.7,810.8,287.3z M740.3,172.3c28.4,35.1,50.5,74.4,65.7,116.7 c15.8,43.8,23.7,89.8,23.7,136.8c0,48.5-8.5,95.7-25.1,140.5c-1-0.3-2-0.5-2.9-0.8c-2.6-0.7-5-1.3-7.5-2.5 c-14.6-7.3-67.8-28-167.3-65c-23.3-19.8-51.9-44.3-72.9-63.6c-3-15.7-7.3-27.3-12.3-32.6l2.4-31.3c7.7-25.2,7.9-53.3,6.8-78.6 c2.4,0.8,4.7,1.2,6.9,1.2c2.2,0,4.3-0.4,6.3-1.2c9.5-3.8,14.4-15.8,18-24.6c1.1-2.7,2.1-5.1,3-6.9c5.7-10.6,12.7-44.5,10.5-68 c-0.9-9.5-3.6-15-8.4-17c-5.3-2.2-12.6,0.4-22.8,8c3.5-23.1,5.2-44.6,4.8-69.1l0-0.2c-2.3-30.3-6.5-54.1-12.5-70.7 c29.5,10.1,57.7,23.6,84.3,40.3C678.8,107.7,712.2,137.5,740.3,172.3z M282.8,114.6c0.5-7,1.2-13.7,1.9-20 c7.2-6.1,17.7-12.5,29.2-17.3l-4.3,63.7l-17.1,27.1l-0.1,0.1l6.5,66.3c-2-8-3.9-15-5.7-21.5C285.4,184.3,280.1,165.3,282.8,114.6z M564,114.5c0.7,43.8-5.5,78.1-16.2,129.3l7.4-75.4l0-0.1L538.1,141l-4.4-65.4c7.9,4.5,17.2,11,28.6,19.9 C562.9,101.5,563.5,107.8,564,114.5z M549.7,272.1c-0.2-3.4-0.4-6.7-0.6-10c2.1-9.9,4-19.1,5.8-27.9c1.5,8.7,0.1,12.7-1.4,16.9 c-0.4,1.2-0.9,2.5-1.3,3.9c-1.5,5.3,0.6,18.7,5.7,24.8c1.7,2,3.7,3.1,5.8,3.1c0.2,0,0.5,0,0.8,0c2.8-0.3,4.9-0.8,6.7-1.5 c-2.3,3.4-5.1,6.1-8.5,7.5c-3.6,1.4-7.6,1.3-12.1-0.5C550.4,282.7,550.1,277.3,549.7,272.1z M574.8,199.1c0.2,0.7,0.4,1.5,0.6,2.3 c4.5,16.3,11.3,41-3.7,55.5c-0.3,0.3-0.3,0.3-1.5-0.5c-0.7-0.4-1.5-1-2.5-1.5c11.3-13.3,6.3-30.2-0.3-45.1 C569.6,207,572.2,203.5,574.8,199.1z M566.7,210.5c6.4,14.7,11.2,31.2,0.1,44c-2.5-1-6.4-1.6-12.4-0.4c0.3-0.8,0.5-1.6,0.8-2.4 c1.7-4.9,3.4-9.4,1-20.3c-0.1-0.5-0.2-1.1-0.3-1.5c0.6-3,1.2-5.9,1.8-8.8c1.1-1.7,2.7-3.4,4.6-5.5 C563.6,214.1,565.1,212.5,566.7,210.5z M578.9,266c-1.5,3.7-3.3,7.9-5.4,11.8c-2,2-4.6,2.8-9,3.3c-1.8,0.2-3.5-0.6-5-2.4 c-4.6-5.4-6.6-17.6-5.5-22.7c9.5-2.1,13.3,0.5,15.3,1.9c0.7,0.5,1.5,1,2.3,1c0.5,0,1-0.2,1.4-0.7c15.8-15.2,8.8-40.5,4.2-57.2 c-0.4-1.3-0.7-2.6-1.1-3.9c3.6-6.2,6.9-9.3,9.1-8.6c3.4,1,6.6,10.8,5.8,34.7c-2,15.2-5.7,29.5-8.9,35.6 C581,260.7,580,263.2,578.9,266z M592.5,205.8c-0.7-9.6-2.6-17.7-6.8-18.9c-3.3-1-7,2.2-11.3,9.7c-5.1,8.8-9.7,13.8-13.4,17.8 c-1,1-1.8,2-2.6,2.9c2-10.1,3.7-19.7,5.2-29c10.5-8.4,17.8-11.6,22.2-9.8c3.4,1.4,5.6,6.2,6.3,14.2 C592.5,196.8,592.6,201.2,592.5,205.8z M537.2,141.2l0,0.1l17.1,27.2l-8.2,83c-0.7,3.2-1.4,6.5-2.1,9.9l1.7,0.4l-1.7,0 c0,0.6-4.5,55.4-45.4,88.5c-3.2-16.3-14.1-26.7-33-31.9c-11.1-3-24-3.9-36.9-4c2.9-0.5,5.6-1.8,8-4c2.5-2,4.4-4.7,7.2-6.1 c2.6-1,7.4-0.9,4.7,3c1.7-1.1,2.1-3.5,0-4.4c-1.7-0.7-3.5-0.5-5.2,0.1c-4.9,2.5-7.3,8.2-12.5,10.1c-6.1,2.3-12.7-0.9-17.4-4.9 c-2.5-1.9-4.9-4.7-8.3-4.6c-2.1-0.1-5.9,1.5-5.3,4.1c0.2,0.5,0.6,0.8,1,1c-0.8-0.5-1.2-1.5-0.6-2.3c1.7-2.1,5-2.2,7.1-0.8 c0,0-0.1,0.1-0.1,0.1c3.6,2.1,6.9,5.2,10.9,7c1.8,0.9,3.6,1.4,5.4,1.7c-5.3,0-10.5,0.1-15.6,0.3c-3.6,0.1-7.2,0.2-10.6,0.2 c-20.5,0.3-32.4,2.8-39.7,8.5c-7.1,5.6-9.7,13.8-10.7,24.4c-22.9-18.5-37.7-49.7-42.9-90.6l-2-15.4l-0.7,3.4 c-0.4-1.6-0.8-3.2-1.1-4.8l-7.1-71.9l17.1-27.2l4.4-64.4c15.3-6.3,32.1-9.8,44.7-6.4c42.8,9.7,111.4,3,131.3-2 c13.5-3.4,24.5-3.1,42.2,6.8l-0.4,0L537.2,141.2z M285.2,219.9c0.2-0.7,0.4-1.4,0.6-2.1c0.4,0.7,0.8,1.4,1.2,2.1 c1.3,2.2,2.5,4.2,3.5,5.9c2.5,3.7,1.6,8.1,0.6,12.8c-0.7,3.4-1.4,7-0.8,10.3c0.6,3.1,2.2,5.2,3.8,7.3c1.3,1.6,2.4,3.1,3,5.1 c-0.4-0.3-0.8-0.4-1.3-0.4c0,0,0,0,0,0c-1.4,0-2.7,1.3-3.8,2.5c-1.3,1.4-2.2,2.1-2.7,1.7c-0.8-1-1.6-2-2.3-3.1l0.4-0.1 C280,238.7,281.7,232.8,285.2,219.9z M284.1,256.5c-5.6-11.9-7.1-28.6-7.7-53.7c2.7,3.7,5.7,8.7,8.2,12.8c-0.3,1.3-0.7,2.6-1,3.7 C280.3,231.1,278.6,237.5,284.1,256.5z M295.5,255c-1.5-2-3-3.8-3.5-6.5c-0.6-3.1,0.1-6.4,0.8-9.7c0.3-1.6,0.6-3.2,0.8-4.8 c1.8,7,3.6,14.8,5.5,23.6c-0.1,0.5-0.2,1.4-0.4,2.8C298,258.3,296.8,256.6,295.5,255z M288.4,214.5c0.7,2.6,1.5,5.3,2.2,8.1 c-0.7-1.1-1.4-2.4-2.1-3.6c-9.5-16.2-14.9-24.2-18.4-23.2c-1.9,0.6-2.6,3.6-2.1,9.7c0.7,9.8,0.5,12.8,0.3,15.2 c-0.2,2.6-0.4,4.6,0.7,13.7c-0.2-0.4-0.3-0.8-0.5-1.1c-3.1-6.7-3.9-18.1-4.7-28.2c-0.3-4-0.6-7.8-1-11.2c-0.5-4.1,0.3-7,2.2-8 c2.7-1.3,8.9,0.6,18.3,9.7C284.9,201.7,286.5,207.8,288.4,214.5z M271.8,242.4c-2.3-16.2-2.1-18.5-1.9-21.7 c0.2-2.4,0.4-5.5-0.3-15.4c-0.5-7.1,0.7-7.9,0.9-7.9c1-0.3,2.8,1.5,4.9,4.3c0.5,24.7,1.7,45.1,9.8,58.9c0.2,0.5,0.3,1.1,0.5,1.6 l0.4-0.1c0.8,1.2,1.6,2.3,2.5,3.4c0.3,0.3,0.6,0.4,0.9,0.4c1,0,2-1,3-2.1c1-1.1,2.2-2.3,3.2-2.3c0,0,0,0,0,0c0.5,0,0.9,0.2,1.3,0.7 l0.2-0.2c0.4,1.8,0.3,4-0.7,6.9c-0.7,2-1.3,4.3-1.8,6.5c-1.4,5.4-3,11.5-5.5,11.8c-1.2,0.2-3.4-1.1-7.2-7.1 c-1.4-4.4-3.2-11.1-5.1-18.3C275.4,255,273.6,248.1,271.8,242.4z M289.2,288.9c0.1,0,0.3,0,0.4,0c3.6-0.4,5.2-6.6,6.9-13.1 c0.3-1.3,0.7-2.6,1-3.8c-0.5,5.7-1.1,13.4-1.7,23.7c-3.8-0.6-7.7-3.9-10.6-8.9C286.7,288.2,288,288.9,289.2,288.9z M300.9,297.6 c0.5-8.9,1-15.8,1.5-21.3c7.6,35.3,23.2,62.3,45.6,78.5l3.8,2.7l0.3-4.7c1.4-24.6,7.9-32.4,45.7-32.9c3.4,0,7-0.1,10.6-0.2 c18.5-0.4,39.5-0.9,56,3.6c18.3,5,28.1,15.4,29.9,31.9l0.5,4.4l3.6-2.7c24.1-17.9,36.6-42.7,42.9-60.4c1.7-4.8,3-9.3,4.1-13.4 c2.3,41.8,2.7,94.3-29.7,126.3c-30.6,27.7-45.9,41.6-95,40.2c-9.2-0.8-27.4-3.2-46.7-10.7c-20.8-8.1-36.3-19.7-46.3-34.4 c-1.6-2.3-3-4.5-4.5-6.7c0-0.1-0.1-0.1-0.1-0.2C304,368.8,297.7,352.4,300.9,297.6z M534.5,427.6c-8.8,13.7-31.7,28.1-103.4,69 c-5.1-2.9-10-5.8-14.9-8.6c-47.2-27.2-81.5-47-92.6-71.3v-9.1c26.2,38.4,80.6,45.8,96.6,47.1l0.1,0c2.4,0.1,4.7,0.1,7,0.1 c45.7,0,61.5-14.3,91.7-41.7l0.1-0.1c7.8-7.7,13.9-16.6,18.4-26.1L534.5,427.6z M319,418.9c11.8,25.8,46.6,45.9,94.7,73.6 c4,2.3,8.1,4.7,12.3,7.1l-5.3,3l2.5-0.1c-2.5,1.9-5.6,4.4-9.4,7.5c-1.3,1-2.4,1.9-3.4,2.7c0,0-0.1,0.1-0.1,0.1 c-19,15.3-50.5,41.6-88.4,76.5c-45-91.9-22.2-148-6.3-182.4C314.7,411.9,315.9,416.3,319,418.9z M400,539.5 c-0.7,5.9-0.8,11.8-0.4,17.1l-30.8-2.3c13.1-11.4,24.7-21.1,34.2-28.9C401.7,529.4,400.7,534.2,400,539.5z M363.5,558.9l36.8,2.8 c0.7,4,1.8,7.6,3.2,10.6c1.1,2.5,4,4.5,8.6,6.1l-38.8,236c-7.8-41.2-30.2-162.3-38.7-229.7C344.8,575.4,354.5,566.8,363.5,558.9z M413.8,573.5c-4.5-1.5-5.5-3-5.7-3.4l0-0.1c-7.2-14.7-2.7-46.4,5.4-53.3c1.3-1,2.5-2,3.6-2.9c5.9-4.6,14.3-10.3,23.7-11.5 c6.8,0.5,12.9,2,18.8,4.5c4.9,3.3,12.4,11.7,11.8,31.5c-0.5,16.7-6.8,31.6-12.1,34.6C451.1,577.4,426.4,577.8,413.8,573.5z M472,513.8c9.7,6.8,19.6,16.8,31.9,30.7l-29.2,8.3c1-4.6,1.6-9.4,1.8-14.3C476.8,528.8,475.3,520.4,472,513.8z M473.2,558.5 l34.4-9.8c7.4,8.6,15.7,18.5,25.2,29.9c2.7,3.2,5.5,6.6,8.4,10.1c-7.2,33.5-12,61.9-17.5,94.7c-6,36-12.8,76.5-24.4,132.7 l-36.1-239.9C467.2,573.2,470.8,566.6,473.2,558.5z M536.8,575.5c-35.1-42.1-53.8-64.6-75.4-73.6c-7-4.3-14-5.4-20.4-4.7 c-0.1,0-0.2,0-0.4,0c69.1-39.5,89.6-52.9,98.6-67.3l0.3-0.5l0.1-1.6c1.5-2.7,2.1-6.5,1.8-11.4c-0.1-1.8-0.3-3.5-0.5-4.8l0.1-1.7 c4.8,8.9,9.5,26.9,11.3,53.3c1.8,25.4,1.5,66.5-9.7,119.4C540.6,580.1,538.7,577.7,536.8,575.5z M516.2,32c11.6,2.6,23,5.8,34.2,9.4 c4.9,11.9,8.6,28.5,11.3,49.3c-33.2-25.7-49.1-31.2-71.6-25.5c-19.7,4.9-87.5,11.5-129.7,2c-11.3-3.1-26.8-1.2-43.7,5.4 c-11.5,4.4-23,10.8-31.3,17.2c2.5-19.3,6-34.9,10.4-46.5c41.7-14.2,85.3-21.4,130-21.4C456.3,21.9,486.8,25.3,516.2,32z M53.6,268.6 c20.3-48.1,49.5-91.3,86.6-128.4c37.1-37.1,80.3-66.2,128.4-86.6c6.9-2.9,13.9-5.7,21-8.2C284,61.9,280,85,277.8,114.3 c-1.9,36.2,0.1,56.5,4.3,75.5c-7.8-6.6-14.3-9-18.5-7c-1.9,0.9-5,3.7-4.1,11.4c0.4,3.4,0.7,7.1,1,11c0.8,10.9,1.7,22.2,5,29.4 c2.5,5.3,5.6,17.3,8.4,27.9c2.2,8.2,4.2,16,5.8,20.3c3.4,9.2,9.6,15.4,16,16.2c-2.8,50.1,2.6,68.8,19.7,96c-0.9,1.9-1.8,3.9-2.8,6 c-1.2,2.7-2.5,5.5-3.8,8.4c-21.4,23.2-54.8,54.1-79.6,76.5c-45.4,14.5-81.4,26.9-110.3,36.8c-35.1,12.1-58.3,20.1-69.2,21.5 c-3.7,0.5-6.8,1-9.5,1.7C28,507.3,21.9,467,21.9,425.8C21.9,371.3,32.6,318.4,53.6,268.6z M53.6,583c-4.7-11.1-8.9-22.4-12.5-33.8 c2.6-0.6,5.5-1.1,8.9-1.6c11.2-1.5,33.3-9.1,69.9-21.7c27.4-9.4,61.1-21,103-34.5c-15.7,14-26.7,23.6-27,23.8l-1.5,1.3l1.4,1.3 c45.4,41.4,79.4,78.5,86.3,86.1c-75.3,52.7-91.3,57.2-91.9,57.4l-2,0.5l0.8,1.9c20.4,45.7,39.9,87.6,58.3,124.6 c-39.6-19.5-75.6-45.3-107.1-76.8C103.1,674.3,74,631.1,53.6,583z M252.3,790.7c-18.6-37.4-38.6-80-59.4-126.7 c6-2.4,28.2-13,92.8-58.3l1.6-1.1l-1.3-1.4c-0.4-0.4-36.2-40.7-86.4-86.5c10-8.7,69.2-60.4,105.2-98c-15,36.3-28.3,91.6,14,176 c0.4,0.7,1,1.2,1.8,1.4c0.2,0,0.3,0,0.5,0c0.6,0,1.3-0.2,1.7-0.7c2.4-2.2,4.8-4.4,7.1-6.6c9.8,76,35.8,213.6,40.3,237.1 c-34.9-4.8-69-14.1-101.7-28C263.1,795.7,257.7,793.2,252.3,790.7z M376.4,826.8L417,579.7c5.8,1.3,12.9,1.9,20,1.9 c8.1,0,16-0.9,21.5-2.8l36.8,245c-22.8,3.9-46,5.9-69.5,5.9C409.2,829.7,392.7,828.7,376.4,826.8z M583,798 c-25.8,10.9-52.5,19-79.7,24.3c12.3-58.9,19.3-100.9,25.5-137.9c5.6-33.2,10.4-61.8,17.7-95.7l0,0c12.4-55.9,12.8-99.4,10.9-125.9 c-0.6-8.2-1.4-15.8-2.6-22.8c39.1,35.5,100.1,86.2,110.2,94.5c-46.4,48.8-71.8,80.6-72.1,80.9l-1.3,1.6l1.9,0.9 c59.3,29.5,77.4,38.7,82,41.1c-16.2,42.1-31.6,80.9-45.9,115.7C614.6,783.4,599.1,791.2,583,798z M711.4,711.4 c-23.4,23.4-49.1,43.5-77,60.4c13.9-34.1,28.9-72,44.7-113l0.5-1.4l-1.3-0.7c-0.1-0.1-11.2-5.8-81.5-40.8 c5.8-7.2,30.7-37.3,71.8-80.4l1.3-1.3l-1.4-1.2c-0.3-0.3-14.6-12.1-34.1-28.5c84.7,31.6,134,50.6,153.1,59.2 c-0.2,0.1-0.3,0.2-0.5,0.3c-10.3,6.4-19.6,36.3-28.6,91.1C744.6,675.1,728.9,694,711.4,711.4z M798,583c-9.7,22.9-21.4,44.7-35,65.3 c10.3-60.1,19.7-77.6,25.8-81.4c1.3-0.8,2.6-1.1,4-0.7c2.8,1.4,5.4,2.1,8,2.7c0.9,0.2,1.7,0.4,2.6,0.7 C801.7,574.1,799.9,578.6,798,583z"></path> <path class="st0" d="M388.3,377.2c4.6,1.2,11,0.8,17.7,0.4c5-0.3,10.2-0.6,15.2-0.3c6,0.3,10.3,1.1,14.2,1.7 c3.8,0.6,7.1,1.2,10.8,1.2c5.4,0,15.9-4.7,22.3-11.3c4.2-4.4,6.2-9.2,6-13.9c-0.2-4.1-1.5-7.1-3.9-9.2c-6.3-5.6-20.1-4.8-43.9-2.9 c-5-0.1-11-1.1-17.4-2.2c-15.5-2.6-33-5.7-40.4,5.2c-3.2,4.6-3.9,10.3-2,15.5C369.8,368.6,377.3,374.2,388.3,377.2z M371.9,347.7 c6.2-9.1,21.8-6.4,37-3.8c6.5,1.1,12.7,2.2,18,2.3l0.1,0l0.1,0c22.3-1.8,36.2-2.6,41.5,2c1.7,1.5,2.6,3.7,2.7,6.8 c0.2,3.8-1.5,7.7-5.1,11.4c-6.1,6.4-15.6,10.3-19.8,10.3c-3.5,0-6.6-0.5-10.3-1.1c-0.2,0-0.4-0.1-0.6-0.1c6.3-1.2,12.7-3.4,18.8-6.5 c2-1.2,4.3-2.4,6.3-3.7c-3,1-6,2.3-9.1,3.2c-14.9,5-31.1,6.3-46.5,2.5c-6.1-1.4-12.1-3.6-18.2-5.7c6.2,4,12.7,7,19.4,8.8 c-0.1,0-0.2,0-0.3,0c-6.5,0.4-12.6,0.7-16.7-0.3c-9.9-2.6-16.6-7.5-18.9-13.8C368.8,355.9,369.3,351.4,371.9,347.7z"></path> <path class="st0" d="M399,362c8.3,0.1,16.1,1.7,24.1,3.4c0.8-0.1,1-0.2,1.7-0.3c1.3-0.3,2.7-0.7,3.9-0.9c5.3-1.1,10.7-1.5,16.1-1.9 c7.2-0.5,15.1-1.1,21-5.8c-9.8,5.7-21.4,3-32.1,4.3c-3.4,0.3-6.9,0.8-10.3,1.6c-0.1,0-0.2,0-0.3,0c-7.8-2.1-16-3.6-24.1-3.8 c-8.1-0.2-15.8-2.1-23.7-3.7c5.2,3.4,11.2,5.6,17.3,6.6C394.8,361.9,397,362,399,362z"></path> <path class="st0" d="M386.7,354.6c2.5-0.3,4.9-0.4,7.4-0.5c6.4-0.2,13.2-0.7,19.4,0.8c6.2,1.5,8.4,4.6,15.2,2l4.6-1.6 c3-1,6.2-1.7,9.4-1.8c6.6-0.1,13.2,0.3,19.8,0.9c-6.5-1.2-13.1-2.2-19.8-2.6c-5-0.4-10.3,0.4-15.1,1.9c-1.6,0.4-3.1,0.9-4.3,0.8 c-1.2,0-2.6-0.6-4.2-1.2c-9.7-3.6-20.3-1.5-30.1,0.3c-1.2,0.3-2.4,0.6-3.6,0.9c-0.4,0.1-0.8,0.2-1.2,0 C385,355,385.9,354.7,386.7,354.6z"></path> <path class="st0" d="M454,312.3c2.4-0.8,4.3-2.8,5.6-5.1c3.9-6.7,2.8-15.9-2-21.8C461.5,294,461.8,305.9,454,312.3z"></path> <path class="st0" d="M389.7,290.1c-5.5,6.6-4.6,21.2,5.6,22.2C386.7,308.8,386.7,297.5,389.7,290.1z"></path> <path class="st0" d="M441.1,215.6c-3.8,14-2.5,37,4.3,49.8c-2.7-8-3.7-16.3-4.4-24.7C440.3,232.3,440.2,223.9,441.1,215.6z"></path> <path class="st0" d="M407.4,240.7c-0.7,8.3-1.7,16.7-4.4,24.7c6.9-12.9,8.1-35.8,4.3-49.8C408.2,223.9,408.1,232.3,407.4,240.7z"></path> <path class="st0" d="M512.2,207.5c-16.6-13.7-42-6.3-59.6,1.8c20.2-7,46.9-14.3,64,2.9C515.3,210.5,513.9,208.9,512.2,207.5z"></path> <path class="st0" d="M454,213.9c5.6-3.2,11.7-5.4,18-6.5c-1.9,3.6-0.4,7.9,0.5,10c-3.5-0.3-7-0.7-9.9-0.9c11.6,3.7,24.6,4.5,36.1,0 c-1.3,0.2-2.7,0.4-4,0.5c0-0.1,0-0.1,0.1-0.2c0.8-2.5,1.5-4.9,0.5-8.8c3.9,1,7.7,2.4,11.4,4.2C491.3,201.2,468.8,202.7,454,213.9z M480.1,207.2c0-0.1,0.1-0.3,0.1-0.4l5.6,0.2c0.1,0.3,0.1,0.5,0.1,0.8c-0.2,1.2-1.7,2.1-3.3,1.9c-0.9-0.1-1.6-0.5-2.1-1.1 C480.3,208.2,480,207.8,480.1,207.2z M493.2,216.3c-0.1,0.3-0.2,0.6-0.3,0.9c-4.1,0.4-8.1,0.7-12.2,0.7c-1.9,0-4-0.1-6.3-0.3 c-0.7-1.3-3.2-6.9-0.2-10.6c1.4-0.2,2.9-0.3,4.3-0.4c0,0.1-0.1,0.2-0.1,0.4c-0.2,0.9,0.1,1.9,0.7,2.7c0.7,1,1.9,1.6,3.3,1.8 c0.2,0,0.4,0,0.6,0c2.2,0,4.2-1.4,4.6-3.3v0c0.1-0.5,0.1-0.9-0.1-1.3c2,0.2,3.9,0.5,5.9,0.9C494.6,211.5,493.9,213.7,493.2,216.3z"></path> <path class="st0" d="M464.3,235.4c-2.8-1.4-5.5-3.2-8.3-4.6c10.7,9.6,21.6,13,35.8,9.7C482.3,240.9,472.7,240,464.3,235.4z"></path> <path class="st0" d="M391.2,210.8c-17.5-8.1-43-15.4-59.6-1.8c-1.6,1.4-3.1,3-4.4,4.7C344.4,196.5,371,203.8,391.2,210.8z"></path> <path class="st0" d="M381.2,218.7c-3.3,0.4-6.6,0.8-9.9,1.1c0.9-2.2,2.5-7.1,0.4-11.1c6.3,1,12.4,2.9,18.1,5.6 c-15.1-9.9-37.2-11.2-52.7-1.4c3.7-1.6,7.5-2.8,11.5-3.6c-1.1,4.3-0.4,7,0.4,9.7c0,0.1,0,0.2,0.1,0.3c-1.3-0.2-2.7-0.4-4-0.6 C356.6,223.4,369.7,222.5,381.2,218.7z M358.1,208.4l5.5-0.2c0.1,0.2,0.1,0.3,0.1,0.5c0.1,0.7-0.2,1.3-0.4,1.6c-0.5,0.6-1.2,1-2,1.1 c-1.6,0.2-3.1-0.7-3.3-2.1v0C357.9,209,358,208.7,358.1,208.4z M351,219.5c-0.1-0.3-0.2-0.6-0.3-1c-0.8-2.8-1.5-5.2-0.2-9.6 c1.9-0.3,3.9-0.6,5.8-0.8c-0.1,0.5-0.2,1-0.1,1.5c0.3,2,2.3,3.5,4.6,3.5c0.2,0,0.4,0,0.6,0c1.3-0.2,2.5-0.8,3.2-1.8 c0.6-0.8,0.9-1.9,0.7-2.9c0-0.2-0.1-0.3-0.1-0.4c1.4,0.1,2.8,0.2,4.2,0.4c3.2,4,0.5,10.2-0.1,11.5c-2.1,0.2-4.2,0.3-6.2,0.3 C359.1,220.3,355,220,351,219.5z"></path> <path class="st0" d="M379.6,236.9c-8.4,4.6-18,5.5-27.4,5.1c14.1,3.3,25.1-0.1,35.8-9.7C385.1,233.7,382.4,235.4,379.6,236.9z"></path> <path class="st0" d="M401.9,186c-17.8-5.5-27.9-8.6-37-8.6c-11.8,0-21.9,5.1-44.7,16.5c14.9-3.5,26.8-5.1,36.8-5.1 c15.8,0,27.3,4,39.3,10.8c0.7,0.4,1.4,0.6,2.1,0.6c1.5,0,3-0.8,3.7-2.3c1.1-2.2,2.3-4.9,2.7-7.3C405.2,188.6,403.9,186.7,401.9,186z M399.2,196.4c-0.2,0.3-0.5,0.4-0.7,0.4c-0.1,0-0.3,0-0.4-0.1c-13.8-7.9-26-11.2-40.9-11.2c-4,0-8.4,0.3-13,0.8 c8.4-3.6,14.5-5.4,20.9-5.4c8.5,0,18.2,2.9,35.9,8.4c0.4,0.1,0.6,0.5,0.6,0.9C401.3,191.8,400.5,193.9,399.2,196.4z"></path> <path class="st0" d="M449.7,186c-2,0.6-3.2,2.6-2.9,4.6c0.3,2.4,1.5,5.1,2.7,7.3c0.7,1.4,2.2,2.3,3.7,2.3c0.7,0,1.4-0.2,2.1-0.6 c11.9-6.8,23.4-10.8,39.3-10.8c10.1,0,22,1.6,36.8,5.1c-22.8-11.4-32.9-16.5-44.7-16.5C477.5,177.5,467.4,180.5,449.7,186z M494.5,185.5c-14.9,0-27.2,3.4-40.9,11.2c-0.1,0.1-0.3,0.1-0.4,0.1c-0.2,0-0.6-0.1-0.7-0.4c-1.3-2.5-2.1-4.6-2.3-6.2 c-0.1-0.4,0.2-0.8,0.6-0.9c17.8-5.5,27.4-8.4,35.9-8.4c6.4,0,12.5,1.7,20.9,5.4C502.8,185.7,498.5,185.5,494.5,185.5z"></path> </svg> 