<?xml version="1.0" encoding="UTF-8"?> <svg xmlns="http://www.w3.org/2000/svg" xmlns:xlink="http://www.w3.org/1999/xlink" version="1.1" id="Calque_1" x="0px" y="0px" viewBox="0 0 850.4 850.4" style="enable-background:new 0 0 850.4 850.4;" xml:space="preserve"> <style type="text/css"> .st0{fill:#B49F71;} </style> <path class="st0" d="M720.7,130.9c-38.3-38.3-82.9-68.4-132.5-89.4c-51.4-21.7-106-32.8-162.3-32.8s-110.9,11-162.3,32.8 c-49.7,21-94.3,51.1-132.5,89.4c-38.3,38.3-68.4,82.9-89.4,132.5c-21.7,51.4-32.8,106-32.8,162.3s11,110.9,32.8,162.3 c21,49.7,51.1,94.3,89.4,132.5c38.3,38.3,82.9,68.4,132.5,89.4c51.4,21.7,106,32.8,162.3,32.8s110.9-11,162.3-32.8 c49.7-21,94.3-51.1,132.5-89.4c38.3-38.3,68.4-82.9,89.4-132.5c21.7-51.4,32.8-106,32.8-162.3s-11-110.9-32.8-162.3 C789,213.8,759,169.2,720.7,130.9z M543.2,31.8c2,3.9,9.3,18.4,18.1,42.1l3.6,9.7l1.2-5.8c2.9,9.3,6.9,24.5,10,43.8 c4.8,30.1,8,76.4-3.9,126.5c-0.1,0.1-0.2,0.1-0.3,0.2c-0.3-10.2-0.6-19.6-0.9-27.8c-0.3-9.2-0.6-16.5-0.7-21.4 c-0.5-20.1-5.5-48.7-5.5-49l-0.1-0.4l-0.2-0.4c-4.5-8.2-8.5-15.8-12.1-22.6c-18.7-35.5-29.1-55-49.7-55.8 c-4.3-0.2-10.8-0.7-18.3-1.3c-34.7-2.8-92.7-7.5-120.5,4.8c-29.7,14-57.3,72.3-65,89.8l-0.1,0.1c-10,26.8-14,39.8-13,60.2 c0.2,7.2,0.7,16.5,1.4,26.8c-2.8-1.4-5.6-2.4-8.3-3.1c-11.7-84.8,1.4-141.3,6.6-159.3l2.6,4.3l12.4-34.9l1.1,4.9l3.6-8.5 c6.9-16.1,9.7-22.7,10.7-25.2c35.5-9.8,72.2-14.8,109.6-14.8C466,14.8,505.3,20.5,543.2,31.8z M578.1,249.7c0-0.2,0.1-0.4,0.1-0.5 c3.7-1.3,7-1.3,9.7-0.1c4.4,1.9,7.3,6.9,8.3,14.4c0.3,2,0.6,3.9,0.9,5.7c2.1,13.3,3.7,23-4.2,40.4c-2.2,4.8-3.9,9.3-5.4,13.2 c-4.3,11.2-7.1,18.5-15.1,21.1c0.4-4.8,0.6-9.8,0.6-15.2c0-2.6,0-5.3,0-8c0.9,0.3,1.4,0.6,1.9,1.1c0.7,0.6,1.5,1.3,3.1,1.7l0.3,0 c0.3,0,0.6,0,0.8,0c2.7,0,5.1-1,7.2-2.9c8.7-8.2,8.7-32.4,8.7-46.9v-0.9c0-8.1-3-13.5-8-14.6c-5.5-1.1-10.8,3.6-14.7,9.9 c-0.1-5.5-0.3-10.9-0.4-16.2c1.8-1.1,3.5-2,5.2-2.6L578.1,249.7z M584.1,318.3c-1.1,1-2.3,1.6-3.6,1.8c6.1-8.4,8.8-20.2,7.6-33.1 c-0.9-9.7-4-18.5-7.9-22.7c2.4-2.1,4.6-2.8,6.3-2.5c3.2,0.6,5.2,4.9,5.2,11.2v0.9C591.8,286.9,591.8,311.2,584.1,318.3z M579.6,264.9c3.7,4.1,6.8,12.8,7.7,22.2c1.2,13-1.6,24.9-7.9,33.2c-0.2,0-0.4,0-0.5,0c-0.7-0.2-1-0.5-1.6-0.9c-1-0.8-2-1.6-4.1-2 c0-13.9-0.2-28.3-0.5-42.2C574.9,270.5,577.3,267.1,579.6,264.9z M545,433.6c2.3,8.6,1.8,24.4-0.9,56.5c-0.4,0.1-0.8,0.3-1.2,0.4 c-5.3-10.5-11.3-20.5-17.8-29.6c9.9-8.1,17.2-20.3,17.4-26.6c0-1.6-0.4-2.7-0.9-3.5l0.2-3.7c1.2,1.4,2.2,3.1,2.9,5.4l-0.4,0.4 C544.6,433.2,544.8,433.4,545,433.6z M771,553.6c2.6,18,6.1,35.3,7.7,43.2c-16.2-8.7-38.6-21.6-50.9-32.3 c-19.6-18.8-37.1-37.7-51.2-52.9c-2.1-2.3-4.1-4.4-6-6.4c51.6-17.5,82.6-19.6,99.7-6.7C766.4,505.8,766.6,523.9,771,553.6z M672.8,515.1c14.2,15.2,31.8,34.2,51.5,53.1l0.1,0.1c18.6,16.2,58.1,36.5,68.9,41.9c-13.7,27.2-30.2,52.7-49.6,76.2l-57.8-40.8 c1.8-1.7,3.6-3.7,5.4-6.1c-1.8,2.1-3.7,4.1-5.8,5.9l-0.2-0.1l-0.5,0.7c0,0,0,0-0.1,0.1c-7.2,6.3-16.3,7.9-25.1,4.1 c-11.6-5-20.8-14-31.1-21.3c-0.1,0.1-0.1,0.1-0.2,0.2c-11.3-8.3-22-17.3-31.7-27.4c-2-2.1-4.1-4.2-6.3-6.2c-3-2.9-7.1-5.3-9.8-8.1 c-0.7-0.9-0.8-1.9-0.9-3c0.2-1,0.7-3.8,1.1-6.6c0.7-2.7,1.1-5.5,1.4-8.3c0,0,0,0,0,0l0,0l0,0c-1.6,3.3-2.9,6.6-4.3,9.9 c-0.8,1.6-1.4,3.8-2.9,4.7c-0.4,0.1-1.1,0-1.5-0.1c-1.5-0.9-2.2-2.8-2.9-4.5c-1.3-3.8-1.9-7.8-1.7-11.8c0.1-1.2,0.2-2.3,0.4-3.5 c0,0,0-0.1,0-0.1c0,0,0,0,0,0c0,0,0,0,0,0c-1.8,3.3-2.4,7.2-2.2,11c-0.4,3.5-0.6,6.9-0.5,10.4c0,0.3,0,0.8,0,1.1l0,0.6 c0,0.1,0.1,0.1,0.1,0c0.1-0.1,0.2-0.1,0.1-0.1c0,0.1-0.4,0.3-0.8,0.3c-2,0.3-4.2-0.2-6.1-1.1c-0.7-0.4-1.4-0.8-2.1-1.2c0,0,0,0,0,0 c0,0,0,0,0,0c0.9,1.1,2.2,2.1,3.7,2.9c0.6,0.6,1.2,1.1,1.7,1.7c1.5,1.6,3.1,3.6,3.4,5.8c0.4,4.6-7.3,3.9-10.4,4.1c0,0,0,0,0,0 c0,0,0,0,0,0c0,0,0.1,3,0.1,3c0,0,0,0,0,0v0c0,0,0,0,0,0c0.8,0,1.6-0.1,2.4-0.2c11.1-0.6,16.9,1,9.1,13.9c0,0,0,0,0,0 c3.8-5,8.4-12.9-0.5-15.4c-0.5-0.1-1-0.3-1.6-0.4c4.4-2.6,3-7.3-1.9-11.5c2.9,1,5.6,0.8,5.6-2.1c0-0.6,0-1.2-0.1-1.8 c-0.1-0.7-0.2-1.4-0.3-2.1c0.8,1.7,1.9,3.1,3.7,3.7c1.4,0.4,2.6,0.3,3.5-0.3c0,0.1,0.1,0.3,0.1,0.4c0.5,2.5,3.1,4.4,4.9,5.7 c2.3,1.7,4.6,3.5,6.7,5.3c4.3,3.8,8.2,8.2,12.5,12.1c8,7.6,16.6,14.4,25.4,20.9c-1.7,1.4-3.5,2.8-5.4,3.8c-7.1,4-15.6,4-23.6,4.7 c-0.9-7.2-4.1-14.2-9-19.6c-4.7-5.4-14.7-10.8-20.1-3.6c1.2-1.4,2.9-2.6,4.8-2.9c5.7-0.9,10.8,3.3,14.2,7.4c2.3,2.9,4.2,6.2,5.4,9.7 c1.1,3.2,1.8,6.5,1.9,9.9c-2.2,2.8-5.4,4.5-9.1,4.5c-3.8,0-7.5-1.1-11.1-2.5c-1.2-1-9.3-7.4-25.8-24.2 c-15.9-16.2-15.5-28.2-13.5-36.8c2.4-10.1,11.7-24.3,27.4-42.2l-2.6-2.3c-16.2,18.3-25.6,33-28.2,43.7c-2.1,8.8-2.9,22.4,14.4,40 c12.3,12.5,19.9,19.3,23.6,22.4c-10.1,0.6-22.7-12.3-28.6-18.8c-3-3.3-5.7-6.8-8.3-10.4c-1.9-3.2-4.2-7.6-6-11.6 c0.1-0.5,0.2-0.7,0.2-0.8l-0.6-0.2c-0.1-0.1-0.1-0.3-0.2-0.4c-3.5-8.1-6.2-16.6-7.5-25.3l0.4-0.8c-0.1,0-0.3-0.1-0.6-0.3 c-0.2-1.1-0.3-2.2-0.4-3.4c-0.3-3.9-0.4-8.2,0.9-11.9c5.9-7.3,12.2-14.4,18.7-21.2c9.9-10.4,20.3-20.4,31.3-29.5 c7.3-6.1,15.5-11.6,25-13.2c4.7-0.7,9.6-0.2,14.3,0.6c-4.7-0.9-9.5-1.6-14.4-1c-14.6,2.1-26,12.7-36.9,21.7 c-13.4,11.6-26.2,23.9-38,37.2c0-1.9,0.1-3.9,0.5-5.7c0.6-3.2,2.4-6.2,3.7-9.2c4.2-5.2,8.7-10.3,13.4-15.1 c14.4-14.6,30.5-27.8,48.6-37.5c-23.5,11.6-44.3,28.3-62,47.6c-0.1-1.6-0.1-3.1,0.1-4.6c0.3-3,1.4-5.8,2-8.8 c-1.1-6.7-1-14.6,4.2-19.4c2.4-2.1,5.8-3.6,9.1-5c10.1-4.1,20.7-7,31.4-9.4c7.1-1.6,14.3-2.9,21.6-4l0.8-0.1c0,0,0.4-0.6,0.4-0.6 c4.1-6.5,11.7-7.9,19-7.8c0.1,0,0.1,0.1,0.2,0.2l1.4,1.4l1.7-1c1.6-0.9,7.1-0.1,15.3,3.9c7.9,3.8,16,9.4,21.9,15 C656.9,498.1,663.9,505.6,672.8,515.1z M439.9,829.9c-2.7-0.7-5.1-0.4-7,1c-1.3,0.9-2.7,2.7-3.4,5.8c-0.7,0-1.4,0-2.2,0 c-0.2-4.6,1-8,3.7-9.9c4.2-3,10.7-1.8,13.2-0.5c3.1,1.6,3.5,6.2,3,9.8c-0.7,0-1.4,0.1-2.1,0.1C444.4,832.3,441.7,830.4,439.9,829.9z M441.5,836.5c-2.8,0.1-5.7,0.2-8.5,0.2c0.4-1.4,1-2.4,1.9-3c1.1-0.8,2.4-0.9,4.1-0.5C440.5,833.7,441.2,835.1,441.5,836.5z M445.7,823.4c-3.8-2-11.6-3-16.8,0.7c-2.6,1.8-5.4,5.5-5.1,12.7c-5.2,0-10.4-0.1-15.6-0.4c-9.1-43.3-0.5-225.5,0.9-253.8 c4.3-5.9,8.1-11.3,10.9-15.5c0.2,0,0.5,0,0.7,0c2.2,0,4.3-1,6.5-1.9c2-0.9,4-1.7,5.6-1.7c6.1,0,11.1-1.9,13.9-4.9 c6.6,0.3,12.6,1.1,19.4,2.8c1.4,53.3-1.6,151.1-3.5,190.2c-1.6,32.3-1.1,72.7-1,83.7c-3.6,0.3-7.3,0.6-11,0.8 C451.1,831.6,450.4,825.8,445.7,823.4z M354.7,680.7c0.5-2.6,1-5.1,1.3-7.5l0.2,0.1c0.5-0.7,13.4-16.4,10.7-31.1 c-0.2-1.1-0.4-2.2-0.6-3.3c1.4-6.2,2.4-12.3,3.1-17.9l0.2,0.3c12.8-6.5,25.6-20.6,35.8-33.8c-2,40.5-9.4,205.1-0.7,248.8 c-10.9-0.5-21.7-1.5-32.4-2.9c-4.5-19.2-15.5-110-18.4-146.1C354.2,685.2,354.5,683,354.7,680.7z M69,560.6c0.4-0.2,0.9-0.4,1.3-0.6 c0.1,0.1,0.2,0.1,0.3,0.2c8.3,6.1,15.1,53.3,14.1,94.9c-14.1-21-26.3-43.3-36.4-66.7C49.5,583.6,54.6,566.9,69,560.6z M73.9,558.6 c19.2-7.3,42.3-9.9,84.9-1.3l-40,21.5l45.1-20.4c0.2,0,0.4,0.1,0.6,0.1l1,0.2l0.9-0.5c0.5-0.3,49.6-28.1,73.3-44.7l-2.9,36.2 c-6.7,1.1-13.3,3.9-19.9,8.5c-8.2,5.6-16.3,13.8-25.6,25.8c-14.1,18.3-44.9,54.1-93.4,89.4c-3.3-4.4-6.6-8.9-9.7-13.4 C89.3,625,84.6,570.1,73.9,558.6z M243.2,510.9c20.1-14.8,47.2-45.6,60.5-66c0.2,3.8,0.8,8.6,2,14.8c4.7,21.7,6,35.2,6.4,41 l-1.5,0.1l-0.1,3.1c-0.4,10.8-0.6,19.7-0.6,27l-1.9,21.8c-3-0.2-5.9-0.3-8.3-0.3c-4.4,0-9.2-0.4-15.7-0.9 c-7.9-0.6-18.7-1.4-35.1-2.1c-3-0.4-5.9-0.4-8.8-0.2L243.2,510.9z M308.1,436.2c1.2-2.9,3.6-4,6.8-5.6c1.1-0.6,2.3-1.2,3.7-1.9 c0.1,1.6,0.2,3.2,0.3,4.8c-3.1,3.6-4.4,8.6-3.6,13.8c1.5,9.9,10,19.9,24,28c20.4,11.8,63.3,36.3,79.4,45.6c-2.3,0.5-4.4,1-6.1,1.5 c-0.4,0.1-0.8,0.2-1.2,0.3c-27.6-16.8-55.1-18.8-71.6-20.1c-2.9-0.2-5.3-0.4-7.4-0.6c-9.6-1-14.4-1.3-16.7-1.4 c-0.3-5.9-1.6-19.4-6.4-41.6c-1.8-9.9-2.3-15.9-1.8-19.8c0.5-0.9,1-1.8,1.5-2.7L308.1,436.2z M320.2,452c-0.9-2.1-1.3-3.8-1.5-5.3 c-0.4-2.6-0.1-5.1,0.6-7.2C319.6,444.6,319.9,448.8,320.2,452z M536.5,493c-5.2,2.1-10.6,4.9-13,10.3c-0.6,1.3-1.1,2.6-1.5,4 c-1.4,0.2-4.1,0.7-9.2,1.7c-5.8,1.1-24.3,9.1-42.1,16.9c-7.4,3.2-14.5,6.3-20.3,8.7c0-1.3,0-2.6-0.1-3.8c11-9,22.4-17.9,31.2-29.3 c6.3-7.5,14.4-13.3,22.7-18.5c2.6-1.7,6.6-4,9.1-5.7c-1.5,1-3.1,1.9-4.6,2.7c-8.6,4.8-17.2,9.9-24.5,16.6c-1.9,1.8-3.9,3.9-5.6,5.8 c-8.3,9.6-18.4,16.9-28.5,24.5c-0.5-3.6-1.6-6.4-3.4-8.1c8.4-22.8,38.3-43.6,52.9-53.8c2.8-2,5.1-3.5,6.6-4.7 c2.8-2.1,5.2-3.2,6.9-2.9c1.3,0.2,2.1,1.2,2.6,2c0.2,0.3,0.4,0.6,1,1.3C523.8,470.6,530.6,481.4,536.5,493z M521.7,520.2 c-0.7,2.8-1.6,5.6-1.9,8.6c-0.3,3-0.1,5.9,0.1,8.8c-1.4,3.1-3.2,6.1-3.8,9.6c-7.3,0.1-47.5,0.4-66.4-1.4c0.2-2.6,0.4-5.1,0.5-7.4 c6.1-2.5,13.7-5.8,21.8-9.3c16.9-7.3,36-15.6,41.4-16.7c3.9-0.7,6.4-1.2,8-1.5C521,514,521.2,517.2,521.7,520.2z M449.1,551.9 c0-0.5,0.1-1.1,0.2-1.7c0-0.4,0.1-0.7,0.1-1c13.2,1.3,36.1,1.5,51.6,1.5c6.7,0,12.1,0,14.7-0.1c-0.2,2.5-0.1,4.9-0.1,7.4 c-1.5,4.8-1.4,9.5-0.9,14.4c-5.6-2.8-16.2-7.9-28-11.9C470.4,554.9,460.6,552.6,449.1,551.9z M441.5,523.7 C441.5,523.7,441.5,523.7,441.5,523.7c0.9,0.5,3.2,4,0.9,25.8c-0.2,1.6-0.3,2.7-0.3,3.5c-0.1,1.7-4.1,3.7-9.3,3.7 c-3.1,0-5.9,1.2-8.4,2.3c-1.1,0.5-2.7,1.2-3.5,1.3c-0.1-0.2-0.2-0.5-0.3-1c-0.5-1.9-1.3-4.5-2.3-7.4c-1.5-4.5-3.3-10-4.3-14.8 c-1.4-6.7-0.3-8-0.3-8c0,0,0,0,0.1,0l0.3-0.1C420.8,527.2,434.8,524.6,441.5,523.7z M317.2,553.5c-0.3-5.3-0.9-20.2,0-46 c2.5,0.1,6.9,0.5,14.3,1.3c2.2,0.2,4.7,0.4,7.7,0.6c15.7,1.2,41.8,3.1,67.7,18.6c-0.5,2.1-0.5,4.6-0.1,7.5c-8-1.6-15.5-4.9-22.8-8.5 c-5.9-2.7-11.6-6.5-18-8.2c-6.4-1.7-12.9-2.7-19.4-3.3c-3.3-0.2-6.6-0.5-9.8,0c1.6,0,3.2,0.3,4.8,0.6c8.7,1.6,17.4,3.6,25.7,6.6 c2.2,0.9,4.2,2,6.3,3.2c10.5,5.8,21.7,11.9,33.9,13.4c0.4,1.9,0.9,3.8,1.5,5.9c-2,0.7-3.6,1.3-5,1.9c-4.6,2-8,3.4-25,3.7 c-21.6,0.4-37.1,7.8-41.2,10c-2-1.8-4-3.3-5.9-4.2C328.8,555.2,323.2,554.2,317.2,553.5z M379.1,554.3c17.6-0.3,21.2-1.9,26.2-4 c1.3-0.6,2.8-1.2,4.7-1.8c0.5,1.8,1.1,3.6,1.8,5.5c0.3,1.1,0.7,2.1,1,3c-16.6,16.9-39.5,34.5-45.6,36.8c-2.5-3.8-6.1-7.6-9.6-11.3 c-2-2.1-3.8-4-5.5-5.9c-0.8-1-1.7-2-2.6-3c-3-3.5-6-7.1-9-10.1C345.6,560.9,360,554.6,379.1,554.3z M370.1,600.6 c-0.2-1.3-0.6-2.6-1.2-3.8c8.1-3.5,29.9-21,45-36c0,0.1,0,0.1,0,0.2c0.2,0.7,0.4,1.4,0.7,2c-8.3,12.3-26.7,38.9-44.3,50.1 C370.6,607.9,370.5,603.6,370.1,600.6z M466,751.7c1.9-38.9,4.9-135.9,3.5-189.4c4.4,1.2,9.2,2.7,14.8,4.7 c16.5,5.7,31.1,13.6,31.2,13.7l0.2-0.4c1.5,7.5,4,14.8,7,21.9c0,0.1,0.1,0.2,0.1,0.3c-2.9,12.1-18.1,80.7-28,228.7 c-9.9,1.7-19.8,3-29.9,3.9C464.8,823.6,464.4,783.7,466,751.7z M520.6,631.2l43.6,27.9l38.2,25.1l-33.4,126.9 c-23,8.6-46.6,15-70.7,19.3C505.2,728.9,514.5,665,520.6,631.2z M565,655.5l-43.8-28c1.7-9.2,3.1-15.9,4.1-20.2 c1.4,2.8,2.9,5.5,4.5,8.2c2.7,3.7,5.6,7.3,8.6,10.8c7.5,8.2,22.6,23.6,35,19.3c0.9,0.3,1.7,0.7,2.6,1L565,655.5z M594.5,474.9 c-1.7,1.2-3.1,2.7-4.2,4.4c-14.4,2.2-28.7,5.2-42.6,9.7c2.2-26.7,2.9-42.2,1.5-51.9c12.6,9.9,28.2,17.9,41.1,24.5 c6.7,3.4,12.7,6.5,16.9,9.2C602.7,471.1,598.2,472.1,594.5,474.9z M537.6,439.5c-2.5,5.7-8,13.3-14.6,18.7c-0.4-0.5-0.8-1.1-1.2-1.6 c-0.3-0.4-0.6-0.7-0.7-0.9c-1.8-2.8-4.3-4.5-7.2-5c-3.7-0.6-7.9,0.8-12.3,4.2c-1.4,1.1-3.6,2.6-6.3,4.5 c-15.3,10.7-46.6,32.5-55.6,57.6c-4.1,0.6-10.3,1.6-16.1,2.8c-12.5-7.1-60.8-34.7-82.8-47.5c-8.2-4.8-13.5-9.6-16.8-13.8 c-0.3-3.8-1.8-23.3-3.5-50.9c7.8,5.6,18.1,11.1,31.8,18.1c4.9,2.5,9.9,5.3,15.1,8.3c19.4,11,41.7,23.6,69,23.6 c18,0,38.2-5.5,61.2-20.6c17.6-12.1,31.3-22,41.9-31.2L537.6,439.5z M494.8,432.7c-24.6,16.2-47.8,22.3-71,18.8 c-20.3-3.1-38.1-13.1-53.8-22c-5.3-3-10.4-5.9-15.3-8.4c-34.9-17.7-46.5-25.3-50-48.1c-0.3-2.6-12.8-108-13.7-148.8l0-0.1 c-0.9-19.5,2.7-31.5,12.7-58.1c23.8-53.8,47.8-80.3,62.4-87.1c26.6-11.7,86.1-6.9,118-4.3c7.9,0.6,14.1,1.1,18.5,1.3 c17.7,0.7,26.9,18.2,45.4,53.1c3.5,6.7,7.5,14.2,11.9,22.3c0.6,3.6,5,29.4,5.4,47.8c0.1,5,0.4,12.3,0.7,21.5 c1,28.4,2.4,71.3,2.1,108.2c-0.2,25.8-4,40.4-13.8,54.1C543.5,397.9,525,411.9,494.8,432.7z M287.6,255.2 c1.5,19.4,3.7,41.9,5.8,62.2c-7.9-2.4-8.4-9.6-8.4-20.6c0-5.5,0-11.2-1.5-16.4c-3-10.6-11.4-19.9-20-22.1c-2.1-0.5-4.2-0.6-6-0.1 c1.6-2.5,4-4.6,7-5.9C271,249.4,279.1,250.5,287.6,255.2z M259.6,271.5c0.3-3.3,0.6-6.7,0.8-10.3c0.8,0,1.6,0.2,2.3,0.3 c1.4,0.4,2.9,1,4.4,2c-3.7,21-5.6,34.1-2.7,45.9C257.2,297.8,258.2,286.6,259.6,271.5z M266,311.7c-3.8-12.2-1.9-25.5,1.9-47.7 c5,3.3,10,9.4,12.3,17.3c1.4,4.8,1.4,10.2,1.4,15.5c0,9.4,0,19.2,8.6,23.1c-9-2.9-12.5-1.3-15,0.4c-0.3,0.2-0.7,0.5-0.8,0.5 c0,0-0.1,0-0.4-0.1C270.7,317.6,268.1,314.6,266,311.7z M293.8,321.1c-0.2-0.1-0.4-0.2-0.6-0.2C293.4,320.9,293.6,321,293.8,321.1 C293.8,321.1,293.8,321.1,293.8,321.1z M255.4,264.2l0.3-1.4c0.4-0.4,0.8-0.6,1.3-0.9c-0.2,3.2-0.5,6.3-0.8,9.2 c-1.8,19.5-3.2,34.8,15.7,52.1l0.3,0.2c2.4,1.4,3.9,0.4,5-0.4c1.6-1.1,4.6-3.2,17,1.9c1,9.3,1.9,17.9,2.8,25.2 c-11.3-0.4-20.8-8.2-26.2-15.8c-0.2-0.5-0.5-1-0.8-1.6c-3-5.9-9.3-18.3-14.2-33C250.7,284.7,253.2,273.8,255.4,264.2z M14.8,425.8 c0-55.5,10.9-109.3,32.3-160c20.7-48.9,50.3-92.9,88.1-130.6c37.7-37.7,81.7-67.4,130.6-88.1c14.1-5.9,28.4-11.1,42.9-15.4 c-1.2,2.7-2.8,6.7-5.2,12.3l-1.6-7l-15.1,42.2l-2.7-4.4l-2.2,5.8c-0.2,0.6-6,16-10,44.6c-3.6,25.9-6.4,68.1,0.9,122.1 c-3.4-0.1-6.6,0.5-9.5,1.7c-5.5,2.4-9.6,7.1-10.8,12.5l-0.4,1.9c-2.3,10-4.9,21.4,0.5,37.4c5,15,11.3,27.5,14.4,33.5 c0.3,0.7,0.6,1.3,0.9,1.7l0.1,0.2c5.9,8.4,16.6,17.1,29.4,17.3c1.4,12,2.3,19.8,2.3,20l0,0.1c2.2,14,7.1,22.8,17.3,31.1 c0.4,7.2,0.9,14,1.3,20c-1.8,1.1-3.4,1.9-4.9,2.6c-4,1.9-6.8,3.6-8.3,7.1l-0.8-0.4c-9.9,18.8-41.4,55.9-64.1,72.6 c-20.2,14.9-68.6,42.5-75.6,46.5c-24.7-5.3-45-7.3-61.8-6.2c-16.3,1.1-27.2,5.1-35.8,8.8c-12.6,5.4-18.9,17.3-21.8,25.2 C25,531.8,14.8,479.6,14.8,425.8z M135.2,716.4c-12.7-12.7-24.5-26.2-35.4-40.3c48.8-35.5,79.8-71.5,94.1-90 c11.4-14.8,25.1-29.6,42.5-32.9l-0.1,0.8l3.4,0.3l0.1-1.6c2.8-0.3,5.7-0.2,8.7,0.1l0.1,0c16.4,0.7,27.2,1.5,35,2.1 c6.6,0.5,11.4,0.9,16,0.9c10.7,0,25.5,1.5,30.8,3.9c4.7,2.2,10.9,9.5,16.4,15.9c0.9,1,1.7,2.1,2.6,3.1c1.7,2,3.7,4.1,5.6,6.1 c5.3,5.6,10.8,11.3,11.6,16.3c0.5,3.3,0.5,8.1,0,13.9c0,0-0.1,0.1-0.1,0.1l0.1,0.2c-0.4,4.6-1.1,9.8-2.1,15.2 c-1.4-5.8-3-11.3-5.3-18.9c-0.9-2.9-1.8-6.1-2.9-9.7c-5.6-19.3-8.9-21.1-27.8-28.7c-15.4-6.2-22.9-7.7-43-11.7 c-4.1-0.8-8.8-1.7-14.2-2.8l-0.7,3.4c5.4,1.1,10.1,2,14.2,2.8c19.9,3.9,27.3,5.4,42.4,11.5c17.7,7.2,20.5,8.3,25.8,26.5 c1.1,3.6,2,6.8,2.9,9.7c3.6,12.2,5.6,18.9,7.7,30.2c1.5,8.5-3.1,17.9-6.6,23.4c2-17.6-0.5-26.5-3-35.9c-0.3-1.2-0.6-2.3-1-3.5 c-2.7-10.1-19.3-18.5-34-25.9c-4.8-2.4-9.4-4.7-12.7-6.8c-17.6-10.7-32-16.1-45.2-17l-0.2,3.4c12.7,0.9,26.5,6.1,43.6,16.5 c3.5,2.1,8.1,4.4,13,6.9c13.3,6.7,29.9,15.1,32.2,23.7c0.3,1.2,0.6,2.4,1,3.6c3.1,11.2,6,21.8,0.7,48.9l0,0.2 c-1.2,15.7-6.1,24.3-10.5,32c-0.6,1.1-1.2,2.1-1.7,3.1c-4.9,9-9.9,13.7-20,9.7c-3.9-2.8-4-7.7-4-7.7l-3.4,0c0,0.3,0.1,6.9,5.7,10.6 l0.3,0.2c2.9,1.2,5.6,1.8,8.1,1.8c2.6,0,5.1-0.7,7.3-2c4.2-2.5,7-7.1,9.1-10.9c0.6-1,1.1-2,1.7-3.1c2.6-4.6,5.4-9.6,7.5-16.1 c3.7,39.7,12.9,114.8,17.3,135.1c-29.6-4.1-58.6-11.5-86.7-22c-17.1-35.8-25.8-117.7-26.1-121.4c2.2-2.1,4.4-4.3,6.5-6.5 c3.7-4.2,8.3-8.3,8.6-13.9c0.2,0.1,0.4,0.2,0.6,0.2c4.7,1.9,11.3,0.4,10.4-5.8c-0.1-0.5-0.2-1.1-0.4-1.6c0.1,0,0.3,0,0.4,0 c0.1,0.3,0.1,0.6,0.2,0.9c0.5,1.4,1.2,3.4,2.9,4.4c0.5,0.2,1,0.4,1.6,0.4c1.2,0,2-0.6,2.6-1c1.2-1.2,2-2.4,2.6-3.7 c0.1,1.6,0.3,3.2,0.7,4.7c1,3.6,3.3,4.4,6.8,3.9c-1.7-0.1-3.8-0.2-4.8-1.8c-0.9-1.5-0.9-3.3-0.9-5.1c0.1-2.7,0.6-5.4,1.1-8.1 l0.6-2.7l-3.3-0.9c0,0-2.4,6-2.4,6c-0.6,1.6-1.5,3.9-2.7,5c-0.1,0.1-0.2,0.2-0.3,0.2c-0.6-0.5-0.9-1.4-1.3-2.4c-0.6-1.9-0.8-4-1-6 l-3.4,0.1c0,0.6-0.1,1.3-0.1,1.9c-2-2.2-4-5.7-5.7-8.4l-3,1.7c0,0,3.5,6.7,3.5,6.7c1,2.2,3.2,5.1,2.8,7.6c-0.3,1.2-1.3,1.4-2.7,1.5 c-2,0-4.2-0.8-5.8-2.2l-4.2-3.2l1.4,4.9c2,6.1-3.5,10.7-6.9,15c-5.2,6.1-11.1,11.6-17.1,17c-10.7,9.6-22.1,18.6-34.3,26.2 c12.6-7.1,24.3-15.7,35.4-24.9c2.8-2.4,5.6-4.8,8.4-7.2c0.7,6.7,2.9,25.2,6.5,46.3c5.4,31.5,11.5,55.1,18.2,70.6 c-3.9-1.5-7.7-3-11.5-4.7C216.9,783.8,172.9,754.2,135.2,716.4z M716.4,716.4c-37.7,37.7-81.7,67.4-130.6,88.1 c-4.2,1.8-8.5,3.5-12.8,5.1l33.4-127L568,657.5l11.6-9.6l-0.4-0.4c6.4,1.4,13,0.9,17.5-4.7c12.4-1,22.3-1.1,32-9.7 c4.6,3.2,9.2,6.5,13.9,9.7c15.3,10.7,28.4,15.1,41,4.7l-0.4,0.6l58.1,41.1C733.6,698.5,725.2,707.6,716.4,716.4z M804.5,585.8 c-2.8,6.7-5.8,13.3-9,19.8c-2.7-1.4-7.3-3.7-12.9-6.7c-1.2-5.6-5.3-25.3-8.3-45.9c-5.3-36.5-3.3-48.9-1-53l0.2,0 c6.9-1,27.8,23.8,44.5,48.9C814.1,561.4,809.6,573.7,804.5,585.8z M820,542.6c-3.5-5.1-9.4-13.5-15.9-21.7 c-17.7-22.3-25.6-26-30-26.1c-23.8-18.7-67.3-7.6-107.3,6.2c-4.4-4.7-8.1-8.6-11.1-11.4c-10.9-10.4-31.9-22.6-41.4-20.3 c-4.2-3.6-12-7.5-21.5-12.4c-14.3-7.3-32.2-16.5-44.9-27.8l-0.4,0.5c-1.3-3-3-5.1-5.3-6.9l1.2-20.2c6.2-5.6,11.1-11.1,15.2-16.6 c8.5-11.8,12.2-24,13.8-38.2c10.6-2.7,14-11.6,18.6-23.6c1.5-3.9,3.2-8.3,5.3-13c8.3-18.4,6.6-29,4.4-42.4c-0.3-1.8-0.6-3.7-0.9-5.7 c-1.3-8.8-4.9-14.7-10.4-17.1c-2.4-1-5.7-1.7-10.2-0.6c11-49.5,7.8-95.1,3-124.9c-5.3-33.3-13.4-54.2-13.8-55.1l-3.6-9.3l-1.3,6.3 c-5.1-13-9.4-22.4-12.1-28c11.7,3.7,23.2,8,34.6,12.8c48.9,20.7,92.9,50.3,130.6,88.1c37.7,37.7,67.4,81.7,88.1,130.6 c21.4,50.7,32.3,104.5,32.3,160C836.8,465.8,831.2,504.9,820,542.6z"></path> <polygon class="st0" points="568.1,616.1 568.1,616.1 568.1,616.1 "></polygon> <polygon class="st0" points="568.1,616.1 568.1,616.1 568.1,616.1 "></polygon> <path class="st0" d="M327.5,641.6c3.1,2.3,6,4.9,8.1,8c2.1,3.1,3.2,6.8,3.3,10.5c0.2,9.7-0.9,19.5-2.6,29l-0.5,2.9 c-0.6,4.8-3.5,8.9-6.6,12.6c-4.1,4.7-9,9-14.8,11.4c-3.1,1.2-6.8,1.9-9.7,0.1c-4.9-3.1-6.1-10.5-4.5-15.7c-1.7,5.3-0.7,12.8,4.3,16 c3.1,1.9,6.9,1.3,10.1,0.1c6-2.4,11-6.6,15.3-11.4c2.3-2.6,4.4-5.4,5.8-8.6c1-2.1,1.3-4.9,1.8-7.2c1.9-9.6,3.2-19.4,3.2-29.3 c0.1-8.6-5.3-15.3-11.8-20.2c-6.3-4.8-13-8.7-19.1-13.6c-6.2-4.8-12.2-9.8-18.8-14.2c-6.6-4.4-13.8-8.2-21.7-10c0,0-0.7,3.4-0.7,3.4 c15.2,3.2,27.4,13.8,39.7,22.9C314.4,633.1,321.3,637,327.5,641.6z"></path> <path class="st0" d="M452.3,349.3c-6.5,1.3-12.7,1.4-19.1-0.1c-4.4-0.9-8.8-2.6-13.5-2.2c-7,0.6-12.8,4.6-18.9,7.5 c-3.9,1.9-8,3.5-12.4,4.4c4.4-0.1,8.9-1.1,13.1-2.7c6.2-2.1,11.9-5.5,18.3-5.8c4.2-0.1,8.3,1.6,12.6,2.3c6.7,1.4,13.9,0.9,20.3-0.8 c4.2-1,8.4-1.9,12.7-1.2c8.6,1.2,17,5.2,25.9,5.3c-8.9-1-16.7-5.4-25.5-7.3C461.4,347.8,456.7,348.5,452.3,349.3z"></path> <path class="st0" d="M459.3,372.9c-5.2-0.1-10.2-1.2-15.5-1.5c-10.6-0.2-20.8,1.6-31.3,1.7c10.1,2.5,21,1.4,31.2,1.7 c5.1,0.3,10.5,1.3,15.7,0.8c5.4-0.4,10.6-2.1,15.2-4.6C469.4,372.2,464.4,373,459.3,372.9z"></path> <path class="st0" d="M422,328.4c-10,4.8-18.5,12.2-25.7,20.4c7.8-7.5,16.6-14.2,26.6-18.3c1.7-0.6,3.8-1.6,5.6-1.4 c0.8,0.1,1.6,0.6,2.5,1.1c5,3.3,11.2,3.5,16.9,2.5c2.3-0.4,4.5-1.2,6.6-2.1c1.8-0.7,3.4-1.6,5.3-1.4c1.6,0.2,3.5,1.2,5.3,2.3 c7.2,4.5,14.3,10.2,22.4,13.6c-7.5-4.7-13.6-10.8-20.7-16.1c-8.5-6.5-11.2-2-19.6,0.2c-3.9,0.8-8.3,1.1-12-0.1 c-2.2-0.7-3.8-2.2-6.3-2.6C426.3,326.3,424.2,327.4,422,328.4z"></path> <path class="st0" d="M462.3,307.6c17.8-6.1,20.2-12.3,13.8-25.1C479.4,291.1,479,301.6,462.3,307.6z"></path> <path class="st0" d="M476.1,282.5c-1.4-3.6-3.4-6.8-5.2-9.2C472.9,276.7,474.7,279.8,476.1,282.5z"></path> <path class="st0" d="M402.4,293c1.2,7,6.8,14,14.2,14.6c-12.9-6.6-13.3-22.6-7.7-34.3C403.4,278.1,401,285.9,402.4,293z"></path> <path class="st0" d="M420.2,260.1c8.7-15,10.6-37,0-51.5C426.1,225.3,424.4,243.2,420.2,260.1z"></path> <path class="st0" d="M349.1,189.3c9.5,0.2,22.3,2.5,38.4,5.5c8.2,1.5,17.6,3.2,27.6,4.9l0.5,0.1l0.5-0.2c0.6-0.3,1.1-0.8,1.3-1.4 c0.7-2.1-1.2-5.5-7.3-15.4c-0.9-1.4-1.8-2.9-2.8-4.5l-0.3-0.5l-0.5-0.2c-8.9-3.6-40.1-8.9-55.8-10.5l-0.3,0L350,167 c-1,0.3-23.5,6.6-34.9,30.2l-2.3,4.8l4.7-2.5c1.7-0.9,3.3-1.8,4.7-2.6C334,190.4,336.5,189.1,349.1,189.3z M321,193.6 c10.5-16.8,27.2-22.5,29.6-23.2c16.5,1.7,45.5,6.8,54,10c0.8,1.4,1.7,2.7,2.5,4c2.6,4.3,5.5,9,6.6,11.5c-9.3-1.5-17.9-3.1-25.6-4.5 c-16.3-3-29.2-5.4-39-5.5c-0.9,0-1.7,0-2.5,0C335.4,185.8,332.1,187.6,321,193.6z"></path> <path class="st0" d="M459.6,201.1l1.6-0.4c39.7-11.3,58.6-14,61.5-13.5c6,1,22.1,11.7,27.8,15.7l4.3,3l-1.7-5 c-7-20.9-18.6-29.2-27.1-32.5l-0.4-0.2l-64.4,9.8l-0.4,0.7c-5.4,9.6-1.9,20.4-1.7,20.8L459.6,201.1z M463.4,181.2l61.8-9.4 c7.1,2.8,16.3,9.5,22.8,25.2c-6.6-4.4-18.9-12.2-24.7-13.2c-0.3,0-0.7-0.1-1.2-0.1c-5.8,0-25.1,3.3-60.1,13.2 C461.3,193.9,460.4,187.2,463.4,181.2z"></path> <path class="st0" d="M419.8,296.2c-0.7-1.7-1.4-5,1-5.2c0.5,0,1.3,0.1,2,0.4c1.7,0.6,3.7,1.1,5.3,1.5c0.8,0.2,1.4,0.5,2,1 c0.6,0.5,1,1.4,1.5,2.3c0.6-2.1-0.3-4.7-2.3-5.8c-1.8-1.1-3.5-1.7-5.4-2.3c-1.3-0.4-3.1-0.7-4.6,0 C415.7,289.7,416.7,294.8,419.8,296.2z"></path> <path class="st0" d="M450.4,293.9c0.6-0.5,1.2-0.8,2-1c1.6-0.5,3.5-0.9,5.3-1.5c0.7-0.3,1.4-0.4,2-0.4c2.4,0.2,1.7,3.5,1,5.2 c3.1-1.4,4.1-6.5,0.5-8.1c-1.5-0.7-3.3-0.4-4.6,0c-1.9,0.7-3.6,1.2-5.4,2.3c-2,1.1-2.9,3.6-2.3,5.8 C449.3,295.3,449.8,294.4,450.4,293.9z"></path> <path class="st0" d="M360.6,210.8c-4,1.4-7.6,3.7-11.1,6c-4.6,3-8.8,6.5-13.3,9.6c8.4-2.8,15.7-8.1,23.8-11.7 c11.9-4.7,25.2-3.6,37.4-0.3C386.3,208.6,372.6,206.9,360.6,210.8z"></path> <path class="st0" d="M384.9,230.5c1.5-0.7,3-1.6,4.3-2.6c-1.2,0.1-2.4,0.3-3.5,0.5c0.8-2.8,1.1-6.2,0.1-9.4 c5.7,1.2,11.5,3.4,17.9,6.6c-5.8-3.7-12.1-6.8-18.8-8.7c0-0.1-0.1-0.2-0.1-0.2l-0.2,0.1c-2.7-0.7-5.4-1.3-8.2-1.5 c-0.7-0.5-1.5-0.7-2.4-0.7c-0.7,0-1.4,0.2-2,0.5c-2.3,0-4.6,0.2-7,0.6c-8.6,2-16.2,7.1-23.5,11.9c-2.6,1.7-5.3,3.4-8.3,4.3 c6.3-0.9,11.8-4.7,17.4-7.2c3.4-1.7,6.5-3,9.7-4c-0.9,3.4-1.1,7.2,1.3,10.3c-1,0-1.9,0.1-2.9,0.1c1.5,0.7,3.1,1.3,4.7,1.7 c0.3,0.2,0.5,0.4,0.8,0.6l0.2-0.3c6.7,1.5,14.1,0.6,20.3-2.3l0.1,0.1C384.9,230.6,384.9,230.6,384.9,230.5z M374.8,218.8 c0,0.5-0.4,0.9-0.9,0.9s-0.9-0.4-0.9-0.9c0-0.4,0.3-0.7,0.6-0.8c0.1,0,0.3,0,0.4,0C374.5,218.1,374.8,218.4,374.8,218.8z M365.9,230.7l0.2-0.3c-2.3-1.5-4.2-4-1.8-11c1.8-0.5,3.6-0.8,5.4-1.1c0,0.1,0,0.3,0,0.4c0,2.4,1.9,4.3,4.3,4.3 c2.4,0,4.3-1.9,4.3-4.3c0-0.3,0-0.5-0.1-0.8c1.2,0.1,2.4,0.2,3.6,0.3l0,0c1.9,3.3,1.2,7.7,0.1,10.6c-2.6,0.4-5.2,0.8-7.9,1.1 C371.3,230.4,368.6,230.6,365.9,230.7z"></path> <path class="st0" d="M507.6,215.7c-2.3-0.4-4.7-0.6-7-0.6c-0.6-0.3-1.3-0.5-2-0.5c-0.9,0-1.7,0.3-2.4,0.7c-2.8,0.3-5.5,0.8-8.2,1.5 l-0.2-0.1c0,0.1-0.1,0.1-0.1,0.2c-6.6,1.9-13,5-18.8,8.7c6.4-3.1,12.2-5.4,17.9-6.6c-1,3.1-0.7,6.5,0.1,9.4 c-1.2-0.2-2.3-0.3-3.5-0.5c1.3,1,2.8,1.9,4.3,2.6c0,0,0,0.1,0.1,0.2l0.1-0.1c6.2,3,13.6,3.9,20.3,2.3l0.2,0.3 c0.3-0.2,0.6-0.4,0.8-0.6c1.6-0.4,3.2-1,4.7-1.7c-1,0-1.9,0-2.9-0.1c2.4-3.1,2.2-6.9,1.3-10.3c3.1,1,6.3,2.4,9.7,4 c5.7,2.5,11.2,6.3,17.4,7.2c-3-1-5.6-2.6-8.3-4.3C523.8,222.8,516.2,217.6,507.6,215.7z M499.5,218.8c0,0.5-0.4,0.9-0.9,0.9 s-0.9-0.4-0.9-0.9c0-0.4,0.3-0.8,0.7-0.8c0.1,0,0.3,0,0.4,0C499.2,218.1,499.5,218.4,499.5,218.8z M506.4,230.4l0.2,0.3 c-2.7-0.1-5.4-0.3-8.1-0.7c-2.7-0.3-5.3-0.7-7.9-1.1c-1.2-2.9-1.8-7.3,0.1-10.6l0,0c1.2-0.2,2.4-0.3,3.6-0.3c0,0.3-0.1,0.5-0.1,0.8 c0,2.4,1.9,4.3,4.3,4.3c2.4,0,4.3-1.9,4.3-4.3c0-0.1,0-0.3,0-0.4c1.8,0.2,3.6,0.6,5.4,1.1C510.7,226.4,508.7,228.9,506.4,230.4z"></path> <path class="st0" d="M475.3,214.5c11.6-3.2,24-4.2,35.6-0.4c8.8,3.4,16.5,9.5,25.6,12.4c-4.5-3.1-8.7-6.6-13.3-9.6 c-3.5-2.3-7.1-4.6-11.1-6C500,206.9,486.3,208.6,475.3,214.5z"></path> <path class="st0" d="M555,206.5c-2.4,7.2-2.2,14.5-5.3,21.5C556.1,224.3,558.1,212.8,555,206.5z"></path> <path class="st0" d="M439.4,645.9c-8.1,0-14.7,6.6-14.7,14.7c0,8.1,6.6,14.7,14.7,14.7c8.1,0,14.7-6.6,14.7-14.7 C454.1,652.5,447.5,645.9,439.4,645.9z M439.4,671.9c-6.2,0-11.3-5.1-11.3-11.3c0-6.2,5.1-11.3,11.3-11.3c6.2,0,11.3,5.1,11.3,11.3 C450.7,666.8,445.6,671.9,439.4,671.9z"></path> <path class="st0" d="M439.4,651.5c-5,0-9,4.1-9,9s4.1,9,9,9c5,0,9-4.1,9-9S444.4,651.5,439.4,651.5z M439.4,668.8 c-4.5,0-8.2-3.7-8.2-8.2s3.7-8.2,8.2-8.2c4.5,0,8.2,3.7,8.2,8.2S443.9,668.8,439.4,668.8z"></path> </svg> 