<?xml version="1.0" encoding="UTF-8"?> <svg xmlns="http://www.w3.org/2000/svg" width="561" height="382" viewBox="0 0 561 382" fill="none"><g clip-path="url(#clip0_21_571)"><path d="M535.687 59.7037L535.687 25.2815L501.222 25.2815L501.222 59.7037L535.687 59.7037Z" stroke="#D3AA7A" stroke-width="2" stroke-miterlimit="10"></path><path d="M518.456 25.2815L518.456 59.7037" stroke="#D3AA7A" stroke-width="2" stroke-miterlimit="10"></path><path d="M535.687 42.4911L501.222 42.4911" stroke="#D3AA7A" stroke-width="2" stroke-miterlimit="10"></path><path d="M560.699 59.9679L560.699 25.0144L535.955 0.30017L500.958 0.300168L476.21 25.0144L476.21 59.9679L500.958 84.6851L535.955 84.6851L560.699 59.9679Z" stroke="#D3AA7A" stroke-width="2" stroke-miterlimit="10"></path><path d="M535.687 119.107L535.687 84.6851L501.222 84.6851L501.222 119.107L535.687 119.107Z" stroke="#D3AA7A" stroke-width="2" stroke-miterlimit="10"></path><path d="M518.456 84.6851L518.456 119.107" stroke="#D3AA7A" stroke-width="2" stroke-miterlimit="10"></path><path d="M535.687 101.895L501.222 101.895" stroke="#D3AA7A" stroke-width="2" stroke-miterlimit="10"></path><path d="M560.699 119.371L560.699 84.4179L535.955 59.7037L500.958 59.7037L476.21 84.4179L476.21 119.371L500.958 144.089L535.955 144.089L560.699 119.371Z" stroke="#D3AA7A" stroke-width="2" stroke-miterlimit="10"></path><path d="M535.687 178.511L535.687 144.089L501.222 144.089L501.222 178.511L535.687 178.511Z" stroke="#D3AA7A" stroke-width="2" stroke-miterlimit="10"></path><path d="M518.456 144.089L518.456 178.508" stroke="#D3AA7A" stroke-width="2" stroke-miterlimit="10"></path><path d="M535.687 161.298L501.222 161.298" stroke="#D3AA7A" stroke-width="2" stroke-miterlimit="10"></path><path d="M560.699 178.775L560.699 143.821L535.955 119.107L500.958 119.107L476.21 143.821L476.21 178.775L500.958 203.489L535.955 203.489L560.699 178.775Z" stroke="#D3AA7A" stroke-width="2" stroke-miterlimit="10"></path><path d="M476.21 59.7037L476.21 25.2815L441.745 25.2815L441.745 59.7037L476.21 59.7037Z" stroke="#D3AA7A" stroke-width="2" stroke-miterlimit="10"></path><path d="M458.979 25.2815L458.979 59.7037" stroke="#D3AA7A" stroke-width="2" stroke-miterlimit="10"></path><path d="M476.21 42.4911L441.745 42.4911" stroke="#D3AA7A" stroke-width="2" stroke-miterlimit="10"></path><path d="M501.222 59.9679L501.222 25.0144L476.478 0.30017L441.481 0.300168L416.733 25.0144L416.733 59.9679L441.481 84.6851L476.478 84.6851L501.222 59.9679Z" stroke="#D3AA7A" stroke-width="2" stroke-miterlimit="10"></path><path d="M476.21 119.107L476.21 84.6851L441.745 84.6851L441.745 119.107L476.21 119.107Z" stroke="#D3AA7A" stroke-width="2" stroke-miterlimit="10"></path><path d="M458.979 84.6851L458.979 119.107" stroke="#D3AA7A" stroke-width="2" stroke-miterlimit="10"></path><path d="M476.21 101.895L441.745 101.895" stroke="#D3AA7A" stroke-width="2" stroke-miterlimit="10"></path><path d="M501.222 119.371L501.222 84.4179L476.478 59.7037L441.481 59.7037L416.733 84.4179L416.733 119.371L441.481 144.089L476.478 144.089L501.222 119.371Z" stroke="#D3AA7A" stroke-width="2" stroke-miterlimit="10"></path><path d="M476.21 178.511L476.21 144.089L441.745 144.089L441.745 178.511L476.21 178.511Z" stroke="#D3AA7A" stroke-width="2" stroke-miterlimit="10"></path><path d="M458.979 144.089L458.979 178.508" stroke="#D3AA7A" stroke-width="2" stroke-miterlimit="10"></path><path d="M476.21 161.298L441.745 161.298" stroke="#D3AA7A" stroke-width="2" stroke-miterlimit="10"></path><path d="M501.222 178.775L501.222 143.821L476.478 119.107L441.481 119.107L416.733 143.821L416.733 178.775L441.481 203.489L476.478 203.489L501.222 178.775Z" stroke="#D3AA7A" stroke-width="2" stroke-miterlimit="10"></path><path d="M416.733 59.7037L416.733 25.2815L382.268 25.2815L382.268 59.7037L416.733 59.7037Z" stroke="#D3AA7A" stroke-width="2" stroke-miterlimit="10"></path><path d="M399.502 25.2815L399.502 59.7037" stroke="#D3AA7A" stroke-width="2" stroke-miterlimit="10"></path><path d="M416.733 42.4911L382.271 42.4911" stroke="#D3AA7A" stroke-width="2" stroke-miterlimit="10"></path><path d="M441.745 59.9679L441.745 25.0144L417.001 0.30017L382.004 0.300168L357.259 25.0144L357.259 59.9679L382.004 84.6851L417.001 84.6851L441.745 59.9679Z" stroke="#D3AA7A" stroke-width="2" stroke-miterlimit="10"></path><path d="M416.733 119.107L416.733 84.6851L382.268 84.6851L382.268 119.107L416.733 119.107Z" stroke="#D3AA7A" stroke-width="2" stroke-miterlimit="10"></path><path d="M399.502 84.6851L399.502 119.107" stroke="#D3AA7A" stroke-width="2" stroke-miterlimit="10"></path><path d="M416.733 101.895L382.271 101.895" stroke="#D3AA7A" stroke-width="2" stroke-miterlimit="10"></path><path d="M441.745 119.371L441.745 84.4179L417.001 59.7037L382.004 59.7037L357.259 84.4179L357.259 119.371L382.004 144.089L417.001 144.089L441.745 119.371Z" stroke="#D3AA7A" stroke-width="2" stroke-miterlimit="10"></path><path d="M416.733 178.511L416.733 144.089L382.268 144.089L382.268 178.511L416.733 178.511Z" stroke="#D3AA7A" stroke-width="2" stroke-miterlimit="10"></path><path d="M399.502 144.089L399.502 178.508" stroke="#D3AA7A" stroke-width="2" stroke-miterlimit="10"></path><path d="M416.733 161.298L382.271 161.298" stroke="#D3AA7A" stroke-width="2" stroke-miterlimit="10"></path><path d="M441.745 178.775L441.745 143.821L417.001 119.107L382.004 119.107L357.259 143.821L357.259 178.775L382.004 203.489L417.001 203.489L441.745 178.775Z" stroke="#D3AA7A" stroke-width="2" stroke-miterlimit="10"></path><path d="M535.687 237.911L535.687 203.489L501.222 203.489L501.222 237.911L535.687 237.911Z" stroke="#D3AA7A" stroke-width="2" stroke-miterlimit="10"></path><path d="M518.456 203.489L518.456 237.911" stroke="#D3AA7A" stroke-width="2" stroke-miterlimit="10"></path><path d="M535.687 220.702L501.222 220.702" stroke="#D3AA7A" stroke-width="2" stroke-miterlimit="10"></path><path d="M560.699 238.179L560.699 203.225L535.955 178.508L500.958 178.508L476.21 203.225L476.21 238.179L500.958 262.893L535.955 262.893L560.699 238.179Z" stroke="#D3AA7A" stroke-width="2" stroke-miterlimit="10"></path><path d="M535.687 297.315L535.687 262.893L501.222 262.893L501.222 297.315L535.687 297.315Z" stroke="#D3AA7A" stroke-width="2" stroke-miterlimit="10"></path><path d="M518.456 262.893L518.456 297.315" stroke="#D3AA7A" stroke-width="2" stroke-miterlimit="10"></path><path d="M535.687 280.105L501.222 280.105" stroke="#D3AA7A" stroke-width="2" stroke-miterlimit="10"></path><path d="M560.699 297.582L560.699 262.629L535.955 237.911L500.958 237.911L476.21 262.629L476.21 297.582L500.958 322.296L535.955 322.296L560.699 297.582Z" stroke="#D3AA7A" stroke-width="2" stroke-miterlimit="10"></path><path d="M535.687 356.718L535.687 322.296L501.222 322.296L501.222 356.718L535.687 356.718Z" stroke="#D3AA7A" stroke-width="2" stroke-miterlimit="10"></path><path d="M518.456 322.296L518.456 356.718" stroke="#D3AA7A" stroke-width="2" stroke-miterlimit="10"></path><path d="M535.687 339.509L501.222 339.509" stroke="#D3AA7A" stroke-width="2" stroke-miterlimit="10"></path><path d="M560.699 356.983L560.699 322.032L535.955 297.315L500.958 297.315L476.21 322.032L476.21 356.983L500.958 381.7L535.955 381.7L560.699 356.983Z" stroke="#D3AA7A" stroke-width="2" stroke-miterlimit="10"></path><path d="M476.21 237.911L476.21 203.489L441.745 203.489L441.745 237.911L476.21 237.911Z" stroke="#D3AA7A" stroke-width="2" stroke-miterlimit="10"></path><path d="M458.979 203.489L458.979 237.911" stroke="#D3AA7A" stroke-width="2" stroke-miterlimit="10"></path><path d="M476.21 220.702L441.745 220.702" stroke="#D3AA7A" stroke-width="2" stroke-miterlimit="10"></path><path d="M501.222 238.179L501.222 203.225L476.478 178.508L441.481 178.508L416.733 203.225L416.733 238.179L441.481 262.893L476.478 262.893L501.222 238.179Z" stroke="#D3AA7A" stroke-width="2" stroke-miterlimit="10"></path><path d="M476.21 297.315L476.21 262.893L441.745 262.893L441.745 297.315L476.21 297.315Z" stroke="#D3AA7A" stroke-width="2" stroke-miterlimit="10"></path><path d="M458.979 262.893L458.979 297.315" stroke="#D3AA7A" stroke-width="2" stroke-miterlimit="10"></path><path d="M476.21 280.105L441.745 280.105" stroke="#D3AA7A" stroke-width="2" stroke-miterlimit="10"></path><path d="M501.222 297.582L501.222 262.629L476.478 237.911L441.481 237.911L416.733 262.629L416.733 297.582L441.481 322.296L476.478 322.296L501.222 297.582Z" stroke="#D3AA7A" stroke-width="2" stroke-miterlimit="10"></path><path d="M476.21 356.718L476.21 322.296L441.745 322.296L441.745 356.718L476.21 356.718Z" stroke="#D3AA7A" stroke-width="2" stroke-miterlimit="10"></path><path d="M458.979 322.296L458.979 356.718" stroke="#D3AA7A" stroke-width="2" stroke-miterlimit="10"></path><path d="M476.21 339.509L441.745 339.509" stroke="#D3AA7A" stroke-width="2" stroke-miterlimit="10"></path><path d="M501.222 356.983L501.222 322.032L476.478 297.315L441.481 297.315L416.733 322.032L416.733 356.983L441.481 381.7L476.478 381.7L501.222 356.983Z" stroke="#D3AA7A" stroke-width="2" stroke-miterlimit="10"></path><path d="M416.733 237.911L416.733 203.489L382.268 203.489L382.268 237.911L416.733 237.911Z" stroke="#D3AA7A" stroke-width="2" stroke-miterlimit="10"></path><path d="M399.502 203.489L399.502 237.911" stroke="#D3AA7A" stroke-width="2" stroke-miterlimit="10"></path><path d="M416.733 220.702L382.271 220.702" stroke="#D3AA7A" stroke-width="2" stroke-miterlimit="10"></path><path d="M441.745 238.179L441.745 203.225L417.001 178.508L382.004 178.508L357.259 203.225L357.259 238.179L382.004 262.893L417.001 262.893L441.745 238.179Z" stroke="#D3AA7A" stroke-width="2" stroke-miterlimit="10"></path><path d="M416.733 297.315L416.733 262.893L382.268 262.893L382.268 297.315L416.733 297.315Z" stroke="#D3AA7A" stroke-width="2" stroke-miterlimit="10"></path><path d="M399.502 262.893L399.502 297.315" stroke="#D3AA7A" stroke-width="2" stroke-miterlimit="10"></path><path d="M416.733 280.105L382.271 280.105" stroke="#D3AA7A" stroke-width="2" stroke-miterlimit="10"></path><path d="M441.745 297.582L441.745 262.629L417.001 237.911L382.004 237.911L357.259 262.629L357.259 297.582L382.004 322.296L417.001 322.296L441.745 297.582Z" stroke="#D3AA7A" stroke-width="2" stroke-miterlimit="10"></path><path d="M416.733 356.718L416.733 322.296L382.268 322.296L382.268 356.718L416.733 356.718Z" stroke="#D3AA7A" stroke-width="2" stroke-miterlimit="10"></path><path d="M399.502 322.296L399.502 356.718" stroke="#D3AA7A" stroke-width="2" stroke-miterlimit="10"></path><path d="M416.733 339.509L382.271 339.509" stroke="#D3AA7A" stroke-width="2" stroke-miterlimit="10"></path><path d="M441.745 356.983L441.745 322.032L417.001 297.315L382.004 297.315L357.259 322.032L357.259 356.983L382.004 381.7L417.001 381.7L441.745 356.983Z" stroke="#D3AA7A" stroke-width="2" stroke-miterlimit="10"></path><path d="M357.16 59.7037L357.16 25.2815L322.695 25.2815L322.695 59.7037L357.16 59.7037Z" stroke="#D3AA7A" stroke-width="2" stroke-miterlimit="10"></path><path d="M339.926 25.2815L339.926 59.7037" stroke="#D3AA7A" stroke-width="2" stroke-miterlimit="10"></path><path d="M357.16 42.4911L322.695 42.4911" stroke="#D3AA7A" stroke-width="2" stroke-miterlimit="10"></path><path d="M382.169 59.9679L382.169 25.0144L357.424 0.30017L322.428 0.300168L297.683 25.0144L297.683 59.9679L322.428 84.6851L357.424 84.6851L382.169 59.9679Z" stroke="#D3AA7A" stroke-width="2" stroke-miterlimit="10"></path><path d="M357.16 119.107L357.16 84.6851L322.695 84.6851L322.695 119.107L357.16 119.107Z" stroke="#D3AA7A" stroke-width="2" stroke-miterlimit="10"></path><path d="M339.926 84.6851L339.926 119.107" stroke="#D3AA7A" stroke-width="2" stroke-miterlimit="10"></path><path d="M357.16 101.895L322.695 101.895" stroke="#D3AA7A" stroke-width="2" stroke-miterlimit="10"></path><path d="M382.169 119.371L382.169 84.4179L357.424 59.7037L322.428 59.7037L297.683 84.4179L297.683 119.371L322.428 144.089L357.424 144.089L382.169 119.371Z" stroke="#D3AA7A" stroke-width="2" stroke-miterlimit="10"></path><path d="M357.16 178.511L357.16 144.089L322.695 144.089L322.695 178.511L357.16 178.511Z" stroke="#D3AA7A" stroke-width="2" stroke-miterlimit="10"></path><path d="M339.926 144.089L339.926 178.508" stroke="#D3AA7A" stroke-width="2" stroke-miterlimit="10"></path><path d="M357.16 161.298L322.695 161.298" stroke="#D3AA7A" stroke-width="2" stroke-miterlimit="10"></path><path d="M382.169 178.775L382.169 143.821L357.424 119.107L322.428 119.107L297.683 143.821L297.683 178.775L322.428 203.489L357.424 203.489L382.169 178.775Z" stroke="#D3AA7A" stroke-width="2" stroke-miterlimit="10"></path><path d="M297.683 59.7037L297.683 25.2815L263.218 25.2815L263.218 59.7037L297.683 59.7037Z" stroke="#D3AA7A" stroke-width="2" stroke-miterlimit="10"></path><path d="M280.449 25.2815L280.449 59.7037" stroke="#D3AA7A" stroke-width="2" stroke-miterlimit="10"></path><path d="M297.683 42.4911L263.218 42.4911" stroke="#D3AA7A" stroke-width="2" stroke-miterlimit="10"></path><path d="M322.695 59.9679L322.695 25.0144L297.947 0.30017L262.951 0.300168L238.206 25.0144L238.206 59.9679L262.951 84.6851L297.947 84.6851L322.695 59.9679Z" stroke="#D3AA7A" stroke-width="2" stroke-miterlimit="10"></path><path d="M297.683 119.107L297.683 84.6851L263.218 84.6851L263.218 119.107L297.683 119.107Z" stroke="#D3AA7A" stroke-width="2" stroke-miterlimit="10"></path><path d="M280.449 84.6851L280.449 119.107" stroke="#D3AA7A" stroke-width="2" stroke-miterlimit="10"></path><path d="M297.683 101.895L263.218 101.895" stroke="#D3AA7A" stroke-width="2" stroke-miterlimit="10"></path><path d="M322.695 119.371L322.695 84.4179L297.947 59.7037L262.951 59.7037L238.206 84.4179L238.206 119.371L262.951 144.089L297.947 144.089L322.695 119.371Z" stroke="#D3AA7A" stroke-width="2" stroke-miterlimit="10"></path><path d="M297.683 178.511L297.683 144.089L263.218 144.089L263.218 178.511L297.683 178.511Z" stroke="#D3AA7A" stroke-width="2" stroke-miterlimit="10"></path><path d="M280.449 144.089L280.449 178.508" stroke="#D3AA7A" stroke-width="2" stroke-miterlimit="10"></path><path d="M297.683 161.298L263.218 161.298" stroke="#D3AA7A" stroke-width="2" stroke-miterlimit="10"></path><path d="M322.695 178.775L322.695 143.821L297.947 119.107L262.951 119.107L238.206 143.821L238.206 178.775L262.951 203.489L297.947 203.489L322.695 178.775Z" stroke="#D3AA7A" stroke-width="2" stroke-miterlimit="10"></path><path d="M238.206 59.7037L238.206 25.2815L203.741 25.2815L203.741 59.7037L238.206 59.7037Z" stroke="#D3AA7A" stroke-width="2" stroke-miterlimit="10"></path><path d="M220.972 25.2815L220.972 59.7037" stroke="#D3AA7A" stroke-width="2" stroke-miterlimit="10"></path><path d="M238.206 42.4911L203.741 42.4911" stroke="#D3AA7A" stroke-width="2" stroke-miterlimit="10"></path><path d="M263.218 59.9679L263.218 25.0144L238.47 0.30017L203.473 0.300168L178.729 25.0144L178.729 59.9679L203.473 84.6851L238.47 84.6851L263.218 59.9679Z" stroke="#D3AA7A" stroke-width="2" stroke-miterlimit="10"></path><path d="M238.206 119.107L238.206 84.6851L203.741 84.6851L203.741 119.107L238.206 119.107Z" stroke="#D3AA7A" stroke-width="2" stroke-miterlimit="10"></path><path d="M220.972 84.6851L220.972 119.107" stroke="#D3AA7A" stroke-width="2" stroke-miterlimit="10"></path><path d="M238.206 101.895L203.741 101.895" stroke="#D3AA7A" stroke-width="2" stroke-miterlimit="10"></path><path d="M263.218 119.371L263.218 84.4179L238.47 59.7037L203.473 59.7037L178.729 84.4179L178.729 119.371L203.473 144.089L238.47 144.089L263.218 119.371Z" stroke="#D3AA7A" stroke-width="2" stroke-miterlimit="10"></path><path d="M238.206 178.511L238.206 144.089L203.741 144.089L203.741 178.511L238.206 178.511Z" stroke="#D3AA7A" stroke-width="2" stroke-miterlimit="10"></path><path d="M220.972 144.089L220.972 178.508" stroke="#D3AA7A" stroke-width="2" stroke-miterlimit="10"></path><path d="M238.206 161.298L203.741 161.298" stroke="#D3AA7A" stroke-width="2" stroke-miterlimit="10"></path><path d="M263.218 178.775L263.218 143.821L238.47 119.107L203.473 119.107L178.729 143.821L178.729 178.775L203.473 203.489L238.47 203.489L263.218 178.775Z" stroke="#D3AA7A" stroke-width="2" stroke-miterlimit="10"></path><path d="M357.16 237.911L357.16 203.489L322.695 203.489L322.695 237.911L357.16 237.911Z" stroke="#D3AA7A" stroke-width="2" stroke-miterlimit="10"></path><path d="M339.926 203.489L339.926 237.911" stroke="#D3AA7A" stroke-width="2" stroke-miterlimit="10"></path><path d="M357.16 220.702L322.695 220.702" stroke="#D3AA7A" stroke-width="2" stroke-miterlimit="10"></path><path d="M382.169 238.179L382.169 203.225L357.424 178.508L322.428 178.508L297.683 203.225L297.683 238.179L322.428 262.893L357.424 262.893L382.169 238.179Z" stroke="#D3AA7A" stroke-width="2" stroke-miterlimit="10"></path><path d="M357.16 297.315L357.16 262.893L322.695 262.893L322.695 297.315L357.16 297.315Z" stroke="#D3AA7A" stroke-width="2" stroke-miterlimit="10"></path><path d="M339.926 262.893L339.926 297.315" stroke="#D3AA7A" stroke-width="2" stroke-miterlimit="10"></path><path d="M357.16 280.105L322.695 280.105" stroke="#D3AA7A" stroke-width="2" stroke-miterlimit="10"></path><path d="M382.169 297.582L382.169 262.629L357.424 237.911L322.428 237.911L297.683 262.629L297.683 297.582L322.428 322.296L357.424 322.296L382.169 297.582Z" stroke="#D3AA7A" stroke-width="2" stroke-miterlimit="10"></path><path d="M357.16 356.718L357.16 322.296L322.695 322.296L322.695 356.718L357.16 356.718Z" stroke="#D3AA7A" stroke-width="2" stroke-miterlimit="10"></path><path d="M339.926 322.296L339.926 356.718" stroke="#D3AA7A" stroke-width="2" stroke-miterlimit="10"></path><path d="M357.16 339.509L322.695 339.509" stroke="#D3AA7A" stroke-width="2" stroke-miterlimit="10"></path><path d="M382.169 356.983L382.169 322.032L357.424 297.315L322.428 297.315L297.683 322.032L297.683 356.983L322.428 381.7L357.424 381.7L382.169 356.983Z" stroke="#D3AA7A" stroke-width="2" stroke-miterlimit="10"></path><path d="M297.683 237.911L297.683 203.489L263.218 203.489L263.218 237.911L297.683 237.911Z" stroke="#D3AA7A" stroke-width="2" stroke-miterlimit="10"></path><path d="M280.449 203.489L280.449 237.911" stroke="#D3AA7A" stroke-width="2" stroke-miterlimit="10"></path><path d="M297.683 220.702L263.218 220.702" stroke="#D3AA7A" stroke-width="2" stroke-miterlimit="10"></path><path d="M322.695 238.179L322.695 203.225L297.947 178.508L262.951 178.508L238.206 203.225L238.206 238.179L262.951 262.893L297.947 262.893L322.695 238.179Z" stroke="#D3AA7A" stroke-width="2" stroke-miterlimit="10"></path><path d="M297.683 297.315L297.683 262.893L263.218 262.893L263.218 297.315L297.683 297.315Z" stroke="#D3AA7A" stroke-width="2" stroke-miterlimit="10"></path><path d="M280.449 262.893L280.449 297.315" stroke="#D3AA7A" stroke-width="2" stroke-miterlimit="10"></path><path d="M297.683 280.105L263.218 280.105" stroke="#D3AA7A" stroke-width="2" stroke-miterlimit="10"></path><path d="M322.695 297.582L322.695 262.629L297.947 237.911L262.951 237.911L238.206 262.629L238.206 297.582L262.951 322.296L297.947 322.296L322.695 297.582Z" stroke="#D3AA7A" stroke-width="2" stroke-miterlimit="10"></path><path d="M297.683 356.718L297.683 322.296L263.218 322.296L263.218 356.718L297.683 356.718Z" stroke="#D3AA7A" stroke-width="2" stroke-miterlimit="10"></path><path d="M280.449 322.296L280.449 356.718" stroke="#D3AA7A" stroke-width="2" stroke-miterlimit="10"></path><path d="M297.683 339.509L263.218 339.509" stroke="#D3AA7A" stroke-width="2" stroke-miterlimit="10"></path><path d="M322.695 356.983L322.695 322.032L297.947 297.315L262.951 297.315L238.206 322.032L238.206 356.983L262.951 381.7L297.947 381.7L322.695 356.983Z" stroke="#D3AA7A" stroke-width="2" stroke-miterlimit="10"></path><path d="M238.206 237.911L238.206 203.489L203.741 203.489L203.741 237.911L238.206 237.911Z" stroke="#D3AA7A" stroke-width="2" stroke-miterlimit="10"></path><path d="M220.972 203.489L220.972 237.911" stroke="#D3AA7A" stroke-width="2" stroke-miterlimit="10"></path><path d="M238.206 220.702L203.741 220.702" stroke="#D3AA7A" stroke-width="2" stroke-miterlimit="10"></path><path d="M263.218 238.179L263.218 203.225L238.47 178.508L203.473 178.508L178.729 203.225L178.729 238.179L203.473 262.893L238.47 262.893L263.218 238.179Z" stroke="#D3AA7A" stroke-width="2" stroke-miterlimit="10"></path><path d="M238.206 297.315L238.206 262.893L203.741 262.893L203.741 297.315L238.206 297.315Z" stroke="#D3AA7A" stroke-width="2" stroke-miterlimit="10"></path><path d="M220.972 262.893L220.972 297.315" stroke="#D3AA7A" stroke-width="2" stroke-miterlimit="10"></path><path d="M238.206 280.105L203.741 280.105" stroke="#D3AA7A" stroke-width="2" stroke-miterlimit="10"></path><path d="M263.218 297.582L263.218 262.629L238.47 237.911L203.473 237.911L178.729 262.629L178.729 297.582L203.473 322.296L238.47 322.296L263.218 297.582Z" stroke="#D3AA7A" stroke-width="2" stroke-miterlimit="10"></path><path d="M238.206 356.718L238.206 322.296L203.741 322.296L203.741 356.718L238.206 356.718Z" stroke="#D3AA7A" stroke-width="2" stroke-miterlimit="10"></path><path d="M220.972 322.296L220.972 356.718" stroke="#D3AA7A" stroke-width="2" stroke-miterlimit="10"></path><path d="M238.206 339.509L203.741 339.509" stroke="#D3AA7A" stroke-width="2" stroke-miterlimit="10"></path><path d="M263.218 356.983L263.218 322.032L238.47 297.315L203.473 297.315L178.729 322.032L178.729 356.983L203.473 381.7L238.47 381.7L263.218 356.983Z" stroke="#D3AA7A" stroke-width="2" stroke-miterlimit="10"></path><path d="M178.729 59.7037L178.729 25.2815L144.264 25.2815L144.264 59.7037L178.729 59.7037Z" stroke="#D3AA7A" stroke-width="2" stroke-miterlimit="10"></path><path d="M161.498 25.2815L161.498 59.7037" stroke="#D3AA7A" stroke-width="2" stroke-miterlimit="10"></path><path d="M178.729 42.4911L144.264 42.4911" stroke="#D3AA7A" stroke-width="2" stroke-miterlimit="10"></path><path d="M203.741 59.9679L203.741 25.0144L178.996 0.30017L143.999 0.300168L119.252 25.0144L119.252 59.9679L143.999 84.6851L178.996 84.6851L203.741 59.9679Z" stroke="#D3AA7A" stroke-width="2" stroke-miterlimit="10"></path><path d="M178.729 119.107L178.729 84.6851L144.264 84.6851L144.264 119.107L178.729 119.107Z" stroke="#D3AA7A" stroke-width="2" stroke-miterlimit="10"></path><path d="M161.498 84.6851L161.498 119.107" stroke="#D3AA7A" stroke-width="2" stroke-miterlimit="10"></path><path d="M178.729 101.895L144.264 101.895" stroke="#D3AA7A" stroke-width="2" stroke-miterlimit="10"></path><path d="M203.741 119.371L203.741 84.4179L178.996 59.7037L143.999 59.7037L119.252 84.4179L119.252 119.371L143.999 144.089L178.996 144.089L203.741 119.371Z" stroke="#D3AA7A" stroke-width="2" stroke-miterlimit="10"></path><path d="M178.729 178.511L178.729 144.089L144.264 144.089L144.264 178.511L178.729 178.511Z" stroke="#D3AA7A" stroke-width="2" stroke-miterlimit="10"></path><path d="M161.498 144.089L161.498 178.508" stroke="#D3AA7A" stroke-width="2" stroke-miterlimit="10"></path><path d="M178.729 161.298L144.264 161.298" stroke="#D3AA7A" stroke-width="2" stroke-miterlimit="10"></path><path d="M203.741 178.775L203.741 143.821L178.996 119.107L143.999 119.107L119.252 143.821L119.252 178.775L143.999 203.489L178.996 203.489L203.741 178.775Z" stroke="#D3AA7A" stroke-width="2" stroke-miterlimit="10"></path><path d="M119.252 59.7037L119.252 25.2815L84.7868 25.2815L84.7868 59.7037L119.252 59.7037Z" stroke="#D3AA7A" stroke-width="2" stroke-miterlimit="10"></path><path d="M102.021 25.2815L102.021 59.7037" stroke="#D3AA7A" stroke-width="2" stroke-miterlimit="10"></path><path d="M119.252 42.4911L84.7868 42.4911" stroke="#D3AA7A" stroke-width="2" stroke-miterlimit="10"></path><path d="M144.264 59.9679L144.264 25.0144L119.519 0.30017L84.5224 0.300168L59.7746 25.0144L59.7746 59.9679L84.5224 84.6851L119.519 84.6851L144.264 59.9679Z" stroke="#D3AA7A" stroke-width="2" stroke-miterlimit="10"></path><path d="M119.252 119.107L119.252 84.6851L84.7868 84.6851L84.7868 119.107L119.252 119.107Z" stroke="#D3AA7A" stroke-width="2" stroke-miterlimit="10"></path><path d="M102.021 84.6851L102.021 119.107" stroke="#D3AA7A" stroke-width="2" stroke-miterlimit="10"></path><path d="M119.252 101.895L84.7868 101.895" stroke="#D3AA7A" stroke-width="2" stroke-miterlimit="10"></path><path d="M144.264 119.371L144.264 84.4179L119.519 59.7037L84.5224 59.7037L59.7746 84.4179L59.7746 119.371L84.5224 144.089L119.519 144.089L144.264 119.371Z" stroke="#D3AA7A" stroke-width="2" stroke-miterlimit="10"></path><path d="M119.252 178.511L119.252 144.089L84.7868 144.089L84.7868 178.511L119.252 178.511Z" stroke="#D3AA7A" stroke-width="2" stroke-miterlimit="10"></path><path d="M102.021 144.089L102.021 178.508" stroke="#D3AA7A" stroke-width="2" stroke-miterlimit="10"></path><path d="M119.252 161.298L84.7868 161.298" stroke="#D3AA7A" stroke-width="2" stroke-miterlimit="10"></path><path d="M144.264 178.775L144.264 143.821L119.519 119.107L84.5224 119.107L59.7746 143.821L59.7746 178.775L84.5224 203.489L119.519 203.489L144.264 178.775Z" stroke="#D3AA7A" stroke-width="2" stroke-miterlimit="10"></path><path d="M59.7745 59.7037L59.7745 25.2815L25.3098 25.2815L25.3098 59.7037L59.7745 59.7037Z" stroke="#D3AA7A" stroke-width="2" stroke-miterlimit="10"></path><path d="M42.5437 25.2815L42.5437 59.7037" stroke="#D3AA7A" stroke-width="2" stroke-miterlimit="10"></path><path d="M59.7745 42.4911L25.3098 42.4911" stroke="#D3AA7A" stroke-width="2" stroke-miterlimit="10"></path><path d="M84.7869 59.9679L84.7869 25.0144L60.0421 0.30017L25.0453 0.300168L0.300517 25.0144L0.300515 59.9679L25.0453 84.6851L60.0421 84.6851L84.7869 59.9679Z" stroke="#D3AA7A" stroke-width="2" stroke-miterlimit="10"></path><path d="M59.7745 119.107L59.7745 84.6851L25.3098 84.6851L25.3098 119.107L59.7745 119.107Z" stroke="#D3AA7A" stroke-width="2" stroke-miterlimit="10"></path><path d="M42.5437 84.6851L42.5437 119.107" stroke="#D3AA7A" stroke-width="2" stroke-miterlimit="10"></path><path d="M59.7745 101.895L25.3098 101.895" stroke="#D3AA7A" stroke-width="2" stroke-miterlimit="10"></path><path d="M84.7869 119.371L84.7869 84.4179L60.0421 59.7037L25.0453 59.7037L0.300517 84.4179L0.300515 119.371L25.0453 144.089L60.0421 144.089L84.7869 119.371Z" stroke="#D3AA7A" stroke-width="2" stroke-miterlimit="10"></path><path d="M59.7745 178.511L59.7745 144.089L25.3098 144.089L25.3098 178.511L59.7745 178.511Z" stroke="#D3AA7A" stroke-width="2" stroke-miterlimit="10"></path><path d="M42.5437 144.089L42.5437 178.508" stroke="#D3AA7A" stroke-width="2" stroke-miterlimit="10"></path><path d="M59.7745 161.298L25.3098 161.298" stroke="#D3AA7A" stroke-width="2" stroke-miterlimit="10"></path><path d="M84.7869 178.775L84.7869 143.821L60.0421 119.107L25.0453 119.107L0.300517 143.821L0.300515 178.775L25.0453 203.489L60.0421 203.489L84.7869 178.775Z" stroke="#D3AA7A" stroke-width="2" stroke-miterlimit="10"></path><path d="M178.729 237.911L178.729 203.489L144.264 203.489L144.264 237.911L178.729 237.911Z" stroke="#D3AA7A" stroke-width="2" stroke-miterlimit="10"></path><path d="M161.498 203.489L161.498 237.911" stroke="#D3AA7A" stroke-width="2" stroke-miterlimit="10"></path><path d="M178.729 220.702L144.264 220.702" stroke="#D3AA7A" stroke-width="2" stroke-miterlimit="10"></path><path d="M203.741 238.179L203.741 203.225L178.996 178.508L143.999 178.508L119.252 203.225L119.252 238.179L143.999 262.893L178.996 262.893L203.741 238.179Z" stroke="#D3AA7A" stroke-width="2" stroke-miterlimit="10"></path><path d="M178.729 297.315L178.729 262.893L144.264 262.893L144.264 297.315L178.729 297.315Z" stroke="#D3AA7A" stroke-width="2" stroke-miterlimit="10"></path><path d="M161.498 262.893L161.498 297.315" stroke="#D3AA7A" stroke-width="2" stroke-miterlimit="10"></path><path d="M178.729 280.105L144.264 280.105" stroke="#D3AA7A" stroke-width="2" stroke-miterlimit="10"></path><path d="M203.741 297.582L203.741 262.629L178.996 237.911L143.999 237.911L119.252 262.629L119.252 297.582L143.999 322.296L178.996 322.296L203.741 297.582Z" stroke="#D3AA7A" stroke-width="2" stroke-miterlimit="10"></path><path d="M178.729 356.718L178.729 322.296L144.264 322.296L144.264 356.718L178.729 356.718Z" stroke="#D3AA7A" stroke-width="2" stroke-miterlimit="10"></path><path d="M161.498 322.296L161.498 356.718" stroke="#D3AA7A" stroke-width="2" stroke-miterlimit="10"></path><path d="M178.729 339.509L144.264 339.509" stroke="#D3AA7A" stroke-width="2" stroke-miterlimit="10"></path><path d="M203.741 356.983L203.741 322.032L178.996 297.315L143.999 297.315L119.252 322.032L119.252 356.983L143.999 381.7L178.996 381.7L203.741 356.983Z" stroke="#D3AA7A" stroke-width="2" stroke-miterlimit="10"></path><path d="M119.252 237.911L119.252 203.489L84.7868 203.489L84.7868 237.911L119.252 237.911Z" stroke="#D3AA7A" stroke-width="2" stroke-miterlimit="10"></path><path d="M102.021 203.489L102.021 237.911" stroke="#D3AA7A" stroke-width="2" stroke-miterlimit="10"></path><path d="M119.252 220.702L84.7868 220.702" stroke="#D3AA7A" stroke-width="2" stroke-miterlimit="10"></path><path d="M144.264 238.179L144.264 203.225L119.519 178.508L84.5224 178.508L59.7746 203.225L59.7746 238.179L84.5224 262.893L119.519 262.893L144.264 238.179Z" stroke="#D3AA7A" stroke-width="2" stroke-miterlimit="10"></path><path d="M119.252 297.315L119.252 262.893L84.7868 262.893L84.7868 297.315L119.252 297.315Z" stroke="#D3AA7A" stroke-width="2" stroke-miterlimit="10"></path><path d="M102.021 262.893L102.021 297.315" stroke="#D3AA7A" stroke-width="2" stroke-miterlimit="10"></path><path d="M119.252 280.105L84.7868 280.105" stroke="#D3AA7A" stroke-width="2" stroke-miterlimit="10"></path><path d="M144.264 297.582L144.264 262.629L119.519 237.911L84.5224 237.911L59.7746 262.629L59.7746 297.582L84.5224 322.296L119.519 322.296L144.264 297.582Z" stroke="#D3AA7A" stroke-width="2" stroke-miterlimit="10"></path><path d="M119.252 356.718L119.252 322.296L84.7868 322.296L84.7868 356.718L119.252 356.718Z" stroke="#D3AA7A" stroke-width="2" stroke-miterlimit="10"></path><path d="M102.021 322.296L102.021 356.718" stroke="#D3AA7A" stroke-width="2" stroke-miterlimit="10"></path><path d="M119.252 339.509L84.7868 339.509" stroke="#D3AA7A" stroke-width="2" stroke-miterlimit="10"></path><path d="M144.264 356.983L144.264 322.032L119.519 297.315L84.5224 297.315L59.7746 322.032L59.7746 356.983L84.5224 381.7L119.519 381.7L144.264 356.983Z" stroke="#D3AA7A" stroke-width="2" stroke-miterlimit="10"></path><path d="M59.7745 237.911L59.7745 203.489L25.3098 203.489L25.3098 237.911L59.7745 237.911Z" stroke="#D3AA7A" stroke-width="2" stroke-miterlimit="10"></path><path d="M42.5437 203.489L42.5437 237.911" stroke="#D3AA7A" stroke-width="2" stroke-miterlimit="10"></path><path d="M59.7745 220.702L25.3098 220.702" stroke="#D3AA7A" stroke-width="2" stroke-miterlimit="10"></path><path d="M84.7869 238.179L84.7869 203.225L60.0421 178.508L25.0453 178.508L0.300517 203.225L0.300515 238.179L25.0453 262.893L60.0421 262.893L84.7869 238.179Z" stroke="#D3AA7A" stroke-width="2" stroke-miterlimit="10"></path><path d="M59.7745 297.315L59.7745 262.893L25.3098 262.893L25.3098 297.315L59.7745 297.315Z" stroke="#D3AA7A" stroke-width="2" stroke-miterlimit="10"></path><path d="M42.5437 262.893L42.5437 297.315" stroke="#D3AA7A" stroke-width="2" stroke-miterlimit="10"></path><path d="M59.7745 280.105L25.3098 280.105" stroke="#D3AA7A" stroke-width="2" stroke-miterlimit="10"></path><path d="M84.7869 297.582L84.7869 262.629L60.0421 237.911L25.0453 237.911L0.300517 262.629L0.300515 297.582L25.0453 322.296L60.0421 322.296L84.7869 297.582Z" stroke="#D3AA7A" stroke-width="2" stroke-miterlimit="10"></path><path d="M59.7745 356.718L59.7745 322.296L25.3098 322.296L25.3098 356.718L59.7745 356.718Z" stroke="#D3AA7A" stroke-width="2" stroke-miterlimit="10"></path><path d="M42.5437 322.296L42.5437 356.718" stroke="#D3AA7A" stroke-width="2" stroke-miterlimit="10"></path><path d="M59.7745 339.509L25.3098 339.509" stroke="#D3AA7A" stroke-width="2" stroke-miterlimit="10"></path><path d="M84.7869 356.983L84.7869 322.032L60.0421 297.315L25.0453 297.315L0.300517 322.032L0.300515 356.983L25.0453 381.7L60.0421 381.7L84.7869 356.983Z" stroke="#D3AA7A" stroke-width="2" stroke-miterlimit="10"></path></g><defs><clipPath id="clip0_21_571"><rect width="382" height="561" fill="white" transform="translate(561) rotate(90)"></rect></clipPath></defs></svg> 