
<svg version="1.0" xmlns="http://www.w3.org/2000/svg"
 width="634.000000pt" height="341.000000pt" viewBox="0 0 634.000000 341.000000"
 preserveAspectRatio="xMidYMid meet">

<g transform="translate(0.000000,341.000000) scale(0.100000,-0.100000)"
fill="#000000" stroke="none">
<path style="fill: #b60202;" d="M3296 3198 c-9 -12 -16 -27 -16 -33 0 -6 -13 -29 -29 -51 -47 -64
-173 -316 -176 -354 -3 -19 0 -42 5 -49 8 -15 15 -7 62 78 9 16 34 39 56 50
l39 20 7 -56 c7 -61 17 -83 54 -128 l25 -30 -6 60 c-3 33 -9 85 -13 117 l-7
56 48 25 48 24 -31 6 c-18 4 -39 4 -47 1 -12 -5 -15 5 -15 62 0 38 7 100 15
139 8 38 15 73 15 77 0 16 -19 7 -34 -14z m-58 -293 c-2 -1 -13 -6 -26 -10
l-22 -6 22 47 23 47 3 -38 c2 -20 2 -38 0 -40z"/>
<path style="fill: #b60202;" d="M2084 2968 c-110 -260 -135 -342 -143 -468 -5 -76 -13 -116 -28 -145
-19 -37 -95 -368 -109 -477 -7 -51 -14 -57 -34 -33 -12 15 -10 66 5 110 3 11
-1 7 -11 -9 -9 -16 -23 -75 -31 -130 -7 -55 -18 -105 -23 -110 -16 -16 -12
-29 6 -22 14 5 15 -1 9 -53 -4 -38 -3 -61 4 -65 19 -12 12 -23 -18 -29 -17 -4
-35 -16 -41 -27 -6 -11 -17 -78 -25 -148 -8 -70 -17 -142 -21 -161 l-5 -33
-31 42 c-20 27 -31 53 -31 74 1 31 -58 209 -128 389 -22 53 -39 102 -39 107 0
17 49 11 59 -8 5 -9 12 -34 16 -55 4 -20 12 -37 17 -37 21 0 -3 95 -41 165
-29 52 -37 75 -30 87 11 20 -9 37 -21 18 -11 -18 -27 -5 -35 27 -9 38 -23 53
-49 53 -20 1 -19 2 6 21 46 34 46 75 0 166 -21 43 -62 148 -91 235 -62 187
-96 244 -175 293 -13 8 -14 16 -5 53 10 37 9 50 -10 98 -11 31 -19 60 -15 65
3 5 0 9 -5 9 -6 0 -11 -7 -11 -15 0 -9 -12 -20 -26 -25 -21 -8 -34 -6 -61 10
-43 25 -43 25 -43 -2 0 -13 -7 -31 -15 -42 -12 -16 -12 -23 0 -54 19 -45 19
-49 -5 -55 -22 -6 -26 -28 -10 -57 8 -15 6 -24 -10 -40 -17 -17 -19 -27 -13
-53 12 -45 5 -78 -18 -84 -11 -3 -18 -11 -16 -17 10 -28 -18 -179 -73 -381
-32 -121 -62 -251 -65 -290 -4 -38 -22 -124 -41 -190 -19 -67 -38 -141 -43
-165 -6 -25 -19 -70 -30 -102 -11 -31 -32 -131 -45 -222 -14 -92 -35 -196 -46
-233 -11 -37 -23 -101 -26 -143 -3 -41 -10 -88 -15 -105 -10 -34 -8 -51 5 -47
4 1 5 -34 1 -79 -6 -67 -5 -81 6 -77 8 3 15 22 17 44 2 21 8 44 14 49 7 7 8
-13 3 -66 -4 -51 -3 -79 4 -84 8 -4 7 -14 -3 -33 -17 -33 -31 -132 -19 -132 9
0 164 458 188 556 8 34 15 96 15 138 0 56 5 85 20 114 21 40 75 260 105 425
17 96 27 110 49 74 7 -12 5 -30 -8 -67 -10 -28 -16 -54 -12 -57 12 -13 39 76
48 162 6 50 16 97 24 106 18 20 18 30 0 23 -12 -5 -14 8 -13 69 1 41 5 73 9
71 15 -9 50 18 63 49 7 18 16 59 19 92 12 109 29 205 36 210 4 3 18 -32 30
-78 42 -158 71 -236 108 -300 27 -47 52 -115 86 -239 72 -260 73 -264 136
-398 32 -69 68 -156 80 -195 13 -38 38 -96 57 -127 19 -32 37 -73 40 -93 6
-35 23 -49 23 -19 0 25 19 6 46 -48 21 -42 24 -55 15 -80 -17 -48 -13 -78 18
-143 24 -50 29 -56 35 -38 4 11 15 23 26 26 14 4 20 16 22 48 3 50 31 68 41
27 8 -30 33 -65 42 -57 3 4 -1 37 -10 73 -18 81 -19 122 -2 133 6 4 20 17 30
29 16 19 16 23 1 53 -18 37 -7 81 21 81 11 0 14 6 9 25 -9 37 12 177 62 401
26 119 44 228 44 264 0 64 50 290 95 432 14 42 34 137 46 210 12 73 36 193 55
266 19 73 34 149 34 168 0 19 7 51 15 71 8 19 15 38 15 40 0 3 -7 3 -15 -1
-19 -7 -19 10 0 89 15 64 14 71 -10 62 -9 -4 -15 -19 -15 -39 0 -18 -5 -40
-10 -48 -12 -17 -6 172 5 191 12 19 33 119 25 119 -5 0 -43 -82 -86 -182z"/>
<path style="fill: #b60202;" d="M2883 3083 c-7 -16 -21 -81 -33 -146 -11 -64 -27 -143 -36 -175 -9
-31 -19 -70 -24 -87 -4 -16 -21 -71 -39 -122 -37 -110 -38 -117 -8 -110 12 3
72 17 132 32 61 14 125 30 143 36 19 6 75 10 125 9 153 -4 153 -4 152 28 0 23
-5 28 -30 30 -16 2 -34 7 -40 12 -16 13 -223 -8 -308 -31 -44 -11 -80 -19 -82
-17 -1 2 11 55 27 118 16 63 32 142 34 174 3 33 8 65 12 70 4 6 14 41 23 78
14 60 14 71 1 98 -18 37 -34 38 -49 3z"/>
<path style="fill: #b60202;" d="M4157 2769 c-11 -6 -38 -8 -67 -4 -41 6 -53 3 -78 -15 -28 -21 -29
-23 -14 -41 9 -10 27 -19 39 -19 14 0 23 -6 23 -15 0 -8 5 -15 11 -15 5 0 7
-4 4 -10 -4 -6 6 -7 25 -3 25 4 34 1 46 -15 13 -19 18 -20 40 -10 22 10 28 9
39 -5 8 -11 26 -17 52 -17 47 0 110 -18 253 -71 105 -40 150 -72 150 -108 0
-31 -138 -170 -199 -200 -98 -49 -155 -81 -145 -81 5 0 2 -5 -6 -10 -8 -5 -45
-9 -82 -8 -79 2 -77 -2 -48 108 22 83 25 136 10 175 -7 18 -6 40 2 70 11 40
10 49 -10 87 -12 24 -22 38 -22 32 0 -7 -9 -14 -20 -17 -14 -3 -20 -14 -20
-32 0 -19 -5 -25 -17 -23 -13 2 -19 -5 -21 -24 -2 -15 -14 -36 -26 -46 -18
-14 -22 -25 -18 -50 2 -18 0 -32 -6 -32 -5 0 -13 -26 -16 -57 -4 -32 -15 -82
-24 -111 -18 -57 -32 -67 -127 -91 l-30 -8 28 -11 c15 -6 27 -16 27 -21 0 -5
13 -12 28 -16 l28 -6 -7 -67 c-6 -61 -24 -132 -64 -252 -8 -25 -20 -83 -26
-130 -5 -47 -16 -110 -23 -140 -18 -72 -27 -182 -15 -174 6 4 7 -14 3 -47 -5
-38 -4 -50 5 -45 6 4 11 18 11 32 0 13 5 24 11 24 8 0 10 -14 6 -39 -2 -21 -1
-44 3 -51 14 -22 -12 -70 -38 -70 -13 0 -20 -4 -17 -10 4 -6 -24 -10 -76 -10
-73 0 -80 -2 -68 -16 10 -12 23 -14 56 -9 25 4 43 2 43 -3 0 -5 -33 -13 -72
-16 -97 -8 -93 -8 -173 0 -112 10 -67 -10 90 -42 119 -24 164 -28 305 -29 164
0 165 0 245 33 44 18 105 37 135 42 125 21 339 154 435 270 42 51 55 59 55 35
0 -9 -24 -41 -52 -72 -49 -52 -50 -55 -19 -37 54 30 110 108 156 214 8 19 20
43 27 54 9 13 10 20 2 23 -7 2 -9 29 -6 77 4 67 2 75 -19 96 -16 15 -20 24
-11 27 42 16 -19 142 -94 194 -44 30 -215 118 -269 139 l-30 11 47 29 c26 16
52 38 57 49 6 11 26 24 45 31 42 14 130 105 156 162 25 55 25 114 1 161 -12
23 -15 39 -9 43 18 12 40 -23 48 -77 l8 -54 1 43 c1 57 -30 115 -78 148 -22
14 -42 33 -46 42 -5 14 -7 14 -15 2 -7 -12 -13 -12 -34 -1 -13 8 -32 11 -40 8
-12 -5 -16 0 -16 18 0 33 -20 42 -187 81 -146 35 -224 42 -256 23z m2 -808
c15 -15 28 -18 64 -14 38 5 47 2 59 -16 7 -11 20 -21 28 -21 32 0 137 -32 197
-59 149 -70 243 -174 243 -268 0 -42 -38 -101 -120 -186 -44 -45 -82 -88 -85
-95 -3 -8 -11 -12 -18 -9 -6 2 -57 -20 -112 -49 -158 -83 -215 -103 -336 -119
-61 -8 -129 -20 -151 -26 -22 -5 -41 -9 -43 -7 -2 2 12 41 31 88 49 118 74
217 72 275 -1 28 6 69 15 91 9 23 26 94 39 158 13 66 27 115 33 112 5 -2 9
-21 8 -42 -2 -36 -1 -38 12 -20 8 11 15 41 15 66 0 25 6 52 12 58 10 10 10 15
1 20 -16 10 -12 82 5 82 6 0 21 -9 31 -19z"/>
<path style="fill: #b60202;" d="M810 2730 c0 -5 5 -10 10 -10 6 0 10 5 10 10 0 6 -4 10 -10 10 -5 0
-10 -4 -10 -10z"/>
<path style="fill: #b60202;" d="M5535 2296 c-6 -7 -41 -49 -78 -92 -87 -100 -145 -197 -168 -281 -10
-37 -27 -76 -38 -87 -15 -17 -103 -225 -135 -319 -7 -22 -26 -13 -26 11 0 10
7 28 16 40 9 13 14 26 11 29 -10 9 -39 -46 -54 -104 -8 -32 -20 -61 -26 -65
-9 -6 -9 -10 1 -16 10 -7 10 -15 2 -37 -6 -15 -8 -36 -5 -46 5 -14 2 -17 -8
-13 -10 3 -24 -6 -38 -25 -17 -23 -31 -31 -53 -31 -42 0 -106 -19 -136 -40
-14 -9 -45 -20 -69 -23 -30 -4 -52 -14 -73 -36 -22 -23 -26 -31 -14 -31 9 0
16 -5 16 -11 0 -7 12 -10 30 -7 18 3 31 0 34 -9 3 -8 21 -13 44 -13 23 0 45
-6 52 -15 12 -14 15 -14 30 0 19 17 50 20 50 4 0 -5 5 -7 10 -4 13 8 13 7 -11
-61 -15 -41 -23 -89 -25 -159 -2 -60 -9 -115 -18 -137 -14 -32 -14 -41 0 -82
l16 -45 23 22 c13 12 25 31 27 42 2 12 10 19 21 17 9 -2 17 2 17 8 0 6 4 9 8
6 5 -3 7 8 4 23 -3 20 3 35 19 50 17 16 23 31 21 55 -2 22 2 37 11 43 8 4 20
33 27 63 6 30 21 82 33 115 l22 60 85 12 c47 6 109 16 139 22 29 6 105 11 169
13 l116 2 7 -28 c5 -16 13 -63 19 -105 11 -80 39 -192 51 -201 3 -3 9 -22 13
-42 4 -21 12 -38 17 -38 6 0 8 13 5 32 -5 26 -4 29 4 13 18 -38 32 -80 35
-106 1 -14 8 -35 14 -45 24 -41 -7 339 -34 417 -8 23 -15 63 -15 90 l0 49 49
0 c27 0 68 7 91 15 23 8 53 15 67 15 13 0 21 4 18 10 -5 9 11 15 60 22 28 5
15 24 -13 20 -15 -2 -21 1 -17 7 3 6 13 11 21 11 9 0 25 5 37 12 12 6 32 13
44 14 12 1 30 7 40 13 13 7 -31 10 -157 10 -151 1 -181 -2 -217 -18 l-41 -19
-13 69 c-12 68 -7 98 11 69 6 -8 10 -26 11 -40 0 -14 3 -19 6 -12 3 8 -1 42
-8 75 -7 34 -12 68 -11 75 2 6 -2 12 -8 12 -5 0 -10 8 -10 18 0 10 -7 27 -15
39 -13 19 -13 22 1 27 19 7 18 21 -15 249 -14 98 -27 154 -45 191 -15 30 -26
70 -26 93 0 27 -6 46 -20 58 -26 24 -33 50 -20 75 12 22 0 28 -15 6z m-28
-313 c-3 -14 -1 -40 4 -57 4 -17 15 -98 23 -181 9 -82 20 -165 26 -184 5 -19
14 -81 20 -138 6 -57 13 -109 16 -116 3 -9 -24 -16 -102 -25 -59 -7 -109 -11
-111 -8 -12 11 11 26 40 27 30 0 31 1 8 10 -15 6 -40 5 -76 -5 -30 -8 -56 -11
-59 -8 -3 3 -6 -2 -6 -11 0 -12 -9 -17 -30 -17 -16 0 -30 -4 -30 -10 0 -5 -12
2 -26 15 -33 31 -30 49 26 173 22 49 40 99 40 111 0 12 4 19 10 16 11 -7 35
45 70 150 13 39 42 108 65 155 23 47 46 96 50 110 4 14 12 31 18 38 15 19 31
-11 24 -45z"/>
<path style="fill: #b60202;" d="M2445 2290 c-83 -9 -143 -47 -221 -138 -35 -41 -64 -78 -64 -83 0 -4
-10 -29 -22 -56 -12 -26 -20 -52 -19 -57 1 -5 -5 -26 -13 -47 -9 -22 -12 -39
-7 -39 5 0 14 12 20 28 11 26 11 25 5 -8 -3 -19 -7 -44 -8 -55 -2 -11 -10 -38
-19 -60 -14 -33 -14 -36 -2 -20 44 58 187 281 199 309 19 46 115 95 201 103
58 5 65 4 65 -12 0 -13 -5 -16 -26 -11 -16 4 -23 3 -19 -3 3 -6 21 -13 40 -17
20 -3 40 -14 45 -23 7 -12 9 -12 10 -2 0 11 4 11 18 -2 10 -10 23 -17 29 -17
6 0 8 -11 6 -24 -4 -17 7 -44 31 -83 24 -39 41 -84 51 -133 8 -41 19 -96 25
-121 9 -37 8 -64 -4 -129 -9 -45 -16 -84 -16 -86 0 -2 -5 -4 -11 -4 -6 0 -8 9
-3 23 3 12 3 19 -1 15 -7 -7 -23 -65 -29 -106 -2 -13 -12 -33 -23 -45 -11 -12
-27 -34 -36 -49 -9 -15 -37 -50 -61 -77 -24 -27 -47 -58 -50 -69 -8 -26 -103
-63 -164 -64 -48 -1 -82 13 -82 33 0 14 28 11 33 -3 3 -7 6 -8 6 -2 1 6 -10
21 -24 34 -14 13 -25 30 -25 37 0 8 -4 11 -10 8 -5 -3 -10 3 -10 14 0 11 -5
23 -11 26 -7 5 -6 12 4 23 8 10 17 49 20 87 3 39 18 111 33 160 15 50 28 117
30 150 1 33 9 76 18 96 13 32 13 109 -1 109 -17 0 -42 -24 -47 -44 -4 -16 -11
-23 -20 -20 -10 4 -16 -5 -21 -25 -4 -17 -17 -39 -31 -50 -16 -12 -24 -29 -24
-49 0 -17 -6 -32 -15 -36 -8 -3 -15 -16 -15 -28 0 -13 -12 -66 -25 -118 -14
-52 -28 -133 -32 -180 -5 -77 -3 -91 22 -155 51 -129 124 -204 186 -191 16 3
29 1 29 -4 0 -19 77 -10 126 15 74 37 194 157 239 239 38 70 115 276 115 309
0 10 7 20 15 23 8 4 15 17 15 30 0 13 7 42 16 64 13 33 14 46 5 67 -8 17 -8
29 -2 37 12 15 -16 130 -61 248 -26 70 -41 93 -92 143 -67 65 -141 110 -196
117 -19 3 -62 2 -95 -2z"/>
<path style="fill: #b60202;" d="M4767 2294 c-4 -4 -7 -14 -7 -23 0 -11 3 -12 11 -4 6 6 10 16 7 23
-2 6 -7 8 -11 4z"/>
<path style="fill: #b60202;" d="M3633 2170 c1 -169 -13 -362 -30 -410 -3 -8 -7 -35 -9 -59 -5 -62
-13 -81 -30 -74 -11 4 -14 -4 -15 -33 -1 -22 0 -47 1 -58 1 -10 -3 -15 -8 -12
-6 3 -8 -2 -5 -12 2 -10 -3 -24 -11 -31 -9 -7 -21 -31 -26 -52 -8 -28 -40 -70
-113 -149 l-102 -109 -58 0 c-32 -1 -67 4 -78 10 -22 11 -79 95 -79 116 0 27
30 12 39 -19 6 -23 9 -27 10 -12 1 12 -6 38 -15 59 -8 21 -16 50 -16 66 -1 16
-5 26 -10 23 -4 -3 -8 7 -8 23 0 15 -4 34 -9 42 -6 9 -2 20 10 32 15 15 19 34
19 83 0 35 13 132 30 214 20 102 28 164 24 194 -4 29 -1 56 10 82 17 41 20 99
6 131 -5 11 -9 14 -9 8 -1 -7 -8 -13 -17 -13 -8 0 -20 -13 -25 -30 -6 -16 -17
-30 -25 -30 -8 0 -14 -5 -14 -11 0 -5 -3 -8 -7 -6 -5 3 -9 -8 -9 -25 -1 -18
-11 -38 -26 -51 -20 -18 -24 -29 -20 -59 3 -28 0 -39 -12 -44 -10 -4 -16 -18
-16 -36 0 -17 -12 -87 -27 -157 -41 -195 -36 -356 18 -535 14 -46 30 -79 50
-97 16 -15 29 -34 29 -42 0 -22 60 -56 111 -63 100 -14 259 72 336 181 68 97
121 212 143 310 11 50 28 128 39 175 24 103 41 400 22 400 -6 0 -12 17 -12 38
-1 35 -2 35 -8 8 -6 -27 -7 -26 -19 20 -24 89 -29 91 -29 14z"/>
<path style="fill: #b60202;" d="M3670 2180 c0 -5 5 -10 10 -10 6 0 10 5 10 10 0 6 -4 10 -10 10 -5 0
-10 -4 -10 -10z"/>
<path style="fill: #b60202;" d="M1810 2121 c0 -12 5 -21 10 -21 6 0 10 6 10 14 0 8 -4 18 -10 21 -5
3 -10 -3 -10 -14z"/>
<path style="fill: #b60202;" d="M1375 2010 c3 -5 8 -10 11 -10 2 0 4 5 4 10 0 6 -5 10 -11 10 -5 0
-7 -4 -4 -10z"/>
<path style="fill: #b60202;" d="M5150 1690 c0 -5 5 -10 10 -10 6 0 10 5 10 10 0 6 -4 10 -10 10 -5 0
-10 -4 -10 -10z"/>
<path style="fill: #b60202;" d="M3563 1665 c-3 -9 -3 -18 -1 -21 3 -3 8 4 11 16 6 23 -1 27 -10 5z"/>
<path style="fill: #b60202;" d="M1691 1624 c0 -11 3 -14 6 -6 3 7 2 16 -1 19 -3 4 -6 -2 -5 -13z"/>
<path style="fill: #b60202;" d="M4910 1621 c0 -5 5 -13 10 -16 6 -3 10 -2 10 4 0 5 -4 13 -10 16 -5
3 -10 2 -10 -4z"/>
<path style="fill: #b60202;" d="M1502 1549 c2 -7 10 -15 17 -17 8 -3 12 1 9 9 -2 7 -10 15 -17 17 -8
3 -12 -1 -9 -9z"/>
<path style="fill: #b60202;" d="M737 1335 c-4 -8 -2 -17 3 -20 6 -4 10 3 10 14 0 25 -6 27 -13 6z"/>
<path style="fill: #b60202;" d="M4555 1120 c-3 -6 1 -7 9 -4 18 7 21 14 7 14 -6 0 -13 -4 -16 -10z"/>
</g>
</svg>
